<svg xmlns="http://www.w3.org/2000/svg" viewBox="0 0 500 500"><g id="freepik--Floor--inject-110"><path id="freepik--floor--inject-110" d="M79.34,451.84c-94.26-54.42-94.26-142.64,0-197.06s247.07-54.42,341.32,0,94.26,142.64,0,197.06S173.59,506.26,79.34,451.84Z" style="fill:#f5f5f5"></path></g><g id="freepik--Painting--inject-110"><g id="freepik--painting--inject-110"><polygon points="260.02 234.87 260.02 233.02 227.05 252.09 228.63 253.02 260.02 234.87" style="fill:#37474f"></polygon><path d="M208.87,154a.43.43,0,0,1,.21.47l-17.27,76.64-.78,3.44a2,2,0,0,1-1.09-.21l0,0-1.83-1.06a.46.46,0,0,1-.21-.48l18-79.86a.44.44,0,0,1,.65-.28Z" style="fill:#37474f"></path><path d="M212.3,152.3l-18.14,80.45a.73.73,0,0,1-.35.47L192,234.28a2,2,0,0,1-.95.23l.78-3.44,17.34-76.95Z" style="fill:#455a64"></path><path d="M225.49,276.23v3.62a2.22,2.22,0,0,1-1-.23l0,0-1.7-1a.71.71,0,0,1-.41-.59V169.43l3.15,1.81Z" style="fill:#37474f"></path><path d="M228.63,169.43V278.07a.73.73,0,0,1-.42.55l-1.69,1a2,2,0,0,1-1,.25V171.24Z" style="fill:#455a64"></path><path d="M266.25,256.32a2.05,2.05,0,0,1-1-.29l-1.75-1a.88.88,0,0,1-.43-.6l-18.73-97.71,3.14,1.82,18.08,94.27Z" style="fill:#37474f"></path><path d="M269.39,254.49h0a.74.74,0,0,1-.44.6l-1.6.92-.07.05a2.18,2.18,0,0,1-1,.25l-.67-3.52L247.5,158.53l3.16-1.81,18.7,97.63v0Z" style="fill:#455a64"></path><polygon points="227.55 257.25 263.17 236.69 263.17 233.06 227.55 253.63 227.55 257.25" style="fill:#455a64"></polygon><path d="M198.49,191.83v1.31a2.21,2.21,0,0,0,1,1.74L210.05,201a2.22,2.22,0,0,0,2,0l48.14-27.8a2.21,2.21,0,0,0,1-1.74v-1.3a2.21,2.21,0,0,0-1-1.74l-10.55-6.09a2.22,2.22,0,0,0-2,0L199.5,190.09A2.21,2.21,0,0,0,198.49,191.83Z" style="fill:#6C63FF"></path><path d="M199.5,191.25l10.55,6.09a2.22,2.22,0,0,0,2,0l48.14-27.79a.61.61,0,0,0,0-1.16l-10.55-6.09a2.22,2.22,0,0,0-2,0L199.5,190.09A.61.61,0,0,0,199.5,191.25Z" style="fill:#fff;opacity:0.4"></path><path d="M211.05,197.58v3.63a2.11,2.11,0,0,1-1-.24l-10.55-6.09a2.24,2.24,0,0,1-1-1.74v-1.31a2.22,2.22,0,0,1,.81-1.6c-.35.32-.28.74.2,1l10.55,6.09A2,2,0,0,0,211.05,197.58Z" style="opacity:0.1"></path><path d="M194,200.24l-1.25-.71a4,4,0,0,1-1.78-2.89L185.3,99.18a3.45,3.45,0,0,1,1.56-2.9L255.7,56.6a3.67,3.67,0,0,1,3.35,0l1.25.7a4,4,0,0,1,1.78,2.9l5.66,97.46a3.44,3.44,0,0,1-1.56,2.89l-68.84,39.69A3.67,3.67,0,0,1,194,200.24Z" style="fill:#263238"></path><path d="M262,59.91c-.18-.85-.9-1.15-1.75-.67L191.45,98.93a3.2,3.2,0,0,0-1.15,1.26l-4.6-2.64a3.3,3.3,0,0,1,1.16-1.26L255.7,56.6a3.68,3.68,0,0,1,3.34,0l1.27.72A4,4,0,0,1,262,59.91Z" style="fill:#455a64"></path><path d="M189.89,101.82l5.66,97.46a1.1,1.1,0,0,0,1.79,1l68.84-39.69a3.44,3.44,0,0,0,1.56-2.89L262.08,60.2a1.09,1.09,0,0,0-1.78-1L191.46,98.92A3.44,3.44,0,0,0,189.89,101.82Z" style="fill:#37474f"></path><path d="M192.68,101.66a.92.92,0,0,1,.22-.35l66.55-38.37L265,157.82a.92.92,0,0,1-.22.35l-66.55,38.37Z" style="fill:#fafafa"></path><polygon points="195.55 103 256.93 67.61 262.09 156.48 200.71 191.86 195.55 103" style="fill:#455a64"></polygon><path d="M209.37,169.16a12.66,12.66,0,0,0,7.25-5.42,13.81,13.81,0,0,0,1.62-7.27,8.38,8.38,0,0,0-.59-3.29c-1.3-2.89-4.93-4-8.1-3.8a23.69,23.69,0,0,0-11.08,4l1,16.49.77.08A24.39,24.39,0,0,0,209.37,169.16Z" style="fill:#263238"></path><path d="M260.56,130.12l-.76.29a5.18,5.18,0,0,0-4.79.81,8.24,8.24,0,0,0-2.79,4.13,11.67,11.67,0,0,0,6.45,14.31,8,8,0,0,0,3.06.7Z" style="fill:#263238"></path><path d="M234.93,87.2c-2.85,1.48-4.28,4.69-5.3,7.74s-1.89,6.31-4.21,8.53a14.89,14.89,0,0,1-6.61,3.19,35.83,35.83,0,0,0-7.07,2.21,8.2,8.2,0,0,0-4.61,5.47,7.38,7.38,0,0,0,2.74,6.69,14.6,14.6,0,0,0,6.88,2.91,29.05,29.05,0,0,0,20-3.53,28.23,28.23,0,0,0,12.5-15.93,17.55,17.55,0,0,0,.44-9.76C247.91,88.52,241.06,84,234.93,87.2Z" style="fill:#263238"></path><path d="M237.12,133.61q-13.94-8.46-28.07-16.58-6.24-3.57-12.5-7.08l-.62-.36.58,10a226.49,226.49,0,0,0,35.26,15.1c2,.66,4.29,1.26,6.31.52C238.42,134.64,237.73,134,237.12,133.61ZM260.26,125c-6.15-3.08-12.41-5.94-18.67-8.79-2-.93-11.8-7.07-13.82-4.66a1.06,1.06,0,0,0-.22.42c-.66,2.84,10.91,9.2,12.75,10.41,6.76,4.45,13.63,8.72,20.56,12.9Zm-1.72-29.67q-3.6-2.87-7.23-5.69a6.93,6.93,0,0,1-2.11-2.24,2.33,2.33,0,0,1,.46-2.82c1.41-1.06,3.93.3,5-1.12,1.23-1.7-1.92-4.26-.63-5.92a2.85,2.85,0,0,1,2.21-.77l1.25-.07-.52-9L229.74,83.28q14.47,8.07,29,16Zm-43,65.33c-3.2-1.94-6.57-3.53-9.83-5.34-2.43-1.35-4.89-2.66-7.36-3.95l2.36,40.53,14-8.08-8.32-5.33a1.12,1.12,0,0,1-.5-.51c-.16-.42.24-.87.67-1,3.38-1.13,1.68-2.13-.73-3.56-1.15-.69-1.67-1.81-.23-2.33,1.17-.41,3,.33,4.18.36.48,0,1.06-.06,1.24-.5a1.15,1.15,0,0,0-.21-1c-1.19-1.95-3.26-3.15-5.11-4.48a2.38,2.38,0,0,1-.81-.83.86.86,0,0,1,.18-1.06,1.26,1.26,0,0,1,.88-.11l4.62.49a30.21,30.21,0,0,1,4.6.92c1.32.37,7.18,2,5-.82C219.08,162.56,217.05,161.54,215.54,160.62Z" style="fill:#6C63FF"></path><path d="M237.12,133.61q-13.94-8.46-28.07-16.58-6.24-3.57-12.5-7.08l-.62-.36.58,10a226.49,226.49,0,0,0,35.26,15.1c2,.66,4.29,1.26,6.31.52C238.42,134.64,237.73,134,237.12,133.61ZM260.26,125c-6.15-3.08-12.41-5.94-18.67-8.79-2-.93-11.8-7.07-13.82-4.66a1.06,1.06,0,0,0-.22.42c-.66,2.84,10.91,9.2,12.75,10.41,6.76,4.45,13.63,8.72,20.56,12.9Zm-1.72-29.67q-3.6-2.87-7.23-5.69a6.93,6.93,0,0,1-2.11-2.24,2.33,2.33,0,0,1,.46-2.82c1.41-1.06,3.93.3,5-1.12,1.23-1.7-1.92-4.26-.63-5.92a2.85,2.85,0,0,1,2.21-.77l1.25-.07-.52-9L229.74,83.28q14.47,8.07,29,16Zm-43,65.33c-3.2-1.94-6.57-3.53-9.83-5.34-2.43-1.35-4.89-2.66-7.36-3.95l2.36,40.53,14-8.08-8.32-5.33a1.12,1.12,0,0,1-.5-.51c-.16-.42.24-.87.67-1,3.38-1.13,1.68-2.13-.73-3.56-1.15-.69-1.67-1.81-.23-2.33,1.17-.41,3,.33,4.18.36.48,0,1.06-.06,1.24-.5a1.15,1.15,0,0,0-.21-1c-1.19-1.95-3.26-3.15-5.11-4.48a2.38,2.38,0,0,1-.81-.83.86.86,0,0,1,.18-1.06,1.26,1.26,0,0,1,.88-.11l4.62.49a30.21,30.21,0,0,1,4.6.92c1.32.37,7.18,2,5-.82C219.08,162.56,217.05,161.54,215.54,160.62Z" style="fill:#fff;opacity:0.6000000000000001"></path><path d="M213.93,129.9a6.1,6.1,0,0,0-.59,6.75A6,6,0,0,0,224.45,135C225.81,129.35,217.69,125.36,213.93,129.9Z" style="fill:#fafafa"></path><path d="M229,141.87a10.54,10.54,0,0,0,1.76-2.27c.61-.88,1.22-1.75,1.82-2.63,1.13-1.63,2.21-3.29,3.3-4.93,1.2-1.8,2.37-3.59,3.53-5.41a41.74,41.74,0,0,0,3.05-5.15c.07-.16,0-.74-.27-.49a40.15,40.15,0,0,0-3.91,5c-1.19,1.62-2.35,3.26-3.51,4.9s-2.32,3.27-3.45,4.92l-1.77,2.63A9.74,9.74,0,0,0,228,141C227.89,141.5,228.52,142.25,229,141.87Zm10.41-8.46a42.62,42.62,0,0,0,3.05-5.16c.07-.15,0-.73-.27-.48a40.81,40.81,0,0,0-3.91,5c-1.19,1.62-2.35,3.26-3.51,4.9s-2.32,3.27-3.45,4.93l-1.77,2.63a9.68,9.68,0,0,0-1.52,2.59c-.14.5.49,1.25,1,.86a10.07,10.07,0,0,0,1.76-2.27c.61-.87,1.22-1.75,1.82-2.63,1.13-1.63,2.21-3.28,3.3-4.93S238.25,135.22,239.41,133.41ZM250,123.16a40.94,40.94,0,0,0-3.9,5c-1.19,1.62-2.35,3.26-3.51,4.9s-2.32,3.27-3.45,4.93l-1.78,2.63a9.5,9.5,0,0,0-1.51,2.59c-.14.49.49,1.24,1,.86a10.54,10.54,0,0,0,1.76-2.27c.6-.88,1.21-1.75,1.82-2.63,1.12-1.63,2.2-3.29,3.3-4.93s2.37-3.59,3.53-5.41a41.74,41.74,0,0,0,3-5.15C250.36,123.48,250.27,122.9,250,123.16Z" style="fill:#6C63FF"></path><path d="M212.56,81.46l6.23,3.59a1.86,1.86,0,0,0,1.69,0l16.79-9.69a1.86,1.86,0,0,0,.85-1.46V72.8a1.86,1.86,0,0,0-.85-1.46L231,67.74a1.86,1.86,0,0,0-1.69,0l-16.79,9.69a1.89,1.89,0,0,0-.84,1.46V80A1.89,1.89,0,0,0,212.56,81.46Z" style="fill:#6C63FF"></path><path d="M212.56,78.41,218.8,82a1.91,1.91,0,0,0,1.68,0l16.79-9.7c.47-.27.47-.7,0-1L231,67.74a1.86,1.86,0,0,0-1.69,0l-16.79,9.69A.52.52,0,0,0,212.56,78.41Z" style="fill:#fff;opacity:0.4"></path><path d="M219.53,82.2v3a1.62,1.62,0,0,1-.74-.19l-6.22-3.59a1.89,1.89,0,0,1-.85-1.46V78.9a1.87,1.87,0,0,1,.69-1.36c-.31.27-.25.63.16.87L218.79,82A1.51,1.51,0,0,0,219.53,82.2Z" style="opacity:0.1"></path><path d="M214.11,46.53a1.36,1.36,0,0,1,.62-1.22l3.87-2.23a1.53,1.53,0,0,1,1.41,0l1.57.9a1.8,1.8,0,0,1,.78,1.22l2.56,25.1L217,74.87Z" style="fill:#455a64"></path><path d="M219.64,73.35,217,74.87l-2.89-28.34a1.39,1.39,0,0,1,.14-.68l3,1.72a1.28,1.28,0,0,0-.15.68Z" style="fill:#263238"></path><path d="M217.08,48.24A1.37,1.37,0,0,1,217.7,47l3.88-2.24a.49.49,0,0,1,.78.41l2.56,25.1-5.28,3Z" style="fill:#37474f"></path></g></g><g id="freepik--character-4--inject-110"><g id="freepik--Character--inject-110"><g id="freepik--Legs--inject-110"><path d="M376.78,307.59c0-.13,2.06-7.55,2.06-7.55s-.67.68-5-.45a24.72,24.72,0,0,1-4.67-2L368,303.06c-1.15,2.09-4.94,1.12-9.09.65-.7-.08-1.42-.2-2.14-.32h0c-2.25-.13-4.5,1.22-2.17,3.13s6.18,2.64,9.73,3.28C368.54,310.57,376,311.82,376.78,307.59Z" style="fill:#f28f8f"></path><path d="M347,306.93a4.37,4.37,0,0,0-.31,2.29c.08.82,2.12,3.63,5.74,5.35s8.08,1.83,10.18,2.44,4,1.8,6.47,2.4,4.91.92,7.38-.71a5.36,5.36,0,0,0,.81-2.48C376.84,315.79,347,306.93,347,306.93Z" style="fill:#263238"></path><path d="M367.32,303.78c-1.59,1.1-4.88.34-8.43-.07-3.36-.38-7.13-1.56-9.41-.77s-4.19,3.47-1.11,6.91a13.25,13.25,0,0,0,4.29,3.29c3.83,1.37,7.26,1.48,9.73,2.09,3.2.79,4.95,2.21,7.92,2.55,3.83.45,6.26-.54,6.92-1.56s1.28-9.29-.36-9.11c0,0-.69,2.67-7,.07C367.17,306.05,367.22,304.38,367.32,303.78Z" style="fill:#37474f"></path><path d="M356.69,308.21s.36-3.49,2.94-4.41a1.35,1.35,0,0,1,1.42.19s-2.4.34-3.18,4.44c0,0-.12.27-.64.17C357.05,308.57,356.66,308.5,356.69,308.21Z" style="fill:#fafafa"></path><path d="M363.24,304.26s0-.12-.6-.23a1.09,1.09,0,0,0-.71.08s-1.92.83-2.28,4.48c0,0,0,.43.59.56a.53.53,0,0,0,.69-.36S361.33,305,363.24,304.26Z" style="fill:#fafafa"></path><path d="M365.31,304.33s-.11-.22-.56-.21-.71.22-.71.22a6.63,6.63,0,0,0-1.38,4.45s-.06.52.66.57.62-.53.62-.53S364.18,305,365.31,304.33Z" style="fill:#fafafa"></path><path d="M377.75,258.6C375.37,268.71,368,299,368,299s5.42,4.87,11.31,2.66c6.26-16.55,17.49-27.85,17.42-40Z" style="fill:#6C63FF"></path><path d="M377.75,258.6C375.37,268.71,368,299,368,299s5.42,4.87,11.31,2.66c6.26-16.55,17.49-27.85,17.42-40Z" style="opacity:0.4"></path><path d="M355.22,318.08c.64-.95,3-7.56,3-7.56s-2.51,1.44-6.83.41c-2.2-.52-4.26-2.91-4.26-2.91l-1.84,6.36c-1.09,2.11-4.62,1.41-8.79,1-.7-.06-1.42-.16-2.14-.27h0c-2.25-.07-4.46,1.33-2.09,3.19s6.25,2.48,9.81,3C346.37,322,352.82,321.65,355.22,318.08Z" style="fill:#f28f8f"></path><path d="M322.92,317.88a4.74,4.74,0,0,0-.28,2.46c.11.89,2.38,3.85,6.31,5.6s8.73,1.75,11,2.34,4.35,1.84,7,2.42,5.29.85,7.9-1a6,6,0,0,0,.81-2.69C355.23,326.61,322.92,317.88,322.92,317.88Z" style="fill:#263238"></path><path d="M344.66,313.9a7.34,7.34,0,0,1-.79.49,2.55,2.55,0,0,1-.87.18,13.4,13.4,0,0,1-2.1.05c-1.76-.09-3.51-.35-5.26-.51-3.61-.32-7.7-1.49-10.12-.58s-4.64,3.83-1.25,7.44a16.73,16.73,0,0,0,4.56,3.46c4,1.68,8.21,1.37,10.87,1.95,3.46.77,5.38,2.25,8.57,2.54,4.13.37,6.71-.75,7.4-1.87.38-.62-.05-3.86.47-6.37.45-2.17.33-3.64-.45-3.54a3.65,3.65,0,0,1-.6.76,2.83,2.83,0,0,1-.92.73,7.44,7.44,0,0,1-1.55.52,8.8,8.8,0,0,1-2.87.39,1.37,1.37,0,0,1-.79-.25,1.66,1.66,0,0,1-.45-1c-.07-.32-.14-.64-.2-1a1.5,1.5,0,0,0-.18-.5,1.46,1.46,0,0,0-.49-.39,4.07,4.07,0,0,1-1.57-1.2,3.57,3.57,0,0,1-.46-1.48.38.38,0,0,0-.11-.24c-.12-.1-.29,0-.41.06Z" style="fill:#37474f"></path><path d="M333.4,319s.29-3.75,3-4.81a1.44,1.44,0,0,1,1.53.16s-2.56.44-3.3,4.85c0,0-.12.29-.68.2C333.8,319.37,333.38,319.31,333.4,319Z" style="fill:#fafafa"></path><path d="M340.33,314.58s0-.12-.65-.23a1.21,1.21,0,0,0-.76.1s-2,.95-2.33,4.87a.71.71,0,0,0,.65.59.58.58,0,0,0,.73-.4S338.29,315.38,340.33,314.58Z" style="fill:#fafafa"></path><path d="M342.55,314.61s-.12-.23-.61-.22-.75.26-.75.26a7.1,7.1,0,0,0-1.37,4.81s0,.56.73.6.65-.59.65-.59S341.36,315.3,342.55,314.61Z" style="fill:#fafafa"></path><path d="M357.33,268.23c-2.47,7.61-8.78,29.26-11.67,40.39,0,0,5.19,4.66,11.85,4.26,3.54-8.32,19.65-31.37,17.69-41.23-1.23-6.24-8-4.42-8-4.42Z" style="fill:#6C63FF"></path><path d="M357.33,268.23c-2.47,7.61-8.78,29.26-11.67,40.39,0,0,5.19,4.66,11.85,4.26,3.54-8.32,19.65-31.37,17.69-41.23-1.23-6.24-8-4.42-8-4.42Z" style="opacity:0.30000000000000004"></path><path d="M373.87,280.75c-2.3-1.62-7.51-4.86-8.11-6.51,0,0,.81,5.22,7.26,8.82Z" style="opacity:0.30000000000000004"></path></g><path d="M458.35,344.87l-6.87-57.41-5.63-.28,9.67,57.68h0a.8.8,0,0,0,.37.51,2.26,2.26,0,0,0,2,.1.71.71,0,0,0,.44-.6Z" style="fill:#263238"></path><path d="M381.31,282.26h-5.63l-8.19,54.21h0a.67.67,0,0,0,.41.62,2.2,2.2,0,0,0,2,0,.74.74,0,0,0,.4-.49h0Z" style="fill:#37474f"></path><path d="M375.68,282.26l-2.28,15.13a22.6,22.6,0,0,0,4.31,2.64l3.6-17.77Z" style="fill:#263238"></path><path d="M420.74,364.12l-5.29-58.38-5.62-.29,8.08,58.66h0a.74.74,0,0,0,.38.5,2.2,2.2,0,0,0,2,.1.67.67,0,0,0,.44-.59Z" style="fill:#37474f"></path><path d="M416.22,314.27l-.77-8.53-5.62-.29,1.27,9.23A10,10,0,0,0,416.22,314.27Z" style="fill:#263238"></path><path d="M412,264.39h-5.62l-8.2,54.21h0a.66.66,0,0,0,.41.62,2.22,2.22,0,0,0,2,0,.76.76,0,0,0,.4-.48h0Z" style="fill:#263238"></path><path d="M372.21,281.14c-.79-4.44,2.83-7.91,9.64-12.5a161.65,161.65,0,0,1,19.71-11.08c5.7-2.61,11.52-2.37,18.81,1.38,10.13,5.2,40.6,23.68,40.6,23.68s-45.56,25.72-54.33,24.56-30.67-15.4-32.41-20.41S372.21,281.14,372.21,281.14Z" style="fill:#6C63FF"></path><g style="opacity:0.6000000000000001"><path d="M372.21,281.14c-.79-4.44,2.83-7.91,9.64-12.5a161.65,161.65,0,0,1,19.71-11.08c5.7-2.61,11.52-2.37,18.81,1.38,10.13,5.2,40.6,23.68,40.6,23.68s-45.56,25.72-54.33,24.56-30.67-15.4-32.41-20.41S372.21,281.14,372.21,281.14Z" style="fill:#fff"></path></g><path d="M411.05,301.77c-6.54,5.92-13.38.83-24.2-6.19-12.24-7.94-14.64-14.44-14.64-14.44s0,4.87.92,7.15,2.89,4.87,11.72,11,15.21,9.13,21.15,10.26l4.68-.65" style="fill:#6C63FF"></path><path d="M386.85,295.58c-12.24-7.94-14.64-14.44-14.64-14.44s0,4.87.92,7.15,2.89,4.87,11.72,11,15.21,9.13,21.15,10.26l4.68-.65.37-7.09C404.51,307.69,397.67,302.6,386.85,295.58Z" style="fill:#fff;opacity:0.25"></path><g id="freepik--Top--inject-110"><path d="M417.26,123c2.56.18,7.69,1.68,8.61,4.57s-1.74,6.45-4.39,7.66S417.26,123,417.26,123Z" style="fill:#f0997a"></path><path d="M439.5,161.14c-3.46-8.78-8.4-20.75-9.16-22.49a27.39,27.39,0,0,1-1.31-7.87,5.48,5.48,0,0,0-2-4.63l-2.18,2.26-.28.6,1.1,5.72c-.06,0-8.19-3.75-9-1.4s-1.18,4,.74,6.11c1.27,1.42,4.2,3.8,4.63,5.26,2.07,7.22,5.19,19.89,5.19,19.89s-2.88,20.25-3.81,22.47a19,19,0,0,1-4.69,7c-5.93,5.4,16.16,29.74,16.92,23.21,1.78-15.35,3.5-37.27,4-41.92C440.76,166.11,441,165,439.5,161.14Z" style="fill:#ffa8a7"></path><path d="M422.56,138.79a1.58,1.58,0,0,1,.75-1.83h0a12.69,12.69,0,0,0,1.5-1,1.9,1.9,0,0,0,.54-.59,1.29,1.29,0,0,0,.09-.7c-1.17-.51-8.08-3.48-8.79-1.32-.81,2.46-1.26,4.06,1,6.38l.65,0a6.15,6.15,0,0,0,1.17-.15,3.81,3.81,0,0,0,2.09-1c.07-.08.12-.17.18-.25a3.49,3.49,0,0,0,.36.84,4.69,4.69,0,0,0,1.18,1.29A14.49,14.49,0,0,1,422.56,138.79Z" style="fill:#f28f8f"></path><path d="M411.72,114.52l1.76-1.13,13.11,4.79-1.76,1.13a4.83,4.83,0,0,1-1.15.45,4.68,4.68,0,0,0-.33,3.2l2.28,11.77a.16.16,0,0,1-.08.18l-1.76,1.14c-.62.4-4.64-1.14-4.79-2l-1.81-11.6a10.68,10.68,0,0,0-3.54-6.15A25.26,25.26,0,0,1,411.72,114.52Z" style="fill:#263238"></path><path d="M404.35,98.38c-.73-4.67.42-8.14,2.8-9.68l1.8-1.15a6.7,6.7,0,0,1,6.09-.29c6.15,2.24,12.37,10.45,13.89,18.32l.52,2.67c.9,4.7-.16,8.17-2.53,9.72l-1.8,1.16c-1.6,1-3.78,1.19-6.37.25l-.09,0C412.2,117,406,108.78,404.76,101Z" style="fill:#6C63FF"></path><path d="M404.35,98.38c-.73-4.67.42-8.14,2.8-9.68l1.8-1.15a6.7,6.7,0,0,1,6.09-.29c6.15,2.24,12.37,10.45,13.89,18.32l.52,2.67c.9,4.7-.16,8.17-2.53,9.72l-1.8,1.16c-1.6,1-3.78,1.19-6.37.25l-.09,0C412.2,117,406,108.78,404.76,101Z" style="opacity:0.4"></path><path d="M418.66,119.34l.09,0c6.46,2.35,10.46-2.12,8.94-10l-.52-2.67c-1.52-7.87-7.74-16.08-13.89-18.33s-10.15,2.23-8.93,10l.41,2.63C406,108.78,412.2,117,418.66,119.34Z" style="fill:#6C63FF"></path><path d="M410.61,99.81a.93.93,0,0,1-.15-.43.36.36,0,0,1,.09-.31l2.53-2.26a2.59,2.59,0,0,1,.23-.19.37.37,0,0,1,.36,0l1.8.63a.8.8,0,0,1,.31.26,1.09,1.09,0,0,1,.19.43l2.48,13.2a.44.44,0,0,1,0,.35.21.21,0,0,1-.25.07l-1.93-.68a.8.8,0,0,1-.31-.26,1.26,1.26,0,0,1-.19-.43l-1.68-8.93-1.4,1.22a.22.22,0,0,1-.28,0,.78.78,0,0,1-.3-.3Z" style="fill:#fff"></path><path d="M432.73,107.38a29.7,29.7,0,0,0-3.56-11.51,21.77,21.77,0,0,0-3.73-4.81,21,21,0,0,0-4.91-3.53,31.42,31.42,0,0,1,7.73,8.87A56.29,56.29,0,0,1,432.73,107.38Z" style="fill:#e0e0e0"></path><path d="M433.86,98.46a10.65,10.65,0,0,0-.91-3.12,18.42,18.42,0,0,0-1.61-2.83A16.57,16.57,0,0,0,429.22,90a7.54,7.54,0,0,0-2.75-1.76,18.71,18.71,0,0,1,2.15,2.32c.64.82,1.27,1.66,1.86,2.52C431.68,94.83,432.8,96.58,433.86,98.46Z" style="fill:#e0e0e0"></path><path d="M411.72,114.52a25.26,25.26,0,0,0,1.93,1.82,10.68,10.68,0,0,1,3.54,6.15l1.81,11.6c.16.91,5,2.68,4.87,1.77l-2.28-11.76c-.43-2.22.22-3.92,1.72-4.23a5.12,5.12,0,0,0,1.52-.56Z" style="fill:#455a64"></path><path d="M417.27,123c.1,1,.3,2,.45,2.92,0,0,1.82,3.24,2.2,3.85s3.38.36,5,1.47c.44.3,1.13,1.26.59,1.75a1.69,1.69,0,0,1-.9.33,1.53,1.53,0,0,1,0,.53,1.8,1.8,0,0,1-.89,1,1.64,1.64,0,0,1-.5.22,3.32,3.32,0,0,1,0,.73c-.07.31-.22.44-.61.77a3.73,3.73,0,0,1-.71.4c.16.4,0,.74-.52,1.09a4.57,4.57,0,0,1-1.32.53,5,5,0,0,1-4.13-.48,3.51,3.51,0,0,1-1.09-2c-.16-.56-.21-1.13-.35-1.69,0-.19-.54-1.34-.43-1.45a3.16,3.16,0,0,1-.16-.9c0-.53.28-1,.26-1.55a7,7,0,0,0-.31-1.32,2.38,2.38,0,0,1,.23-1.55,6.8,6.8,0,0,0,.47-.83c.31-.82-.17-1.8.2-2.6a1.81,1.81,0,0,1,1-.87,4.67,4.67,0,0,1,.91-.23A2.92,2.92,0,0,1,417.27,123Z" style="fill:#ffa8a7"></path><path d="M423,123.07a34.39,34.39,0,0,0-4.11,1.11c-.76.21-.81,1.29.87,2a4.61,4.61,0,0,0,3,.24l1.82,2.61,2.46-2.86C425.85,125,424,123.12,423,123.07Z" style="fill:#ffa8a7"></path><path d="M421.93,133.16a20.58,20.58,0,0,1-2.66-.32,2.94,2.94,0,0,1-1.79-1.69c-.48-.76-1-1.52-1.5-2.27.36.84.77,1.65,1.19,2.47a5.16,5.16,0,0,0,.73,1.19,2.49,2.49,0,0,0,1.26.76,12.86,12.86,0,0,0,2.75.22,13.93,13.93,0,0,0,2.73-.24C423.73,133.28,422.83,133.22,421.93,133.16Zm-3.6,1.9a1.86,1.86,0,0,1-1.82-1c-.39-.7-.78-1.41-1.22-2.1.26.77.58,1.53.9,2.29a2.6,2.6,0,0,0,.86,1,2,2,0,0,0,1.3.3c.81,0,1.62,0,2.44-.1a11.69,11.69,0,0,0,2.42-.36c-.81.05-1.62,0-2.43,0S419.15,135,418.33,135.06Z" style="fill:#f28f8f"></path><path d="M416.48,194.87c2-1,5.29-4.49,6-6.71s4.12-23.25,4.12-23.25l-3.93-17a10.5,10.5,0,0,0,6.58-.57c3.6-1.48,3.74-3.17,3.74-3.17s5.92,14.46,6.91,16.85,1.34,2.87.91,8.1-4.58,49-4.58,49l-19.6-23" style="fill:#6C63FF"></path><path d="M416.48,194.87c2-1,5.29-4.49,6-6.71s4.12-23.25,4.12-23.25l-3.93-17a10.5,10.5,0,0,0,6.58-.57c3.6-1.48,3.74-3.17,3.74-3.17s5.92,14.46,6.91,16.85,1.34,2.87.91,8.1-4.58,49-4.58,49l-19.6-23" style="fill:#fff;opacity:0.75"></path><path d="M443.86,257.67c-8.46-.85-32.59-6.9-38.48-7.91-11.25-1.93-17-2.21-20.23-1.19s-6,4.63-7,8.52c-1.17,4.58-1.78,6.91-1.78,6.91s24.74,8.69,37.26,10.16S443.86,257.67,443.86,257.67Z" style="fill:#6C63FF"></path><path d="M443.86,257.67c-8.46-.85-32.59-6.9-38.48-7.91-11.25-1.93-17-2.21-20.23-1.19s-6,4.63-7,8.52c-1.17,4.58-1.78,6.91-1.78,6.91s24.74,8.69,37.26,10.16S443.86,257.67,443.86,257.67Z" style="opacity:0.4"></path><path d="M443.86,257.67c.48,12,.07,23.09-5.67,29.1-3.86,4.05-23.26,14.57-35.78,10.43-12.33-4.08-37.86-23-40.43-24.95s-4.89-3.21-4.65-4c3.45-11.43,8.48-12.33,17.81-10.27,11.42,2.51,36.47,12.73,36.47,12.73Z" style="fill:#6C63FF"></path><path d="M443.86,257.67c.48,12,.07,23.09-5.67,29.1-3.86,4.05-23.26,14.57-35.78,10.43-12.33-4.08-37.86-23-40.43-24.95s-4.89-3.21-4.65-4c3.45-11.43,8.48-12.33,17.81-10.27,11.42,2.51,36.47,12.73,36.47,12.73Z" style="opacity:0.30000000000000004"></path><polygon points="395.02 194.41 399.69 208.06 414.58 203.49 410 187.87 395.02 194.41" style="fill:#f28f8f"></polygon><path d="M385.51,176.15s-3.52,5.09-3.15,5.61,2.88,1,2.88,1Z" style="fill:#b16668"></path><path d="M385.54,179.51a4.22,4.22,0,1,1,4.21-4.21A4.22,4.22,0,0,1,385.54,179.51Zm0-7.65A3.44,3.44,0,1,0,389,175.3,3.44,3.44,0,0,0,385.54,171.86Z" style="fill:#263238"></path><path d="M395.3,162.07c-6.93,1.3-9,4.28-9.89,15.22-.94,11.42.15,15,1.61,16.62,1,1.06,6.63,1.38,9.49.66,3.58-.9,11.69-3.57,15.59-9.24,4.59-6.67,6-15.82,1.31-19.69C406.85,160.19,398.11,161.54,395.3,162.07Z" style="fill:#f28f8f"></path><path d="M395.16,194.82a13,13,0,0,1-7.83-.68,10.3,10.3,0,0,0,5-.19c2.83-.79,3.36-1.78,3.36-1.78Z" style="fill:#b16668"></path><path d="M384.13,166.54l0,0a15.76,15.76,0,0,0,6.61,2.25,13.6,13.6,0,0,0,1,5.46c.4,1.22,1.84,5.08,3.4,3,1.14-1.53,2.17-2.92,4.34-2.54,3.57.62,3.95,5.2,1.63,7.93s-4.41,1.61-4.41,1.61-.33,4.93,2.27,8.41a11.68,11.68,0,0,0,9.32.59c3.44-1.13,8.4-5.46,10.23-8.84,5-9.31,5.05-18.23-1-21-.56-4.46-4-6.53-8-7.54-5.5-1.4-11.21,2.05-16.53-.22-1.12-.48-2.15-1.16-3.3-1.58a2.25,2.25,0,0,0-2,0,2.35,2.35,0,0,0-.85,1.51,4.3,4.3,0,0,0,.21,3.18,9.43,9.43,0,0,0-2.5-.93,3.13,3.13,0,0,0-2.52.58,3.21,3.21,0,0,0-1,2.2A6.75,6.75,0,0,0,384.13,166.54Z" style="fill:#263238"></path><path d="M417.54,164.91l4.18-2.34a2.4,2.4,0,0,0-4.18,2.34Z" style="fill:#263238"></path><polygon points="395.08 177.56 381.69 175.05 381.81 174.41 395.2 176.91 395.08 177.56" style="fill:#263238"></polygon><path d="M413.07,198.35l-.66-2.23c9.56-4.54,17.48,2.83,22.64,15.77,5.52,13.85,8.92,29.49,9,48.63a44.09,44.09,0,0,1-17.29,12.82C415.19,277.9,399.1,276,394.09,264c0,0,0-8-.37-14.88a69.42,69.42,0,0,0-5.25-21.1c-2.73-6.35-6.33-18.16,1.08-22.55,2.17-1.29,5.54-2.67,8.5-4.09C404.79,203.63,414,201,413.07,198.35Z" style="fill:#6C63FF"></path><path d="M413.07,198.35l-.66-2.23c9.56-4.54,17.48,2.83,22.64,15.77,5.52,13.85,8.92,29.49,9,48.63a44.09,44.09,0,0,1-17.29,12.82C415.19,277.9,399.1,276,394.09,264c0,0,0-8-.37-14.88a69.42,69.42,0,0,0-5.25-21.1c-2.73-6.35-6.33-18.16,1.08-22.55,2.17-1.29,5.54-2.67,8.5-4.09C404.79,203.63,414,201,413.07,198.35Z" style="fill:#fff;opacity:0.6000000000000001"></path><path d="M392.25,204.08c.82-2.12,3.13-6.17,3.8-6.67A21.58,21.58,0,0,0,406.3,197c5.25-1.62,5.46-3.13,5.46-3.13l-.38-1.27s.4-.55,1.81.56a13.13,13.13,0,0,1,2.63,3.14c.54.72.15,4.3-3.7,6.81s-10.67,1.45-13.25,1.14a23.84,23.84,0,0,1-4.66-1.05Z" style="fill:#fff"></path><path d="M397.51,218.92c2.5,6.22-.82,16.73-.82,16.73s2.47,12.92,2.47,19.35,3.2,13.26,11.88,10.62,15.17-7.87,22.26-17.63,6.45-17.31,5.24-26.1A132.6,132.6,0,0,1,444,260.52a44.09,44.09,0,0,1-17.29,12.82C415.19,277.9,399.1,276,394.09,264c0,0,0-8-.37-14.88a69.42,69.42,0,0,0-5.25-21.1c-.27-.63-.55-1.32-.83-2C391.11,221,396,215.06,397.51,218.92Z" style="fill:#6C63FF;opacity:0.2"></path><path d="M396.32,218.19c2.49,6.23.37,17.46.37,17.46s2.47,12.92,2.47,19.35,3.2,13.26,11.88,10.62,15.17-7.87,22.26-17.63,6.45-17.31,5.24-26.1A132.6,132.6,0,0,1,444,260.52a44.09,44.09,0,0,1-17.29,12.82C415.19,277.9,399.1,276,394.09,264c0,0,0-8-.37-14.88a69.42,69.42,0,0,0-5.25-21.1c-.27-.63-.55-1.32-.83-2C391.11,221,394.77,214.33,396.32,218.19Z" style="opacity:0.05"></path><path d="M378.62,265.31c-3.67-1.4-5.92-5.54-6.37-8.22s.76-7.08,2.18-9.52S378.62,265.31,378.62,265.31Z" style="fill:#6C63FF"></path><path d="M378.62,265.31c-3.67-1.4-5.92-5.54-6.37-8.22s.76-7.08,2.18-9.52S378.62,265.31,378.62,265.31Z" style="fill:#fff;opacity:0.6000000000000001"></path><path d="M374.36,248c1.05-6.47,2.76-16.47,4.91-27,2.09-10.25,4.93-13.27,10.28-15.49,13,7.72,5.76,26.79,5.76,26.79s-4.29,19.87-7,26.32c-1.73,4.19-6.12,8.89-10.68,6.26S373.31,254.45,374.36,248Z" style="fill:#6C63FF"></path><path d="M374.36,248c1.05-6.47,2.76-16.47,4.91-27,2.09-10.25,4.93-13.27,10.28-15.49,13,7.72,5.76,26.79,5.76,26.79s-4.29,19.87-7,26.32c-1.73,4.19-6.12,8.89-10.68,6.26S373.31,254.45,374.36,248Z" style="fill:#fff;opacity:0.75"></path></g><path d="M410.68,308.86c3.73-.19,6.64-2.92,15.5-6.61,16.35-6.81,28.61-12.26,33.28-20.83s8-47,6.81-57.67a14,14,0,0,0-.8-3.55l1.15-.17-3-2.53h0c-3.05-2.49-8-.27-11.77,1.77-10.7,5.83-19.07,11.49-25.69,31.93-5,15.37-8.26,43.08-15.13,50.57" style="fill:#6C63FF"></path><path d="M465.47,220.2l1.15-.17-3-2.53h0c-3.05-2.49-8-.27-11.77,1.77-10.7,5.83-19.07,11.49-25.69,31.93-5,15.37-8.26,43.08-15.13,50.57l-.37,7.09c3.73-.19,6.64-2.92,15.5-6.61,16.35-6.81,28.61-12.26,33.28-20.83s8-47,6.81-57.67A14,14,0,0,0,465.47,220.2Z" style="fill:#fff;opacity:0.25"></path><path d="M454.71,220.65c-10.71,5.83-20.77,12.19-26.44,33.14C422.66,274.53,419,306,406,309.51c0,0,5.9,2.34,24-5.3,5.75-2.43,12.72-6.87,17.31-9.44,9-5,14.42-9.17,15.28-10.71,4.75-8.53,8-47,6.82-57.68S460.07,217.73,454.71,220.65Z" style="fill:#6C63FF"></path><g style="opacity:0.4"><path d="M454.71,220.65c-10.71,5.83-20.77,12.19-26.44,33.14C422.66,274.53,419,306,406,309.51c0,0,5.9,2.34,24-5.3,5.75-2.43,12.72-6.87,17.31-9.44,9-5,14.42-9.17,15.28-10.71,4.75-8.53,8-47,6.82-57.68S460.07,217.73,454.71,220.65Z" style="fill:#fff"></path></g></g></g><g id="freepik--character-3--inject-110"><g id="freepik--character--inject-110"><path d="M356.53,168.55c2.53.37,7.53,2.24,8.24,5.19s-2.2,6.3-4.93,7.32S356.53,168.55,356.53,168.55Z" style="fill:#f0997a"></path><path d="M375.92,208.25c-2.82-9-6.87-21.3-7.5-23.09a27.66,27.66,0,0,1-.73-7.95,5.46,5.46,0,0,0-1.7-4.76l-2.35,2.08-.32.58.68,5.79c-.06,0-7.89-4.34-8.83-2.05s-1.47,3.87.29,6.15c1.16,1.51,3.91,4.09,4.23,5.58,1.54,7.36,3.72,20.22,3.72,20.22s-4.34,20-5.44,22.13a19,19,0,0,1-5.18,6.62c-6.31,4.95,15,30.95,15.17,24.39.64-19.39,6.31-36.91,7.1-41.52C376.43,214.47,377.16,212.23,375.92,208.25Z" style="fill:#ffa8a7"></path><path d="M360.65,184.72a1.57,1.57,0,0,1,.88-1.76h0a11.71,11.71,0,0,0,1.58-.9,1.76,1.76,0,0,0,.57-.55,1.25,1.25,0,0,0,.15-.69c-1.14-.59-7.81-4.06-8.67-2-1,2.39-1.55,4,.52,6.44l.65.06a6,6,0,0,0,1.18-.06,3.79,3.79,0,0,0,2.16-.79l.2-.24a3.63,3.63,0,0,0,.29.86,4.41,4.41,0,0,0,1.08,1.37A13.69,13.69,0,0,1,360.65,184.72Z" style="fill:#f28f8f"></path><path d="M351.61,159.73l1.84-1,12.73,5.73-1.84,1a5.21,5.21,0,0,1-1.18.36,4.62,4.62,0,0,0-.56,3.17L364,180.9a.17.17,0,0,1-.09.18l-1.84,1c-.65.36-4.55-1.47-4.63-2.3l-1-11.7a10.7,10.7,0,0,0-3.08-6.39A22.49,22.49,0,0,1,351.61,159.73Z" style="fill:#263238"></path><path d="M345.44,143.1c-.39-4.71,1-8.09,3.5-9.45l1.88-1a6.74,6.74,0,0,1,6.1.15c6,2.69,11.57,11.33,12.51,19.3l.32,2.69c.56,4.75-.75,8.14-3.23,9.51-.31.18-1.57.86-1.88,1-1.67.92-3.86.92-6.37-.21l-.09,0c-6.27-2.83-11.88-11.47-12.52-19.3Z" style="fill:#6C63FF"></path><path d="M345.44,143.1c-.39-4.71,1-8.09,3.5-9.45l1.88-1a6.74,6.74,0,0,1,6.1.15c6,2.69,11.57,11.33,12.51,19.3l.32,2.69c.56,4.75-.75,8.14-3.23,9.51-.31.18-1.57.86-1.88,1-1.67.92-3.86.92-6.37-.21l-.09,0c-6.27-2.83-11.88-11.47-12.52-19.3Z" style="opacity:0.4"></path><path d="M358.18,165.05l.09,0c6.27,2.82,10.58-1.35,9.64-9.31l-.32-2.7c-.94-8-6.54-16.6-12.51-19.29s-10.29,1.48-9.64,9.31l.22,2.65C346.3,153.58,351.91,162.22,358.18,165.05Z" style="fill:#6C63FF"></path><path d="M355.05,151.74l.27.48a3.42,3.42,0,0,0,.33.51,3.37,3.37,0,0,0,.45.48,2.13,2.13,0,0,0,.59.38,1.51,1.51,0,0,0,.56.13.66.66,0,0,0,.44-.13.74.74,0,0,0,.28-.41,2.08,2.08,0,0,0,0-.73,2.69,2.69,0,0,0-.51-1.31,2.56,2.56,0,0,0-1.09-.9.85.85,0,0,0-.37-.08,1.55,1.55,0,0,0-.31,0l-.25.06a.37.37,0,0,1-.21,0l-2.23-1a.77.77,0,0,1-.31-.29,1.08,1.08,0,0,1-.14-.44l-.41-7.19a.49.49,0,0,1,.08-.34.18.18,0,0,1,.24,0l6.12,2.66a.67.67,0,0,1,.29.29.94.94,0,0,1,.16.44l.25,2.19a.4.4,0,0,1-.07.34.2.2,0,0,1-.25.05l-4.16-1.81.11,1.79a1.33,1.33,0,0,1,.55-.08,2,2,0,0,1,.72.19,6.08,6.08,0,0,1,1.58,1,8.3,8.3,0,0,1,1.34,1.48,9.25,9.25,0,0,1,1.52,4.1,5.58,5.58,0,0,1-.08,2.05,2.18,2.18,0,0,1-.7,1.21,1.79,1.79,0,0,1-1.21.41,3.9,3.9,0,0,1-1.59-.38,6.6,6.6,0,0,1-1.78-1.12,8.51,8.51,0,0,1-2.38-3.29,6.93,6.93,0,0,1-.49-1.77.34.34,0,0,1,.06-.28.15.15,0,0,1,.2,0l1.82.79a.92.92,0,0,1,.36.28A1.72,1.72,0,0,1,355.05,151.74Z" style="fill:#fff"></path><path d="M373.09,154.14a29.67,29.67,0,0,0-2.71-11.74,22,22,0,0,0-3.37-5.07,21,21,0,0,0-4.64-3.88,31.57,31.57,0,0,1,7.06,9.41A56.36,56.36,0,0,1,373.09,154.14Z" style="fill:#e0e0e0"></path><path d="M374.87,145.33a10.82,10.82,0,0,0-.68-3.18,18.74,18.74,0,0,0-1.4-2.93,16.52,16.52,0,0,0-1.94-2.63,7.58,7.58,0,0,0-2.61-2,17.64,17.64,0,0,1,2,2.47c.58.86,1.15,1.74,1.67,2.65A62.9,62.9,0,0,1,374.87,145.33Z" style="fill:#e0e0e0"></path><path d="M351.61,159.73a22.49,22.49,0,0,0,1.8,2,10.7,10.7,0,0,1,3.08,6.39l1,11.7c.09.92,4.81,3,4.72,2.12L360.76,170c-.27-2.25.51-3.9,2-4.1a5.3,5.3,0,0,0,1.56-.44Z" style="fill:#455a64"></path><path d="M356.53,168.55c0,1,.16,2,.24,2.95,0,0,1.58,3.37,1.91,4s3.35.6,4.91,1.83c.42.34,1,1.35.46,1.79a1.65,1.65,0,0,1-.92.26,1.78,1.78,0,0,1-.08.53,1.81,1.81,0,0,1-1,1,2.38,2.38,0,0,1-.51.19,3.26,3.26,0,0,1-.09.72c-.08.3-.25.42-.65.72a5.93,5.93,0,0,1-.75.36c.14.41-.06.73-.59,1a4.4,4.4,0,0,1-1.36.43,5,5,0,0,1-4.08-.78,3.45,3.45,0,0,1-.94-2.09c-.12-.56-.12-1.14-.22-1.7,0-.2-.45-1.38-.33-1.48a3.13,3.13,0,0,1-.09-.91c0-.52.35-1,.37-1.52a7.62,7.62,0,0,0-.21-1.34A2.38,2.38,0,0,1,353,173a8.37,8.37,0,0,0,.53-.79c.36-.8,0-1.81.39-2.57a1.78,1.78,0,0,1,1-.8,4.89,4.89,0,0,1,.93-.16A3,3,0,0,1,356.53,168.55Z" style="fill:#ffa8a7"></path><path d="M362.19,169.08a35,35,0,0,0-4.17.81c-.77.15-.91,1.22.72,2a4.64,4.64,0,0,0,3,.46l1.62,2.73,2.67-2.66C364.94,171.24,363.23,169.2,362.19,169.08Z" style="fill:#ffa8a7"></path><path d="M360.43,179.06a21.31,21.31,0,0,1-2.62-.5,3,3,0,0,1-1.67-1.82c-.42-.8-.85-1.59-1.33-2.37.3.86.65,1.7,1,2.54a5,5,0,0,0,.64,1.24,2.48,2.48,0,0,0,1.2.86,12.88,12.88,0,0,0,2.73.41,13.21,13.21,0,0,0,2.74,0C362.22,179.32,361.32,179.19,360.43,179.06Zm-3.72,1.64a1.87,1.87,0,0,1-1.75-1.13c-.33-.73-.67-1.47-1.06-2.19.2.79.47,1.57.73,2.35a2.52,2.52,0,0,0,.79,1.05,2.07,2.07,0,0,0,1.27.39c.81,0,1.62.08,2.44.07a11.89,11.89,0,0,0,2.45-.17c-.82,0-1.62-.13-2.43-.19S357.53,180.74,356.71,180.7Z" style="fill:#f28f8f"></path><g id="freepik--legs--inject-110"><path d="M306.44,346.63c-.92,2.47-5.22,2-9.85,2.17-3.73.12-8-.57-10.42.66s-2.84,4.12,1.08,7.4c4.9,4.09,11.38,3.63,15,4s5.77,1.62,9.08,1.53c4.27-.13,6.77-1.6,7.33-2.82s-.09-10.37-1.86-9.92c0,0,.18-.29-6.09-.5C306.36,349,306.44,346.63,306.44,346.63Z" style="fill:#263238"></path><path d="M316.8,350.19c0-.15,1.05-8.6,1.05-8.6s-.17-.74-5.25-.91c-2.5-.08-5.41-2.17-5.69-.19s-.47,6.14-.47,6.14c-.92,2.47-5.22,2-9.85,2.17-.77,0-1.58,0-2.38,0h0c-2.48.22-4.73,2.06-1.87,3.78s7.19,1.9,11.17,2C308.25,354.77,316.64,354.94,316.8,350.19Z" style="fill:#ffa8a7"></path><path d="M305.19,292.53c-.38,9.22.88,52.74.88,52.74s4.39,2.12,11.54-.34l4.76-47.22Z" style="fill:#37474f"></path><path d="M284.35,357.45c-.84,2.5-7.49,3.59-12.11,3.89-3.73.24-8.07-.3-10.39,1s-2.71,4.22,1.32,7.36c5,3.92,13.84,1.86,17.49,2.09s5.72,1,8.65,1c4.27,0,5.75-1.59,6.27-2.84s1-10.33-.76-9.82c0,0,.17-.29-6.1-.29C284.34,359.82,284.35,357.45,284.35,357.45Z" style="fill:#263238"></path><path d="M294.82,360.66c0-.15,3.38-13.51,3.38-13.51a10.21,10.21,0,0,1-7.9,4.15c-2.5,0-5.48-2-5.69,0s-.18,3.81-.45,5.64-5.77,3.57-10.8,4.14c-.78.09-2.7.32-3.51.33h0c-2.8.25-5.6,2.46-2.69,4.08s10.53,0,14.52,0C286.43,365.52,294.82,365.42,294.82,360.66Z" style="fill:#ffa8a7"></path><path d="M286.71,309.25c-1.08,9.55-2.12,36.66-2.36,44.23,0,0,6.34,2.58,12.31.76,0,0,8.36-27.2,7.74-37.41C304.11,312,286.71,309.25,286.71,309.25Z" style="fill:#455a64"></path></g><path d="M386.24,386.51l-6.88-57.41-5.62-.28,9.67,57.68h0a.8.8,0,0,0,.37.51,2.26,2.26,0,0,0,2,.1.71.71,0,0,0,.44-.6Z" style="fill:#263238"></path><path d="M309.2,323.9h-5.63l-8.19,54.21h0a.67.67,0,0,0,.41.62,2.2,2.2,0,0,0,2,0,.74.74,0,0,0,.4-.49h0Z" style="fill:#37474f"></path><path d="M303.57,323.9,301.28,339a23,23,0,0,0,4.32,2.64l3.6-17.77Z" style="fill:#263238"></path><path d="M348.63,405.76l-5.29-58.38-5.62-.29,8.08,58.66h0a.7.7,0,0,0,.37.5,2.18,2.18,0,0,0,2,.1.66.66,0,0,0,.45-.59Z" style="fill:#37474f"></path><path d="M344.11,355.91l-.77-8.53-5.62-.29,1.27,9.23A10,10,0,0,0,344.11,355.91Z" style="fill:#263238"></path><path d="M339.92,306h-5.63l-8.19,54.21h0a.66.66,0,0,0,.41.62,2.2,2.2,0,0,0,2,0,.7.7,0,0,0,.4-.48h0Z" style="fill:#263238"></path><path d="M300.1,322.78c-.79-4.44,2.83-7.91,9.64-12.5a161.65,161.65,0,0,1,19.71-11.08c5.7-2.61,11.52-2.37,18.81,1.38,10.13,5.2,40.6,23.68,40.6,23.68S343.3,350,334.53,348.82s-30.67-15.4-32.41-20.41S300.1,322.78,300.1,322.78Z" style="fill:#6C63FF"></path><g style="opacity:0.6000000000000001"><path d="M300.1,322.78c-.79-4.44,2.83-7.91,9.64-12.5a161.65,161.65,0,0,1,19.71-11.08c5.7-2.61,11.52-2.37,18.81,1.38,10.13,5.2,40.6,23.68,40.6,23.68S343.3,350,334.53,348.82s-30.67-15.4-32.41-20.41S300.1,322.78,300.1,322.78Z" style="fill:#fff"></path></g><path d="M338.94,343.41c-6.55,5.92-13.38.83-24.2-6.19-12.24-7.94-14.64-14.44-14.64-14.44s0,4.87.92,7.15,2.89,4.87,11.72,11S328,350,333.89,351.15l4.68-.65" style="fill:#6C63FF"></path><path d="M314.74,337.22c-12.24-7.94-14.64-14.44-14.64-14.44s0,4.87.92,7.15,2.89,4.87,11.72,11S328,350,333.89,351.15l4.68-.65.37-7.09C332.39,349.33,325.56,344.24,314.74,337.22Z" style="fill:#fff;opacity:0.25"></path><path d="M374.93,304.13s-38.25-11.54-44.9-13.36-19.4-4.89-23.13-3.22-5.62,3.61-6,9c-.07,1,0,5.94,0,5.94s18.49,5.72,33.63,5.72S374.93,304.13,374.93,304.13Z" style="fill:#37474f"></path><path d="M377.65,300.33c2.4,8.18,3.67,18.16-2.06,24.07-4.17,4.3-14.81,14.22-37.67,13.25-10.35-.44-39.33-20.66-39.33-20.66s-10.93-1.73-11-5.57c0-.94-1.07-1.17-.88-2.17,1.58-8.4,6.84-12.49,14.2-11.9,12.23,1,39.6,8.68,39.6,8.68Z" style="fill:#455a64"></path><polygon points="333.37 234.55 337.19 251.14 351.24 248.21 346.39 229.86 333.37 234.55" style="fill:#ffa8a7"></polygon><path d="M374.29,288.62c-1.8-3.27-4.58-8.2-6-14-1.83-11.79,2.3-17.11-2.18-28.51-2.05-5.21-8.53-9.05-14-7.72-1.42.34-2,.36-3.33.71,1,2.75-9.08,5.67-13.68,3.13-2,.6-11.34,4.77-11.34,4.77-2,4-3.14,8.48-4.09,17-.39,3.45,1.05,7.24,2.94,10.56a46.07,46.07,0,0,1,5.81,29l-.12.88s8.51,9.5,29.37,5.7c18.56-3.37,19.13-15.8,19.13-15.8A59.14,59.14,0,0,0,374.29,288.62Z" style="fill:#f0f0f0"></path><path d="M316.41,304.91c-3.63-1.1-6.08-5-6.69-7.51s.26-6.88,1.47-9.34S316.41,304.91,316.41,304.91Z" style="fill:#f28f8f"></path><path d="M311.15,288.47c.59-6.31,1.58-16.07,3-26.39,1.34-10,3.19-12.33,9.69-15.1,9.44,5.82,6.22,24.53,6.22,24.53s-3.45,19.95-5.6,26.35c-1.4,4.16-4.38,8.92-9,6.68S310.57,294.79,311.15,288.47Z" style="fill:#ffa8a7"></path><path d="M322.46,218.33s-3.37,5.28-2.94,5.75,2.93.87,2.93.87Z" style="fill:#f28f8f"></path><path d="M331.1,203c-2.92,1.72-8,4.87-8.7,16-.75,11.44.94,15.34,2.57,16.74,1.1,1,8.6,1.16,10.68.49,3.52-1.15,10.55-6.05,13.81-12.11,3.83-7.13,4.2-16.37-.85-19.72C341.5,199.72,333.57,201.56,331.1,203Z" style="fill:#ffa8a7"></path><path d="M341,236.38a10.28,10.28,0,0,1-4.38-2.26c-1.45-1.16-3.62-6.19-3.48-7.59.06,0,2,1.43,4.61-1.08s2.7-7.22-.87-8.2c-2.53-.72-4.3,1.26-5.29,3.28-.16.32-.36.69-.71.77-.55.12-.95-.49-1.17-1a4.73,4.73,0,0,0-.86-1.74,4.66,4.66,0,0,1-1.46-2.93,11.37,11.37,0,0,1,.24-2.85,9.69,9.69,0,0,0-2.6,3.71,6,6,0,0,1,.07-5.37,10.52,10.52,0,0,0-2.46,4.82,5.44,5.44,0,0,1-1.71-3.41,11.68,11.68,0,0,1,3.23-9.5,20.34,20.34,0,0,1,8.84-5.23,27.19,27.19,0,0,1,9.91-1.14c7.11.43,11,3.89,12.06,5.18a10.45,10.45,0,0,1,1.79,4.83c4.27,2.17,4.37,7.52,3.41,11.6-.84,3.57-3.23,6.8-5.56,9.58-1.21,1.44-2.46,2.85-3.62,4.35a19.06,19.06,0,0,0-1.57,2.23c-.69,1.24-1.18,2.29-1.18,2.29A21.72,21.72,0,0,1,341,236.38Z" style="fill:#37474f"></path><path d="M333.85,236.64l-.42-1.72a14.42,14.42,0,0,1-4.53.74c-3.22.18-4.36-.37-4.41-.4a4.62,4.62,0,0,0,.48.5C325.89,236.56,330.9,237,333.85,236.64Z" style="fill:#f28f8f"></path><path d="M367.32,209c1.95,2.66,2.57,6.05,2.91,9.33.83,7.86.42,15.85,1.83,23.62a5.77,5.77,0,0,0,.82,2.38,6.31,6.31,0,0,0,3.12,1.92,12.94,12.94,0,0,1-9.17,2.08,9.63,9.63,0,0,1-4.92-2.16,10.15,10.15,0,0,1-3-5.34,31.22,31.22,0,0,1-.62-6.18c-.2-6.11-.43-12.26-1.82-18.22a8.77,8.77,0,0,0-1.5-3.6c-1.21-1.49-2.33-3.3-1.84-5.39.39-1.71,2.72-2.58,4.3-2.73A11.07,11.07,0,0,1,367.32,209Z" style="fill:#37474f"></path><path d="M361.91,246.15a9.25,9.25,0,0,0,4,2c-3.52-1.62-4.92-5.65-5.27-11.58-.4-6.66-.69-18.91-3.51-23-2-2.87-3.19-2.24-4.08-5.12a5,5,0,0,0,0,.55,7.83,7.83,0,0,0,1.93,3.85,8.77,8.77,0,0,1,1.5,3.6A69.3,69.3,0,0,1,358,227.89c.15,2.33.23,4.66.31,7,0,1,.06,1.91.14,2.86a19.78,19.78,0,0,0,.46,3.07A10.15,10.15,0,0,0,361.91,246.15Z" style="opacity:0.15"></path><path d="M338.57,350.5c3.73-.18,6.64-2.92,15.5-6.61,16.35-6.81,28.61-12.26,33.28-20.83s8-47,6.81-57.67a14,14,0,0,0-.8-3.55l1.15-.17-3-2.53h0c-3-2.49-8-.27-11.77,1.77-10.7,5.83-19.08,11.49-25.69,31.93-5,15.37-8.26,43.08-15.13,50.57" style="fill:#6C63FF"></path><path d="M393.36,261.84l1.15-.17-3-2.53h0c-3-2.49-8-.27-11.77,1.77-10.7,5.83-19.08,11.49-25.69,31.93-5,15.37-8.26,43.08-15.13,50.57l-.37,7.09c3.73-.18,6.64-2.92,15.5-6.61,16.35-6.81,28.61-12.26,33.28-20.83s8-47,6.81-57.67A14,14,0,0,0,393.36,261.84Z" style="fill:#fff;opacity:0.25"></path><path d="M382.59,262.29c-10.7,5.83-20.76,12.19-26.43,33.14-5.61,20.74-9.23,52.22-22.27,55.72,0,0,5.9,2.34,24-5.3,5.75-2.43,12.72-6.87,17.31-9.44,9-5,14.42-9.17,15.28-10.71,4.75-8.53,8-47,6.82-57.68S388,259.37,382.59,262.29Z" style="fill:#6C63FF"></path><g style="opacity:0.4"><path d="M382.59,262.29c-10.7,5.83-20.76,12.19-26.43,33.14-5.61,20.74-9.23,52.22-22.27,55.72,0,0,5.9,2.34,24-5.3,5.75-2.43,12.72-6.87,17.31-9.44,9-5,14.42-9.17,15.28-10.71,4.75-8.53,8-47,6.82-57.68S388,259.37,382.59,262.29Z" style="fill:#fff"></path></g></g></g><g id="freepik--character-2--inject-110"><g id="freepik--character--inject-110"><g id="freepik--legs--inject-110"><path d="M219.46,393.33s0-3.39,2.4-4.53a1.33,1.33,0,0,1,1.39.05s-2.27.56-2.63,4.58c0,0-.09.27-.6.23C219.85,393.64,219.47,393.61,219.46,393.33Z" style="fill:#fafafa"></path><path d="M217.38,390.39c-3.71,0-5.76-.44-10.19-.36-3.34.06-4.56,4.14-.52,7.48a23,23,0,0,0,5.77,3.15c5.26,1.61,9.05.69,11.82,1,3.61.42,4.55,1.44,7.5,1.66,3.87.29,5.27-.32,6.3-1.54,1.21-2.79.44-3.81.86-7.09.23-1.81.1-2.58-.1-2.56C237.62,392,219.19,390.37,217.38,390.39Z" style="fill:#455a64"></path><path d="M238.73,392.45c.58-1.8,2.32-9.23,2.32-9.23s-2.42,1.72-6.93,1.11c-2.3-.31-3.84-6.28-3.84-6.28L229,388c-.89,2.27-5.28,2.39-9.56,2.44-.72,0-1.47,0-2.21-.05h0c-2.29.16-4.41,1.81-1.8,3.46s6.62,1.9,10.31,2.1C230.09,396.18,237.4,396.65,238.73,392.45Z" style="fill:#f28f8f"></path><path d="M234,337.66c-1.32,10-4.58,45.74-4.58,45.74s5.77,4.54,11.22,1.84c4.43-16.53,13.13-34.76,11.89-46.41Z" style="fill:#263238"></path><path d="M197.58,402c-3.71,0-5.76-.44-10.19-.36-3.35.06-4.57,4.14-.53,7.48a23,23,0,0,0,5.78,3.15c5.25,1.61,9.05.69,11.82,1,3.6.43,4.55,1.44,7.5,1.66,3.87.29,5.27-.32,6.29-1.54,1.21-2.79.45-3.81.86-7.09.23-1.81.11-2.58-.09-2.56C217.82,403.67,199.38,402,197.58,402Z" style="fill:#455a64"></path><path d="M218.93,404.08c.57-1.8,2.31-9.23,2.31-9.23s-2.42,1.72-6.93,1.11c-2.29-.31-3.84-6.28-3.84-6.28l-1.3,9.94c-.9,2.28-5.28,2.39-9.57,2.44-.72,0-1.46,0-2.21-.05h0c-2.3.16-4.42,1.81-1.8,3.46s6.62,1.9,10.3,2.1C210.29,407.81,217.59,408.28,218.93,404.08Z" style="fill:#f28f8f"></path><path d="M215.28,348.9c-1.64,7.56-4.21,35.88-5.91,46.88a18.13,18.13,0,0,0,11.34,2c2.6-8.34,14.94-38,12.1-47.28-1.79-5.88-8.14-3.48-8.14-3.48Z" style="fill:#37474f"></path></g><path d="M314.23,428.09l-6.9-57.57-5.64-.29,9.7,57.85h0a.73.73,0,0,0,.37.51,2.26,2.26,0,0,0,2,.1.69.69,0,0,0,.44-.6Z" style="fill:#263238"></path><path d="M237,365.3h-5.65l-8.21,54.36h0a.71.71,0,0,0,.41.62,2.25,2.25,0,0,0,2,0,.78.78,0,0,0,.4-.48h0Z" style="fill:#37474f"></path><path d="M231.32,365.3,229,380.47a22.8,22.8,0,0,0,4.33,2.65L237,365.3Z" style="fill:#263238"></path><path d="M276.51,447.39l-5.31-58.54-5.63-.29,8.1,58.82h0a.73.73,0,0,0,.37.51,2.23,2.23,0,0,0,2,.1.67.67,0,0,0,.44-.6Z" style="fill:#37474f"></path><path d="M272,397.4l-.78-8.55-5.63-.29,1.27,9.26A10.24,10.24,0,0,0,272,397.4Z" style="fill:#263238"></path><path d="M267.78,347.38h-5.65l-8.21,54.37h0a.71.71,0,0,0,.41.62,2.25,2.25,0,0,0,2,0,.8.8,0,0,0,.4-.49h0Z" style="fill:#263238"></path><path d="M227.85,364.17c-.8-4.45,2.83-7.92,9.66-12.53a161.19,161.19,0,0,1,19.77-11.11c5.71-2.62,11.55-2.38,18.86,1.38,10.15,5.22,40.71,23.75,40.71,23.75s-45.69,25.79-54.48,24.64-30.76-15.45-32.5-20.48S227.85,364.17,227.85,364.17Z" style="fill:#6C63FF"></path><g style="opacity:0.6000000000000001"><path d="M227.85,364.17c-.8-4.45,2.83-7.92,9.66-12.53a161.19,161.19,0,0,1,19.77-11.11c5.71-2.62,11.55-2.38,18.86,1.38,10.15,5.22,40.71,23.75,40.71,23.75s-45.69,25.79-54.48,24.64-30.76-15.45-32.5-20.48S227.85,364.17,227.85,364.17Z" style="fill:#fff"></path></g><path d="M266.79,384.87c-6.56,5.94-13.42.83-24.26-6.21-12.28-8-14.68-14.49-14.68-14.49s0,4.89.91,7.18,2.9,4.88,11.75,11,15.26,9.15,21.22,10.29l4.69-.65" style="fill:#6C63FF"></path><path d="M242.53,378.66c-12.28-8-14.68-14.49-14.68-14.49s0,4.89.91,7.18,2.9,4.88,11.75,11,15.26,9.15,21.22,10.29l4.69-.65.37-7.11C260.23,390.81,253.37,385.7,242.53,378.66Z" style="fill:#fff;opacity:0.25"></path><g id="freepik--top--inject-110"><path d="M275.55,210.91c2.53.43,7.48,2.43,8.11,5.4s-2.36,6.24-5.11,7.19S275.55,210.91,275.55,210.91Z" style="fill:#f0997a"></path><path d="M293.93,251.09c-2.59-9.08-6.33-21.47-6.91-23.28a27.34,27.34,0,0,1-.53-8,5.48,5.48,0,0,0-1.58-4.81l-2.4,2-.34.57.54,5.8c-.06,0-7.78-4.53-8.78-2.27s-1.57,3.84.13,6.16c1.13,1.53,3.82,4.19,4.09,5.69,1.36,7.39,3.22,20.3,3.22,20.3s-4.85,19.86-6,22a19.13,19.13,0,0,1-5.35,6.48c-6.43,4.79,18.21,29.93,18.22,23.37,0-18.09,3.57-35.34,4.48-39.93C294.28,257.31,295.07,255.1,293.93,251.09Z" style="fill:#ffbda7"></path><path d="M270.71,280.22a11.62,11.62,0,0,0,4-4.42c.84-1.67,6-19.24,6-19.24a10.27,10.27,0,0,1,7.64-.35,9.92,9.92,0,0,1,5.7,4.65s-1.88,8.4-3,15.91-2.64,22.73-2.64,30.32c0,0-5.14,2.45-11-4S270.71,280.22,270.71,280.22Z" style="fill:#6C63FF"></path><path d="M270.71,280.22a11.62,11.62,0,0,0,4-4.42c.84-1.67,6-19.24,6-19.24a10.27,10.27,0,0,1,7.64-.35,9.92,9.92,0,0,1,5.7,4.65s-1.88,8.4-3,15.91-2.64,22.73-2.64,30.32c0,0-5.14,2.45-11-4S270.71,280.22,270.71,280.22Z" style="opacity:0.2"></path><path d="M279.26,227.18a1.58,1.58,0,0,1,.93-1.74h0a13.66,13.66,0,0,0,1.6-.86,1.88,1.88,0,0,0,.59-.53,1.35,1.35,0,0,0,.16-.69c-1.12-.62-7.7-4.26-8.62-2.18-1.05,2.37-1.65,3.92.37,6.45l.64.08a5.88,5.88,0,0,0,1.18,0,3.76,3.76,0,0,0,2.18-.74,2.31,2.31,0,0,0,.2-.24,3.53,3.53,0,0,0,.27.87,4.6,4.6,0,0,0,1.05,1.41A15.86,15.86,0,0,1,279.26,227.18Z" style="fill:#f0997a"></path><path d="M270.86,202l1.86-1,12.58,6.06-1.86,1a5.24,5.24,0,0,1-1.19.33,4.58,4.58,0,0,0-.64,3.15l1.11,11.93a.16.16,0,0,1-.1.18l-1.86,1c-.66.34-4.51-1.59-4.57-2.43l-.67-11.71A10.65,10.65,0,0,0,272.6,204,24.22,24.22,0,0,1,270.86,202Z" style="fill:#263238"></path><path d="M265.11,185.19c-.27-4.72,1.22-8.07,3.74-9.37l1.9-1a6.75,6.75,0,0,1,6.09.31c5.9,2.84,11.29,11.62,12,19.61l.25,2.7c.44,4.76-1,8.12-3.47,9.42l-1.9,1c-1.7.87-3.89.82-6.37-.38l-.09,0c-6.2-3-11.58-11.76-12-19.61Z" style="fill:#6C63FF"></path><path d="M265.11,185.19c-.27-4.72,1.22-8.07,3.74-9.37l1.9-1a6.75,6.75,0,0,1,6.09.31c5.9,2.84,11.29,11.62,12,19.61l.25,2.7c.44,4.76-1,8.12-3.47,9.42l-1.9,1c-1.7.87-3.89.82-6.37-.38l-.09,0c-6.2-3-11.58-11.76-12-19.61Z" style="opacity:0.4"></path><path d="M277.29,207.45l.09,0c6.19,3,10.61-1.07,9.87-9.06l-.25-2.71c-.74-8-6.12-16.76-12-19.6s-10.32,1.22-9.87,9.07l.15,2.65C265.71,195.69,271.1,204.47,277.29,207.45Z" style="fill:#6C63FF"></path><path d="M278.55,186.18a.61.61,0,0,1,.28.29,1,1,0,0,1,.15.44l.19,2.2a.62.62,0,0,1-.06.37l-.16.22-1.48,1.73a8.26,8.26,0,0,1,1.91,2.24,6.83,6.83,0,0,1,.93,2.92c.14,1.56-.13,2.56-.79,3s-1.66.36-3-.26a7.54,7.54,0,0,1-1.84-1.19,8.85,8.85,0,0,1-1.4-1.55,8.17,8.17,0,0,1-.94-1.7,5.74,5.74,0,0,1-.44-1.64A.39.39,0,0,1,272,193a.17.17,0,0,1,.21,0l1.78.83a1,1,0,0,1,.47.41c.12.17.24.37.39.58a4.78,4.78,0,0,0,.53.66,3.07,3.07,0,0,0,.88.6,1.64,1.64,0,0,0,1.1.19c.28-.08.39-.37.35-.85a2.11,2.11,0,0,0-.54-1.26,3.41,3.41,0,0,0-1.15-.86l-1.17-.54a.73.73,0,0,1-.29-.29,1.12,1.12,0,0,1-.14-.45l-.16-1.78a.54.54,0,0,1,.06-.37,1.46,1.46,0,0,1,.17-.24l1.3-1.52-3.69-1.71a.69.69,0,0,1-.28-.3.93.93,0,0,1-.15-.44l-.19-2.2a.41.41,0,0,1,.08-.34.19.19,0,0,1,.25,0Z" style="fill:#fff"></path><path d="M270.86,202a24.22,24.22,0,0,0,1.74,2,10.65,10.65,0,0,1,2.92,6.47l.67,11.71c.07.93,4.73,3.17,4.66,2.25l-1.11-11.93c-.21-2.25.61-3.88,2.13-4a5.75,5.75,0,0,0,1.57-.4Z" style="fill:#455a64"></path><path d="M275.55,210.91c0,1,.11,2,.17,3,0,0,1.49,3.41,1.8,4s3.34.69,4.87,2c.41.34,1,1.37.41,1.8a1.76,1.76,0,0,1-.93.24,1.49,1.49,0,0,1-.08.52,1.88,1.88,0,0,1-1,.95,2.14,2.14,0,0,1-.52.17,3.19,3.19,0,0,1-.1.72c-.09.3-.26.42-.67.7a5.44,5.44,0,0,1-.75.34c.12.41-.09.73-.62,1a4.88,4.88,0,0,1-1.37.4,5,5,0,0,1-4.06-.88,3.5,3.5,0,0,1-.89-2.12c-.11-.56-.1-1.14-.18-1.71,0-.19-.41-1.38-.29-1.49a3.09,3.09,0,0,1-.07-.91c.06-.52.37-1,.41-1.51a7.7,7.7,0,0,0-.18-1.34,2.42,2.42,0,0,1,.38-1.53,6.08,6.08,0,0,0,.55-.78c.39-.78,0-1.8.45-2.56a1.83,1.83,0,0,1,1.07-.77,4.18,4.18,0,0,1,.93-.14A3.87,3.87,0,0,1,275.55,210.91Z" style="fill:#ffbda7"></path><path d="M281.2,211.59a33.36,33.36,0,0,0-4.19.7c-.78.13-.94,1.19.67,2.05a4.6,4.6,0,0,0,2.94.53l1.55,2.77,2.74-2.6C283.89,213.81,282.24,211.73,281.2,211.59Z" style="fill:#ffbda7"></path><path d="M281.87,221.91a13.84,13.84,0,0,1-2.73,0,14.41,14.41,0,0,1-2.72-.49,2.47,2.47,0,0,1-1.17-.89,4.85,4.85,0,0,1-.62-1.25c-.34-.85-.67-1.7-.94-2.57.46.79.86,1.6,1.27,2.41a2.92,2.92,0,0,0,1.62,1.86,19.12,19.12,0,0,0,2.61.57C280.08,221.67,281,221.82,281.87,221.91Z" style="fill:#f0997a"></path><path d="M280.28,223.55a11.18,11.18,0,0,1-2.45.11c-.82,0-1.63-.09-2.44-.13a2.1,2.1,0,0,1-1.25-.43,2.4,2.4,0,0,1-.76-1.06c-.25-.79-.49-1.57-.68-2.37.37.73.69,1.48,1,2.22a1.83,1.83,0,0,0,1.72,1.17l2.43.24C278.66,223.39,279.47,223.52,280.28,223.55Z" style="fill:#f0997a"></path><path d="M294.05,340.63s-18.74-5.4-31.51-8.25c-10.78-2.4-15.94-3.16-19.08-2.18s-4.93,3.29-7,7.4c-1.79,3.47-3.42,7.2-3.42,7.2s22.2,10.93,34.31,12.35S294.05,340.63,294.05,340.63Z" style="fill:#263238"></path><path d="M294.68,340.63c3.95,11.41,3.31,22.31-3.59,28.73-4,3.69-22.51,14.09-34.63,10.08-11.93-3.95-34.2-24.8-36.68-26.65s-4.74-3.11-4.5-3.89c3.33-11.06,8.2-11.93,17.23-9.94,11.05,2.43,32.86,14.84,32.86,14.84Z" style="fill:#37474f"></path><polygon points="250.4 279.07 251.68 293.41 267.76 290.92 265.7 275.31 250.4 279.07" style="fill:#ffbda7"></polygon><path d="M242.7,265.18a4.08,4.08,0,1,1,4.65-3.41A4.09,4.09,0,0,1,242.7,265.18Zm1.13-7.32a3.33,3.33,0,1,0,2.78,3.8A3.33,3.33,0,0,0,243.83,257.86Z" style="fill:#263238"></path><path d="M242.06,262.46s-3.45,4.2-3.1,4.72a7.38,7.38,0,0,0,2.22,1.2Z" style="fill:#f0997a"></path><path d="M274.63,252.24c.92-3.82-2.51-6-4-6.77A19.42,19.42,0,0,0,263,243.4c-2.55-.17-5,.1-7.49-.61a38.08,38.08,0,0,0-5.68-1.51,6.93,6.93,0,0,0-5.53,1.39,5.94,5.94,0,0,0-1.79,3.8,10.16,10.16,0,0,0,.6,4.22c-2,1.16-2.74,3.9-2.13,6.16.82,3.1,3.53,5.2,5.67,7.39a72.18,72.18,0,0,1,4.78,5.41,33.13,33.13,0,0,1,2.12,2.76c0,.07.07.14.11.2a4.09,4.09,0,0,1-1.91-.34s-.21,5.85,4.37,8.5c0,0,5.57,2.22,10.36.12,1.22-1.93,3.94-4.17,6.7-7.89C278.65,265.58,278.22,257.29,274.63,252.24Z" style="fill:#263238"></path><path d="M256.21,271.35a3.6,3.6,0,0,1-2.58,1.26,4,4,0,0,1-1.92-.33s.41,4.65,3.23,7.69a10.87,10.87,0,0,1-2.93.89c-2.83.57-8.07-.29-9-1.35-1.38-1.58-3.49-5.6-1.1-16.4a22.3,22.3,0,0,1,4.13-9.4,4.7,4.7,0,0,0,2.37,3.84,4.58,4.58,0,0,0-1.11,3.72,9.06,9.06,0,0,0,2.32,4.14.45.45,0,0,0,.22.19,1.63,1.63,0,0,0,1-.05c1.1-1.33,2.6-2.86,5.13-1.74C258.88,265.09,258.37,268.77,256.21,271.35Z" style="fill:#ffbda7"></path><rect x="245.23" y="255.99" width="0.65" height="12.23" transform="matrix(0.28, -0.96, 0.96, 0.28, -75.32, 423.44)" style="fill:#263238"></rect><path d="M243.27,279.73c1.17.8,4.65,1.42,7.3,1.29l-.22-2a11.55,11.55,0,0,1-3.26.83A12.39,12.39,0,0,1,243.27,279.73Z" style="fill:#f0997a"></path><path d="M249,269.24a2.53,2.53,0,0,1-1.24-3.4,2.6,2.6,0,0,1,3.45-1.2Z" style="fill:#263238"></path><path d="M266.78,283.8l-.26-2.25c9.25-4.4,14.86,1.57,19.85,14.09,2.87,7.2,1.65,16.63,2.56,27.35.66,7.73,4.18,8.84,7.64,22.65,0,0-5,7.89-16.58,10.72s-27.45.33-30.25-8.6c0,0-.1-7.52-.48-14.2-.32-5.72-3.5-14.53-6.29-21-2.63-6.15-6.12-17.57,1.05-21.82,2.1-1.25,4.26-2.08,7.12-3.45C257.66,289.42,267.63,286.39,266.78,283.8Z" style="fill:#6C63FF"></path><path d="M233.45,348.59a8.75,8.75,0,0,1-6.37-8.26c-.17-2.63.24-5.93,1.77-10.73C229.69,327,233.45,348.59,233.45,348.59Z" style="fill:#f0997a"></path><path d="M228.79,330c1-6.26,3.21-14.11,5.29-24.31,2-9.92,3.68-11.79,8.86-13.94,12.54,7.47,6.37,24.43,6.37,24.43s-4.8,19.67-7.39,25.91c-1.67,4-5,8.6-9.39,6S227.77,336.26,228.79,330Z" style="fill:#ffbda7"></path><path d="M244,290.71c-5.19,2.42-7.77,3.88-9.35,10.06S229.12,328,229.12,328s1.62,5.74,6.9,7.65,8.44.71,8.44.71,5.15-18.38,6.11-23.15S253.93,294.4,244,290.71Z" style="fill:#6C63FF"></path><path d="M244,290.71c-5.19,2.42-7.77,3.88-9.35,10.06S229.12,328,229.12,328s1.62,5.74,6.9,7.65,8.44.71,8.44.71,5.15-18.38,6.11-23.15S253.93,294.4,244,290.71Z" style="opacity:0.2"></path><path d="M286.15,253.67a8.2,8.2,0,0,0-3.52-2.61,5,5,0,1,0-9.32,2.41,8.24,8.24,0,0,0-.56,9.76,5,5,0,1,0,9,3.47,8.25,8.25,0,0,0,4.42-13Z" style="fill:#263238"></path><path d="M291.47,190.89a29.71,29.71,0,0,0-4.16-11.3,22.24,22.24,0,0,0-4-4.61,20.71,20.71,0,0,0-5.09-3.26,31.58,31.58,0,0,1,8.19,8.44A56.08,56.08,0,0,1,291.47,190.89Z" style="fill:#e0e0e0"></path><path d="M292.13,181.93a10.79,10.79,0,0,0-1.08-3.07,18,18,0,0,0-1.76-2.74,15.62,15.62,0,0,0-2.25-2.35,7.31,7.31,0,0,0-2.84-1.61,17.53,17.53,0,0,1,2.27,2.2c.69.78,1.35,1.58,2,2.41A61.23,61.23,0,0,1,292.13,181.93Z" style="fill:#e0e0e0"></path></g><path d="M266.42,392c3.74-.19,6.66-2.93,15.54-6.63,16.4-6.83,28.69-12.3,33.38-20.89s8-47.1,6.83-57.84a14,14,0,0,0-.8-3.55l1.15-.17-3-2.55h0c-3.06-2.5-8-.27-11.8,1.78C297,308,288.6,313.65,282,334.15c-5,15.41-8.28,43.2-15.17,50.72" style="fill:#6C63FF"></path><path d="M321.37,303.07l1.15-.17-3-2.55h0c-3.06-2.5-8-.27-11.8,1.78C297,308,288.6,313.65,282,334.15c-5,15.41-8.28,43.2-15.17,50.72l-.37,7.11c3.74-.19,6.66-2.93,15.54-6.63,16.4-6.83,28.69-12.3,33.38-20.89s8-47.1,6.83-57.84A14,14,0,0,0,321.37,303.07Z" style="fill:#fff;opacity:0.25"></path><path d="M310.57,303.52c-10.73,5.84-20.82,12.22-26.51,33.23-5.62,20.8-9.25,52.36-22.33,55.88,0,0,5.91,2.35,24-5.32,5.77-2.44,12.76-6.88,17.36-9.46,9-5.06,14.47-9.2,15.33-10.75,4.76-8.55,8-47.1,6.83-57.84S316,300.59,310.57,303.52Z" style="fill:#6C63FF"></path><g style="opacity:0.4"><path d="M310.57,303.52c-10.73,5.84-20.82,12.22-26.51,33.23-5.62,20.8-9.25,52.36-22.33,55.88,0,0,5.91,2.35,24-5.32,5.77-2.44,12.76-6.88,17.36-9.46,9-5.06,14.47-9.2,15.33-10.75,4.76-8.55,8-47.1,6.83-57.84S316,300.59,310.57,303.52Z" style="fill:#fff"></path></g></g></g><g id="freepik--character-1--inject-110"><g id="freepik--Chartacter--inject-110"><g id="freepik--Bottom--inject-110"><polygon points="88 347.15 92.66 345.54 91.23 342.37 88.32 344.94 88 347.15"></polygon><path d="M83.44,338.7s-.26,3-.33,3.95,3.9,4,4.89,4.5l.32-2.21a17.1,17.1,0,0,1,2.22,3.65c.74,1.37,1.67,4,3.76,5.75,3.1,2.66,8,4.1,13,4.42s8-.85,9.41-1.91a3.34,3.34,0,0,0,1.63-3.61C118.06,352,83.44,338.7,83.44,338.7Z" style="fill:#263238"></path><path d="M97.19,328.79l.11-1.74c.93,0,1,2.53,2.27,4.78a45.11,45.11,0,0,0,6.86,9.25c5,4.8,9.48,7.84,11.71,10,3,2.88-2.5,7.2-10.72,6.53-4.08-.34-11.28-2.58-13.25-5s-3.13-6.27-4.72-8.06-5-3.66-6-5.81c-.53-1.18-.16-3.91.23-6.22.36-2.12.51-5.38,1.7-5.08l.06,1.1c.47.94,1.56,2.5,4.84,3.15C91.91,332,96.81,332.24,97.19,328.79Z" style="fill:#37474f"></path><path d="M92.91,331.8c1.58-.09,3.29-.57,4-2l0,0a4,4,0,0,0,1,3.38c1.42,1.76,10.4,14.14,10.4,14.14s-8.39-10.24-10-12.17c-2.38-2.85-3.15-3.2-5.39-3.33Z" style="opacity:0.15"></path><path d="M94.89,335.07a.51.51,0,0,1-.57.43.49.49,0,0,1-.43-.56.5.5,0,0,1,1,.13Z" style="opacity:0.15"></path><path d="M97.24,337.82a.49.49,0,0,1-.56.43.5.5,0,1,1,.56-.43Z" style="opacity:0.15"></path><path d="M99.6,340.57a.5.5,0,1,1-.43-.57A.5.5,0,0,1,99.6,340.57Z" style="opacity:0.15"></path><path d="M102,343.32a.51.51,0,0,1-.57.43.52.52,0,0,1-.43-.57.51.51,0,0,1,.57-.43A.5.5,0,0,1,102,343.32Z" style="opacity:0.15"></path><path d="M104.32,346.06a.5.5,0,1,1-.43-.56A.49.49,0,0,1,104.32,346.06Z" style="opacity:0.15"></path><path d="M94.37,335.21a.21.21,0,0,1-.13-.07.19.19,0,0,1,0-.28,8.27,8.27,0,0,1,5.75-2.11h0a.2.2,0,0,1,.18.22.21.21,0,0,1-.22.19,8.07,8.07,0,0,0-5.44,2A.22.22,0,0,1,94.37,335.21Z" style="fill:#263238"></path><path d="M96.73,337.94a.16.16,0,0,1-.13-.06.21.21,0,0,1,0-.29,8.33,8.33,0,0,1,5.75-2.1h0a.2.2,0,0,1,0,.4,8.05,8.05,0,0,0-5.44,2A.17.17,0,0,1,96.73,337.94Z" style="fill:#263238"></path><path d="M99.08,340.7a.2.2,0,0,1-.11-.35,8.22,8.22,0,0,1,5.74-2.1h0a.2.2,0,0,1,0,.4,8.05,8.05,0,0,0-5.44,2A.18.18,0,0,1,99.08,340.7Z" style="fill:#263238"></path><path d="M101.44,343.45a.24.24,0,0,1-.13-.07.2.2,0,0,1,0-.28,8.32,8.32,0,0,1,5.75-2.11h0a.21.21,0,0,1,0,.41,8,8,0,0,0-5.44,2A.22.22,0,0,1,101.44,343.45Z" style="fill:#263238"></path><path d="M103.8,346.2a.24.24,0,0,1-.13-.07.2.2,0,0,1,0-.28,8.32,8.32,0,0,1,5.75-2.11h0a.2.2,0,0,1,.18.22.21.21,0,0,1-.22.19,8,8,0,0,0-5.44,2A.25.25,0,0,1,103.8,346.2Z" style="fill:#263238"></path><path d="M50.51,359.16c-.82,3.91-1.82,6.43-3.57,8.54s-4.78,2.25-7,1.72a9.64,9.64,0,0,1-7.23-7.6c-.64-2.73-.05-5.82,1.11-9.39Z" style="fill:#263238"></path><path d="M42.68,328.69c-1.11-.08-2.23,5.16-3.67,10.37-1.53,5.59-3.75,8.51-4.89,12.25-1.58,5.2-1.57,7.65-.19,11.15s9,8,12.94,3.83c3.22-3.36,4-7.51,4.51-12.87.58-5.53.94-9.43,1.79-13.57.82-4,1.67-7.78.78-8.37-.16.58-.34,1.31-.51,1.87s-.56,2.58-1.18,2.5a8.6,8.6,0,0,1,.21-1.5,1.79,1.79,0,0,0-.1-1.33,2.09,2.09,0,0,0-1.15-.73,29.65,29.65,0,0,0-3.2-1c-.54-.13-1.09-.24-1.64-.32a19,19,0,0,0-2.9-.31.93.93,0,0,0-.68.45,1.71,1.71,0,0,0-.15.6,4.85,4.85,0,0,1-.3,1.07c-.07.15-.2.33-.36.27s-.15-.22-.13-.35c.1-.65.25-1.1.39-1.84.06-.35.19-.81.25-1.16S42.61,329,42.68,328.69Z" style="fill:#37474f"></path><path d="M38,353.24a.38.38,0,0,0,.28.47.39.39,0,1,0-.28-.47Z" style="opacity:0.15"></path><path d="M38.88,349.62a.39.39,0,0,0,.29.47.39.39,0,0,0,.19-.75A.39.39,0,0,0,38.88,349.62Z" style="opacity:0.15"></path><path d="M39.75,346.2a.41.41,0,0,0,.29.48.4.4,0,0,0,.47-.29.39.39,0,0,0-.28-.47A.4.4,0,0,0,39.75,346.2Z" style="opacity:0.15"></path><path d="M40.61,342.83a.4.4,0,0,0,.28.48.39.39,0,1,0,.2-.76A.4.4,0,0,0,40.61,342.83Z" style="opacity:0.15"></path><path d="M49.25,344.69a.38.38,0,0,0,.28.47.39.39,0,1,0-.28-.47Z" style="opacity:0.15"></path><path d="M48.39,348.08a.38.38,0,0,0,.28.47.39.39,0,0,0,.19-.75A.38.38,0,0,0,48.39,348.08Z" style="opacity:0.15"></path><path d="M47.52,351.5a.39.39,0,1,0,.75.19.39.39,0,0,0-.75-.19Z" style="opacity:0.15"></path><path d="M46.6,355.12a.39.39,0,1,0,.75.19.38.38,0,0,0-.28-.47A.38.38,0,0,0,46.6,355.12Z" style="opacity:0.15"></path><polygon points="43.09 356.37 49.91 331.16 48.49 330.92 43.09 356.37" style="opacity:0.15"></polygon><path d="M38.29,353.53h.06c2.63-.18,6.94.73,8.52,1.82a.19.19,0,0,0,.22-.32c-1.67-1.16-6-2.08-8.76-1.89a.2.2,0,0,0-.19.21A.2.2,0,0,0,38.29,353.53Z" style="fill:#263238"></path><path d="M39.22,349.91h.1c2.08-.62,6.67.59,8.47,1.83a.19.19,0,0,0,.22-.32c-1.88-1.3-6.61-2.55-8.81-1.88a.2.2,0,0,0-.13.24A.21.21,0,0,0,39.22,349.91Z" style="fill:#263238"></path><path d="M40.09,346.49h.1c2.08-.63,6.67.58,8.47,1.83a.19.19,0,0,0,.27-.05.2.2,0,0,0,0-.28c-1.87-1.3-6.61-2.54-8.8-1.88a.19.19,0,0,0,0,.38Z" style="fill:#263238"></path><path d="M40.94,343.12h.11c2.08-.63,6.67.59,8.47,1.83a.19.19,0,0,0,.27-.05.2.2,0,0,0,0-.28c-1.88-1.29-6.61-2.54-8.81-1.88a.2.2,0,0,0-.13.25A.18.18,0,0,0,40.94,343.12Z" style="fill:#263238"></path><path d="M51.82,205.76c-3.58,32.63-6.53,77.14-6.53,77.14-.31,2.47-2.2,6.68-3.77,18.9-1.67,12.89-3.44,37.07-3.44,37.07s8.9,5.14,16.3,2.92c0,0,8.28-34.21,12.5-49.34,4-14.31,10.4-41.47,10.4-41.47l3,27.16s-.79,9.31-.71,15.84c.09,7.6,4,39.25,4,39.25s9.66,6.09,17.45.5c0,0,2.71-45.29,3.2-54.41,1-17.89-.06-52.67,0-75.81Z" style="fill:#263238"></path><path d="M64,243.82q-1.38,11.73-3,23.43-.8,5.85-1.64,11.7l-.85,5.84L58,287.71c-.14,1-.37,1.94-.55,2.9q-2.3,11.59-4.77,23.14t-5.21,23q1.88-11.66,4.07-23.26t4.52-23.16c.19-1,.42-1.93.56-2.9l.45-2.91.92-5.83q.91-5.84,1.89-11.65Q61.83,255.43,64,243.82Z"></path><path d="M100.27,242.71c.6,7.34.81,14.71.9,22.07s.15,14.74-.35,22.08-.82,14.7-1.33,22-1,14.69-1.72,22q.17-11,.61-22.07c.27-7.35.63-14.7,1-22l.3-5.51.08-1.37,0-1.37,0-2.76.2-11,.16-11C100.29,250.07,100.28,246.39,100.27,242.71Z"></path><path d="M77.28,251,81,233.16s8.92-1,13.59-5c0,0-3.1,5.31-11.54,7.17L79.42,251.1l.82,27Z"></path></g><g id="freepik--top--inject-110"><path d="M159,135.8c1.33-1.77,1.17-3.51.59-3.72-.78-.29-3,.76-4.56,1.24-2.65.81-4.83.53-7.27,1.85-1.91,1-.32,2.19-3.09,4.82-5.8,5.5-17.82,15.41-19.56,16.85-4.21-2.11-8.17-4.25-15.75-8.61-4.47-2.56-6.56-3.93-10.18-5.29a18.17,18.17,0,0,0-8-1.46l4,18.42c14.43,7.55,21.87,11.53,25.29,13,6.49,2.87,7.67,4.3,15.25-4.61,4.43-5.2,13-16.82,14.74-17.42s3.64.52,6.35-1.41,8-13.49,8-13.49S162.07,135.85,159,135.8Z" style="fill:#ffbda7"></path><path d="M150.41,150.91a6.88,6.88,0,0,1-2.62-3.57,4.8,4.8,0,0,0,4.47-3c1.15-3.07.23-4.17,2.65-5.3a14,14,0,0,0,4.1-3l5.47.22s-2.4,7-3.62,9.41S156.61,151.72,150.41,150.91Z" style="fill:#f0997a"></path><path d="M155.59,147h0a1.3,1.3,0,0,1-.75-1.67l10.66-27.84,2.4.92-10.65,27.84A1.29,1.29,0,0,1,155.59,147Z"></path><path d="M163.8,106.31a3.64,3.64,0,0,0-3.61.8,11.53,11.53,0,0,0-4.14,9.6,3.64,3.64,0,0,0,1.92,3.18l2,.86a3.67,3.67,0,0,0,3.63-.79,11.56,11.56,0,0,0,4.13-9.61,3.67,3.67,0,0,0-1.91-3.18Z" style="fill:#37474f"></path><path d="M162.18,108c2.67-2,5.16-.92,5.54,2.39a11.56,11.56,0,0,1-4.13,9.61c-2.68,2-5.16.92-5.55-2.39A11.56,11.56,0,0,1,162.18,108Z" style="fill:#263238"></path><path d="M165.57,108a3.25,3.25,0,0,0-3.19.71,10.18,10.18,0,0,0-3.66,8.49,3.23,3.23,0,0,0,1.69,2.81l12.83,5.53a3.25,3.25,0,0,0,3.21-.7,10.25,10.25,0,0,0,3.66-8.49,3.22,3.22,0,0,0-1.7-2.81Z" style="fill:#6C63FF"></path><path d="M165.57,108a3.25,3.25,0,0,0-3.19.71,10.18,10.18,0,0,0-3.66,8.49,3.23,3.23,0,0,0,1.69,2.81l12.83,5.53a3.25,3.25,0,0,0,3.21-.7,10.25,10.25,0,0,0,3.66-8.49,3.22,3.22,0,0,0-1.7-2.81Z" style="opacity:0.30000000000000004"></path><path d="M178.48,122.58,159,114.17a8.59,8.59,0,0,0-.25,3,3.23,3.23,0,0,0,1.69,2.81l12.83,5.53a3.25,3.25,0,0,0,3.21-.7A8.39,8.39,0,0,0,178.48,122.58Z" style="opacity:0.15"></path><path d="M176.75,111.89a3.68,3.68,0,0,0-3.62.79,11.58,11.58,0,0,0-4.13,9.61,3.67,3.67,0,0,0,1.91,3.18l2,.86a3.69,3.69,0,0,0,3.63-.79,11.56,11.56,0,0,0,4.14-9.61,3.64,3.64,0,0,0-1.92-3.18Z" style="fill:#37474f"></path><path d="M175.12,113.54c2.68-2,5.16-.93,5.55,2.39a11.56,11.56,0,0,1-4.14,9.61c-2.67,2-5.16.92-5.55-2.39A11.59,11.59,0,0,1,175.12,113.54Z" style="fill:#455a64"></path><path d="M159.79,133.84s3.5-.4,5.37.34c.81.33,1.29.87.86,2.49a3.06,3.06,0,0,1-1.88,1.85,2.54,2.54,0,0,1,.86,2.21,3.21,3.21,0,0,1-2.46,2.53,2,2,0,0,1,.15,2,3.41,3.41,0,0,1-2.49,1.59,3,3,0,0,1-.54,2.12c-.73.83-3.4,1.68-5.62,1.81a1.72,1.72,0,0,1-1.75-2.72,4.6,4.6,0,0,1,2.09-1.4,2.23,2.23,0,0,1-.5-2c.3-1.11,2.77-1.66,2.77-1.66s-1.53-.93-1.16-2.26,3.3-1.91,3.3-1.91a1.55,1.55,0,0,1-1.42-1.31C158.73,136.24,159.75,134.91,159.79,133.84Z" style="fill:#ffbda7"></path><path d="M154.61,139.2c2.41-1.39,3.35-1.7,4.34-3.4,1.33-1.77,1.17-3.51.59-3.72-.78-.29-3,.76-4.56,1.24-2.65.81-4.83.53-7.27,1.85-1.91,1-3.5,5-6.27,7.67Z" style="fill:#ffbda7"></path><path d="M136,147.52l3.12-2.92a12,12,0,0,0,3,6.49c2.84,3.44,4.9,3.59,4.9,3.59l-2.62,3.14a10.49,10.49,0,0,1-5.64-3.5A14.84,14.84,0,0,1,136,147.52Z" style="fill:#e6e6e6"></path><path d="M91.34,140.84c7.34.61,10.73,2.76,18.12,7s15.61,8.43,15.61,8.43l12.28-10.21a10.22,10.22,0,0,0,2.76,7.51c3.24,3.58,5.3,3.3,5.3,3.3S140,164.27,135,169.77s-6.23,7.52-12.39,4.8S95.75,161,95.75,161Z" style="fill:#37474f"></path><path d="M50.85,147.55s-2,1.62.36,13.35c1.84,9.2,4,20.9,4.11,24.91C55.55,192,53.87,207,53.87,207c14.2,7.21,43.14,5.49,48.26-4.46,0,0-1.22-35.92-2.88-46.42-1.27-8-4-12.47-6.9-14.8l-9.95-1.43-12-.52Z" style="fill:#e6e6e6"></path><g id="freepik--Head--inject-110"><path d="M93.81,104.75a2.52,2.52,0,0,0-2.41-4.42A4.82,4.82,0,0,0,92,96.14c-.3-.86-1.15-1.72-2-1.41a2.64,2.64,0,0,0-.82.59,6.4,6.4,0,0,1-3.77,1.4c-2.57.19-5.11-.52-7.71-.39-9,.46-13.69,4.85-14.34,8.53h0a6.41,6.41,0,0,0-3.4,3.22c-.85,1.63-.86,5.53,1.89,13.93,1.95,6,2.24,8.32,3,9.85s1.66,1.47,1.66,1.47L85.35,112.2c2.41.16,4.77,1.15,7.12.1a5.06,5.06,0,0,0,2.9-3.44A4,4,0,0,0,93.81,104.75Z" style="fill:#e0e0e0"></path><path d="M93.81,104.75a2.52,2.52,0,0,0-2.41-4.42A4.82,4.82,0,0,0,92,96.14c-.3-.86-1.15-1.72-2-1.41a2.64,2.64,0,0,0-.82.59,6.4,6.4,0,0,1-3.77,1.4c-2.57.19-5.11-.52-7.71-.39-9,.46-13.69,4.85-14.34,8.53h0a6.41,6.41,0,0,0-3.4,3.22c-.85,1.63-.86,5.53,1.89,13.93,1.95,6,2.24,8.32,3,9.85s1.66,1.47,1.66,1.47L85.35,112.2c2.41.16,4.77,1.15,7.12.1a5.06,5.06,0,0,0,2.9-3.44A4,4,0,0,0,93.81,104.75Z" style="opacity:0.2"></path><path d="M61.14,128c2.56,1.33,4.94-1,4.94-1l.48,13.52s.26,2.61,4.42,4.9c5.88,3.26,8.42,4,11,7.52,1.91-5.82,4-9.08.28-13.5v-3.09a19,19,0,0,0,4.53-.58c3.71-1.19,5.84-5.37,6.16-8.73a53.86,53.86,0,0,0-.74-17.64,6.32,6.32,0,0,0-2.47-4c-4.87-3.49-9.84.06-15.25,1.64a10.89,10.89,0,0,1-6.61,0c1.27.75,3.46,4.52.35,10.68.06,1.71-.35,3-1.1,3.12-1.43.27-2-1.52-2.92-2.49a3.79,3.79,0,0,0-5.89,1.34A6.22,6.22,0,0,0,61.14,128Z" style="fill:#ffbda7"></path><path d="M79.77,125.5l5.06.44a2.5,2.5,0,0,1-2.69,2.39A2.66,2.66,0,0,1,79.77,125.5Z" style="fill:#b16668"></path><path d="M80.46,126.23a3.09,3.09,0,0,0-.61.08,2.64,2.64,0,0,0,2.29,2,2.43,2.43,0,0,0,.81-.08A2.33,2.33,0,0,0,80.46,126.23Z" style="fill:#f28f8f"></path><path d="M82.2,136.28c-3,.14-8.36-.71-10.32-2.66a18.07,18.07,0,0,1-3.9-6.37c.4,3,1.4,6.41,3.5,8.34s7.47,2.53,10.72,2.53Z" style="fill:#f0997a"></path><path d="M87.92,108.69a4.57,4.57,0,0,0-2.81-.11,16.46,16.46,0,0,1-3.35.45c-1.94,0-4.33-.79-6.15.09,0,0-.06.11,0,.09a8.57,8.57,0,0,1,2.58-.16c1,0,2.39.48,3.43.48,2.13,0,4.16-.91,6.28-.75C87.93,108.79,88,108.7,87.92,108.69Z" style="fill:#f0997a"></path><path d="M85.42,106.84c-.68.12-1.37.22-2,.35a8.37,8.37,0,0,1-2.12.18c-.64,0-1.27-.16-1.91-.22a3.59,3.59,0,0,0-1.83.26s0,0,0,0c1.32-.26,2.67.23,4,.25a9.89,9.89,0,0,0,1.88-.17,12,12,0,0,0,2-.62S85.46,106.84,85.42,106.84Z" style="fill:#f0997a"></path><path d="M74.35,116.41a2.68,2.68,0,0,0-.49,0,4.82,4.82,0,0,0-.52.11c-.15,0-.3.1-.44.15l-.23.1a.5.5,0,0,0-.24.31c0,.26.56,0,.65,0,.43-.15.9-.12,1.34-.24C74.68,116.77,74.59,116.43,74.35,116.41Z" style="fill:#f0997a"></path><path d="M74.58,117.39l-.12,0a.8.8,0,0,0-.37.08l-.43.15-.41.15a.71.71,0,0,0-.4.3.12.12,0,0,0,0,.1.1.1,0,0,0,.09.08.33.33,0,0,0,.14,0l1-.29a1,1,0,0,0,.5-.24.2.2,0,0,0,.08-.12A.14.14,0,0,0,74.58,117.39Z" style="fill:#f0997a"></path><path d="M90.56,115.5a2.55,2.55,0,0,1,.48,0,4.36,4.36,0,0,1,.52.11,4,4,0,0,1,.45.15l.22.1c.09.06.23.18.24.3s-.56,0-.65,0c-.42-.15-.89-.12-1.33-.24C90.23,115.86,90.32,115.52,90.56,115.5Z" style="fill:#f0997a"></path><path d="M90.33,116.48a.25.25,0,0,1,.12,0,.76.76,0,0,1,.36.08l.43.15.41.15a.73.73,0,0,1,.41.3.29.29,0,0,1,0,.1.11.11,0,0,1-.1.08.33.33,0,0,1-.14,0l-1-.29a1,1,0,0,1-.5-.24.23.23,0,0,1-.08-.12A.15.15,0,0,1,90.33,116.48Z" style="fill:#f0997a"></path><path d="M76.3,112,73,113.43A1.9,1.9,0,0,1,74,111,1.77,1.77,0,0,1,76.3,112Z" style="fill:#37474f"></path><path d="M91,111.89l-3.5-1a1.75,1.75,0,0,1,2.2-1.27A1.91,1.91,0,0,1,91,111.89Z" style="fill:#37474f"></path><path d="M75.59,116.74A1.48,1.48,0,1,0,77,115.22,1.47,1.47,0,0,0,75.59,116.74Z" style="fill:#263238"></path><path d="M86.56,116.22A1.48,1.48,0,1,0,88,114.7,1.34,1.34,0,0,0,86.56,116.22Z" style="fill:#263238"></path><path d="M77.47,124.21l-.27.15a3.66,3.66,0,0,1-2.18.46,1.59,1.59,0,0,0,1.23,1,2.68,2.68,0,0,0,2-.25c-.07.49.55.89,1.14.9a3.22,3.22,0,0,0,1.63-.53c0,.35.47.63.9.58a1.71,1.71,0,0,0,1-.6.83.83,0,0,0,.88.63c.44,0,.8-.37.76-.72.09.8,2.16.67,1.74,0a2.34,2.34,0,0,0,1.87.32,2,2,0,0,0,.79-.44,3,3,0,0,0,.34-.57,3.73,3.73,0,0,1-2.58-.83,8.53,8.53,0,0,0-3.12-1.5,7.87,7.87,0,0,0-4.61.52C78.51,123.56,78,123.91,77.47,124.21Z" style="fill:#e0e0e0"></path><path d="M88.39,120.84a4.45,4.45,0,1,1,4.44-4.45A4.46,4.46,0,0,1,88.39,120.84Zm0-8.23a3.79,3.79,0,1,0,3.78,3.78A3.79,3.79,0,0,0,88.39,112.61Z" style="fill:#455a64"></path><path d="M77.47,124.21l-.27.15a3.66,3.66,0,0,1-2.18.46,1.59,1.59,0,0,0,1.23,1,2.68,2.68,0,0,0,2-.25c-.07.49.55.89,1.14.9a3.22,3.22,0,0,0,1.63-.53c0,.35.47.63.9.58a1.71,1.71,0,0,0,1-.6.83.83,0,0,0,.88.63c.44,0,.8-.37.76-.72.09.8,2.16.67,1.74,0a2.34,2.34,0,0,0,1.87.32,2,2,0,0,0,.79-.44,3,3,0,0,0,.34-.57,3.73,3.73,0,0,1-2.58-.83,8.53,8.53,0,0,0-3.12-1.5,7.87,7.87,0,0,0-4.61.52C78.51,123.56,78,123.91,77.47,124.21Z" style="opacity:0.2"></path><path d="M81,113.47l1.2,9.39,5-1.82A22,22,0,0,0,81,113.47Z" style="fill:#f0997a"></path><path d="M76.89,121.79a4.44,4.44,0,1,1,4.44-4.44A4.44,4.44,0,0,1,76.89,121.79Zm0-8.23a3.79,3.79,0,1,0,3.78,3.79A3.79,3.79,0,0,0,76.89,113.56Z" style="fill:#455a64"></path><path d="M81,117.41h0a.31.31,0,0,1-.27-.37,2.36,2.36,0,0,1,3.82-1.38.33.33,0,0,1-.45.47,1.66,1.66,0,0,0-1.62-.26,1.57,1.57,0,0,0-1.1,1.27A.34.34,0,0,1,81,117.41Z" style="fill:#455a64"></path><path d="M64.15,118.6a.33.33,0,0,1-.33-.29.34.34,0,0,1,.3-.37l8.62-.92a.33.33,0,0,1,.36.29.32.32,0,0,1-.29.36l-8.62.93Z" style="fill:#455a64"></path></g><path d="M84,153.5s2.35-4.08,2.41-5.74l-2.59-2.87-1,6.76Z" style="fill:#6C63FF"></path><path d="M84,153.5s2.35-4.08,2.41-5.74l-2.59-2.87-1,6.76Z" style="fill:#fff;opacity:0.30000000000000004"></path><polygon points="80.62 151.66 76.14 148.39 72.23 150.82 79.14 154.66 80.62 151.66" style="fill:#6C63FF"></polygon><polygon points="80.62 151.66 76.14 148.39 72.23 150.82 79.14 154.66 80.62 151.66" style="fill:#fff;opacity:0.30000000000000004"></polygon><path d="M78.5,186.57c.83-13.74,2.38-26.25,2.25-29.6l2.34-.15c1.48,4.08,6,12.23,7,29.75,0,3.13-3.12,9.85-5.35,9.85S78.38,188.59,78.5,186.57Z" style="fill:#6C63FF"></path><path d="M78.5,186.57c.83-13.74,2.38-26.25,2.25-29.6l2.34-.15c1.48,4.08,6,12.23,7,29.75,0,3.13-3.12,9.85-5.35,9.85S78.38,188.59,78.5,186.57Z" style="fill:#fff;opacity:0.6000000000000001"></path><path d="M83.28,157.32c-.07-.17-.13-.33-.19-.49h0l-2.34.15h0c0,.28,0,.64,0,1.05A4.15,4.15,0,0,0,83.28,157.32Z" style="fill:#6C63FF;opacity:0.5"></path><path d="M80.62,151.66a9.91,9.91,0,0,1,2.21,0A5.2,5.2,0,0,1,84,153.5a7.92,7.92,0,0,1-1,3.32,2.79,2.79,0,0,1-2.34.15,5,5,0,0,1-1.61-2.31A4.45,4.45,0,0,1,80.62,151.66Z" style="fill:#6C63FF"></path><path d="M80.62,151.66a9.91,9.91,0,0,1,2.21,0A5.2,5.2,0,0,1,84,153.5a7.92,7.92,0,0,1-1,3.32,2.79,2.79,0,0,1-2.34.15,5,5,0,0,1-1.61-2.31A4.45,4.45,0,0,1,80.62,151.66Z" style="fill:#fff;opacity:0.6000000000000001"></path><path d="M51.2,206.93l-.32,6s8.53,9,29,7.8,24.35-10.53,24.35-10.53v-5.3Z" style="fill:#6C63FF"></path><path d="M51.2,206.93l-.32,6s8.53,9,29,7.8,24.35-10.53,24.35-10.53v-5.3Z" style="opacity:0.2"></path><path d="M65.18,141.57a143.26,143.26,0,0,0,18.1,22.9c4.14-13.9.74-19.95-.88-24.56,0,0,6.86.69,9.95,1.43,4.5,1.89,9.61,1.26,11.7,36.92.21,3.43.73,16.86.92,23.08a8.24,8.24,0,0,1-2,5.78c-3.68,4.16-11.4,8-20.2,9.16-10.11,1.26-24.36-.72-30.38-6.94a6.44,6.44,0,0,1-1.79-4.51l1.34-19.43L47.73,148Z" style="fill:#6C63FF"></path><path d="M83.8,169.16c6.54-8.09,4.75-22.45,1.57-28.89l-3-.36c1.62,4.61,5,10.66.88,24.56a143.26,143.26,0,0,1-18.1-22.9l-3,1.09C64.69,148.24,75.19,164.13,83.8,169.16Z" style="opacity:0.2"></path><path d="M81,151.62a1.75,1.75,0,0,0-.32,0,14.58,14.58,0,0,0-2.8-2.36c-.65-.32-3.2,4.28-3.67,5.48s-.39,1.18-2,.16a28.55,28.55,0,0,1-7.54-6.8,16.84,16.84,0,0,1-2.83-5.33l2-4c1-1.9,1.51-3.58,2.58-3.45l.09,2.12c.24,1.63,2,3.13,4.35,5s6.1,3.66,7,4.47A32.23,32.23,0,0,1,81,151.62Z" style="fill:#f5f5f5"></path><path d="M88.63,151.52c-.23.68-2.52-4.47-3.56-4.32-.5.05-1.73,2.89-2.62,4.42h-.16a26.62,26.62,0,0,0,1-4.78c.2-1.27-1-7.47-1-7.47v-3.08l.74,0c.27.26,1.21,1.76,1.49,2.19,1.07,1.63,3.46,5.25,3.86,7.24A17.25,17.25,0,0,1,88.63,151.52Z" style="fill:#f5f5f5"></path><path d="M63.8,138.84c-.42,2.93,4.13,18,6.83,26s3,20.22,2.83,41.36-.25,22.74-.25,22.74-16.22-1.59-24.7-8.6c0,0,2.09-26.31,2.83-34.17,0,0-5-28.52-5.54-32.08a21,21,0,0,1,0-6.15s4.55-2.34,9.84-4.67A49.85,49.85,0,0,0,63.8,138.84Z" style="fill:#455a64"></path><path d="M84.83,139.06s7.77,1.81,9.77,2.19c1.77.34,6.26,2.88,8.13,14.75s3.16,31.82,3.75,60.64c-2.42,5.06-9.1,8.57-9.1,8.57s-1-51.28-3.71-62.58C89.5,144.89,84.83,139.06,84.83,139.06Z" style="fill:#455a64"></path><path d="M69.09,193.3c-.66-2.12-1.3-4.24-1.87-6.39s-1-4.32-1.56-6.48-.91-4.23-1.29-6.36c1.31-1.76,2.64-3.51,3.94-5.29l.52-.71-.88.06-5.66.39c-.49-1.92-.89-3.88-1.27-5.83s-.78-4.13-1.14-6.2c-.69-4.15-1.38-8.29-1.8-12.48.06,2.1.27,4.2.48,6.3s.5,4.18.79,6.26.62,4.17,1,6.24S61.1,167,61.62,169l.08.3.32,0,5.1-.3c-1.17,1.58-2.32,3.16-3.48,4.75l-.1.13,0,.17c.41,2.2.88,4.37,1.4,6.54s1.1,4.33,1.71,6.47,1.31,4.27,2.09,6.36a65.14,65.14,0,0,0,2.63,6.14C70.54,197.5,69.77,195.42,69.09,193.3Z" style="fill:#37474f"></path><path d="M101.64,167.75l0-.2-.19-.1c-1.38-.77-2.77-1.52-4.16-2.27l3.77-3.33.21-.18-.11-.24c-.74-1.74-1.49-3.49-2.32-5.2s-1.72-3.39-2.67-5A48.72,48.72,0,0,0,89.5,142a57.35,57.35,0,0,1,6.21,9.46,109.65,109.65,0,0,1,4.64,10l-4,3.49-.43.37.5.28c1.48.82,3,1.65,4.46,2.45a49.06,49.06,0,0,1,.2,7.08c-.08,2.44-.29,4.88-.53,7.31s-.61,4.86-1,7.28l-.61,3.62L98.25,197l.89-3.58.78-3.6c.47-2.41.89-4.83,1.2-7.27s.57-4.89.67-7.35A49.78,49.78,0,0,0,101.64,167.75Z" style="fill:#37474f"></path><path d="M82.58,170.25c3.09-2.31,4.65-3.2,6.09-3.61s6.5-2.51,8.44-3c1.23-.31,1.73,1.65.16,3-1.21,1-4.34,2.4-5.72,3.15s-4.07,4-4.07,4Z" style="fill:#f0997a"></path><path d="M37.63,158.38c1.82-7,5.18-9.42,12-11.9,7,6.8,3.92,22.74,3.92,22.74l-3.73,18.34s18.48-5,20.57-6.31,7.7-7.37,9.58-9.18c2.56-2.46,3.83-2.13,5.14-1.93,4.26.64,5.19,1,6.1,1.57a1.92,1.92,0,0,1,.82,1.66c1.14.14,2.83.11,3,2a5.61,5.61,0,0,1,.07,1.49,1.22,1.22,0,0,1,.73.42c.94,1.09-.67,4.87-1.7,5.79a3.72,3.72,0,0,1-3.09.54c-1.15-.15-.62-1.32-.62-1.32l-1.6.09c-3.47,2.47-3.65,7.35-8.23,8.42a31.45,31.45,0,0,0-5.6,1.09c-9.86,3.31-26,13.36-34.83,14.12-8.58.73-8.34-3.84-8.47-9.1C31.62,192.19,35.84,165.35,37.63,158.38Z" style="fill:#ffbda7"></path><path d="M91.93,172.67l-5-.32,5.06,1A1.92,1.92,0,0,0,91.93,172.67Zm-2.61,3.4,5.83.76a3.09,3.09,0,0,0,0-.68Zm3.43,4.08a19.49,19.49,0,0,1-2,.14,2.23,2.23,0,0,1-.72,1.12,12,12,0,0,1-1.13.94l1.6-.09a2.52,2.52,0,0,1,1.65-.95,1.18,1.18,0,0,1,.79.15,1.88,1.88,0,0,1,.59.63,1.56,1.56,0,0,0-.51-.76,1.16,1.16,0,0,0-.6-.23l.33-.72a3.34,3.34,0,0,0,.87-.31,1.8,1.8,0,0,0,.79-.68,2.24,2.24,0,0,1-.85.54A5.32,5.32,0,0,1,92.75,180.15Z" style="fill:#f0997a"></path><path d="M62.36,183.37l5-1.41a16.18,16.18,0,0,0-.7,7.23,17.7,17.7,0,0,0,1.89,6l-4.32,2.16S60.9,193.59,62.36,183.37Z" style="fill:#fafafa"></path><path d="M50.18,185.76l-.36,1.8c-3.91,1-8.13,3.81-9.07,5.95C41.48,190.12,43.3,187.59,50.18,185.76Z" style="fill:#f0997a"></path><path d="M50.18,145.76c-3,1.22-9.51,3.76-11.71,8.43s-2.37,7.28-4.42,18.67-3.61,25.06-2.62,28.89,3.54,6.51,10.34,4.81,24.66-9.35,24.66-9.35A17.93,17.93,0,0,1,64,187.65c.28-5.24,1.2-5.56,1.2-5.56l-14.52,4.28s3-15.65,3.61-18.34S57.18,152.9,50.18,145.76Z" style="fill:#37474f"></path><path d="M50.63,186.37C44,188.26,38,189.59,36.42,194.22c.93-6.65,8.47-8.81,14.68-10.34Z" style="fill:#263238"></path></g></g><g id="freepik--Podium--inject-110"><g id="freepik--podium--inject-110"><polygon points="142.26 395.99 142.26 386.66 188.84 359.77 188.84 369.1 142.26 395.99" style="fill:#6C63FF"></polygon><polygon points="142.26 395.99 142.26 386.66 188.84 359.77 188.84 369.1 142.26 395.99" style="fill:#fff;opacity:0.7000000000000001"></polygon><polygon points="142.26 386.66 101.7 363.25 101.7 372.57 142.26 395.99 142.26 386.66" style="fill:#6C63FF"></polygon><polygon points="142.26 386.66 101.7 363.25 101.7 372.57 142.26 395.99 142.26 386.66" style="fill:#fff;opacity:0.5"></polygon><polygon points="142.26 386.66 101.7 363.25 151.62 338.28 188.84 359.77 142.26 386.66" style="fill:#6C63FF"></polygon><polygon points="142.26 386.66 101.7 363.25 151.62 338.28 188.84 359.77 142.26 386.66" style="fill:#fff;opacity:0.85"></polygon><polygon points="142.26 382.82 182.19 359.77 186.69 239.54 142.26 265.19 142.26 382.82" style="fill:#6C63FF"></polygon><polygon points="142.26 382.82 182.19 359.77 186.69 239.54 142.26 265.19 142.26 382.82" style="fill:#fff;opacity:0.7000000000000001"></polygon><polygon points="142.26 382.82 108.36 363.25 103.85 243.01 142.26 265.19 142.26 382.82" style="fill:#6C63FF"></polygon><polygon points="142.26 382.82 108.36 363.25 103.85 243.01 142.26 265.19 142.26 382.82" style="fill:#fff;opacity:0.5"></polygon><polygon points="186.16 253.61 186.69 239.54 142.26 265.19 103.85 243.01 104.38 257.09 142.26 278.96 186.16 253.61" style="fill:#6C63FF;opacity:0.4"></polygon><polygon points="150.34 277.01 178.61 260.69 175.94 354.01 150.34 368.83 150.34 277.01" style="fill:#fff;opacity:0.55"></polygon><path d="M174.51,267.64,172,351.69l-17.69,10.25V279.31l20.2-11.67m1.12-1.79-22.31,12.88v84.93L173,352.28l2.67-86.43Z" style="fill:#6C63FF;opacity:0.30000000000000004"></path><polygon points="139.14 274.56 139.14 261.67 201.53 225.64 201.53 238.53 139.14 274.56" style="fill:#6C63FF"></polygon><polygon points="139.14 274.56 139.14 261.67 201.53 225.64 201.53 238.53 139.14 274.56" style="fill:#fff;opacity:0.7000000000000001"></polygon><polygon points="139.14 261.67 95.46 242.5 95.46 249.34 139.14 274.56 139.14 261.67" style="fill:#6C63FF"></polygon><polygon points="139.14 261.67 95.46 242.5 95.46 249.34 139.14 274.56 139.14 261.67" style="fill:#fff;opacity:0.5"></polygon><polygon points="139.14 261.67 95.46 242.5 157.86 206.48 201.53 225.64 139.14 261.67" style="fill:#6C63FF"></polygon><polygon points="139.14 261.67 95.46 242.5 157.86 206.48 201.53 225.64 139.14 261.67" style="fill:#fff;opacity:0.85"></polygon></g><g id="freepik--Base--inject-110"><path d="M181.17,221.93a14.72,14.72,0,0,0-13.31,0c-1.84,1.06-2.75,2.45-2.75,3.84v1.44c0,1.39.91,2.78,2.75,3.84a14.66,14.66,0,0,0,13.31,0c1.84-1.06,2.75-2.45,2.75-3.84v-1.44C183.92,224.38,183,223,181.17,221.93Z" style="fill:#263238"></path><ellipse cx="174.51" cy="225.77" rx="9.41" ry="5.43" style="fill:#455a64"></ellipse><path d="M180,220.14a12.18,12.18,0,0,0-11,0,3.86,3.86,0,0,0-2.27,3.18v2.12a3.85,3.85,0,0,0,2.27,3.17,12.12,12.12,0,0,0,11,0,3.86,3.86,0,0,0,2.28-3.17v-2.12A3.87,3.87,0,0,0,180,220.14Z" style="fill:#37474f"></path><path d="M169,220.14c-3,1.76-3,4.6,0,6.35a12.14,12.14,0,0,0,11,0c3-1.75,3-4.59,0-6.35A12.2,12.2,0,0,0,169,220.14Z" style="fill:#455a64"></path></g></g></g><g id="freepik--Canvas--inject-110"><g id="freepik--canvas--inject-110"><path d="M111.41,417.67l5.86-63.25L39.76,309.83l-2.9,1.68L31,374.75l77.51,44.59Z" style="fill:#e0e0e0"></path><polygon points="104.79 407.83 40.04 370.78 44.64 321.11 109.39 358.2 104.79 407.83" style="fill:#f5f5f5"></polygon><polygon points="104.41 411.88 104.79 407.83 40.04 370.78 35.98 372.64 104.41 411.88" style="fill:#263238"></polygon><polygon points="44.65 321.09 40.04 370.78 35.98 372.64 40.95 318.97 44.65 321.09" style="fill:#37474f"></polygon><polygon points="80.71 341.76 76.1 391.45 72.04 393.32 77.02 339.64 80.71 341.76" style="fill:#37474f"></polygon><path d="M114.37,356.1,36.86,311.51,31,374.75l77.51,44.59Zm-10,55.78L72,393.32l5-53.67,32.37,18.55ZM41,319l32.37,18.56-5,53.67L36,372.64Z" style="fill:#455a64"></path><polygon points="117.27 354.42 114.37 356.1 36.86 311.5 39.76 309.83 117.27 354.42" style="fill:#f5f5f5"></polygon><path d="M113.12,355.38c.81,1.3.49,2.51-.87,2.51h-.41c-1.62,0-1.78,1.7-.31,3.25l.38.39c1.47,1.54,1.31,3.25-.3,3.25h-.41c-1.62,0-1.78,1.7-.3,3.25l.37.39c1.47,1.55,1.31,3.25-.3,3.25h-.41c-1.62,0-1.77,1.71-.3,3.25l.37.39c1.47,1.55,1.32,3.25-.3,3.25h-.41c-1.62,0-1.77,1.71-.3,3.25l.37.39c1.48,1.55,1.32,3.25-.3,3.25h-.41c-1.61,0-1.77,1.71-.3,3.25l.38.4c1.47,1.54,1.31,3.24-.31,3.24h-.41c-1.61,0-1.77,1.71-.3,3.25l.38.4c1.47,1.54,1.31,3.24-.3,3.25H108c-1.61,0-1.77,1.7-.3,3.24l.38.4c1.47,1.54,1.31,3.25-.3,3.25h-.41c-1.62,0-1.78,1.7-.31,3.25l.38.39c1.47,1.54,1.31,3.25-.3,3.25h-.41c-1.62,0-1.78,1.7-.3,3.25l.37.39a2.94,2.94,0,0,1,1,2.27l.71.41,5.86-63.24Z" style="fill:#f0f0f0"></path><path d="M31,374.75l22.15,12.74,55.36,31.85.09-1a3.51,3.51,0,0,1-.49-.8l-.21-.44c-.79-1.72-3-3-4.14-2.38l-.3.15c-1.17.59-3.35-.66-4.14-2.39l-.2-.44c-.8-1.72-3-3-4.14-2.38l-.3.15c-1.18.59-3.35-.66-4.15-2.38l-.2-.44c-.79-1.72-3-3-4.14-2.38l-.3.15c-1.18.59-3.35-.66-4.14-2.39l-.2-.44c-.8-1.72-3-3-4.15-2.38l-.3.15c-1.17.59-3.34-.66-4.14-2.38l-.2-.44c-.79-1.73-3-3-4.14-2.38l-.3.15c-1.18.59-3.35-.66-4.14-2.39l-.2-.44c-.8-1.72-3-3-4.15-2.38l-.3.15c-1.17.59-3.34-.66-4.14-2.38l-.2-.44c-.8-1.73-3-3-4.14-2.39l-.3.15c-1.18.59-3.35-.65-4.14-2.38l-.21-.44c-.79-1.72-3-3-4.14-2.38l-.3.15c-1.17.59-3.35-.66-4.14-2.38l-.2-.44c-.8-1.73-3-3-4.14-2.39l-.3.15a2.4,2.4,0,0,1-2.13-.27Z" style="fill:#f0f0f0"></path><path d="M36.81,312.06a4.88,4.88,0,0,1,1.92,2.05l.2.44c.8,1.73,3,3,4.14,2.38l.3-.15c1.18-.59,3.35.66,4.15,2.39l.2.44c.79,1.72,3,3,4.14,2.38l.3-.15c1.18-.59,3.35.66,4.14,2.38l.2.44c.8,1.73,3,3,4.15,2.38l.29-.15c1.18-.59,3.35.66,4.15,2.39l.2.44c.79,1.72,3,3,4.14,2.38l.3-.15c1.18-.59,3.35.66,4.14,2.38l.21.44c.79,1.72,3,3,4.14,2.38l.3-.15c1.17-.59,3.34.66,4.14,2.39l.2.44c.8,1.72,3,3,4.14,2.38l.3-.15c1.18-.59,3.35.66,4.15,2.38l.2.44c.79,1.72,3,3,4.14,2.38l.3-.15c1.17-.59,3.35.66,4.14,2.39l.2.44c.8,1.72,3,3,4.15,2.38l.3-.15c1.17-.59,3.34.66,4.14,2.38l.2.44c.79,1.72,3,3,4.14,2.38l.3-.15a1.53,1.53,0,0,1,.62-.14l.09-1L36.86,311.51Z" style="fill:#f0f0f0"></path><path d="M31.71,375.15A1.16,1.16,0,0,1,33,374h.41c1.62,0,1.77-1.7.3-3.25l-.37-.39c-1.47-1.54-1.32-3.25.3-3.25h.41c1.62,0,1.77-1.7.3-3.25L34,363.5c-1.48-1.54-1.32-3.25.3-3.25h.41c1.61,0,1.77-1.7.3-3.25l-.38-.39c-1.47-1.55-1.31-3.25.31-3.25h.41c1.61,0,1.77-1.7.3-3.25l-.38-.39c-1.47-1.55-1.31-3.25.3-3.25H36c1.61,0,1.77-1.71.3-3.25l-.38-.39c-1.47-1.55-1.31-3.25.3-3.25h.41c1.62,0,1.78-1.71.3-3.25l-.37-.39c-1.47-1.55-1.31-3.25.3-3.25h.41c1.62,0,1.78-1.71.3-3.25l-.37-.4c-1.47-1.54-1.32-3.24.3-3.24h.41c1.62,0,1.77-1.7.3-3.24l-.37-.4c-1.47-1.54-1.32-3.25.3-3.25h.41c1.61,0,1.77-1.7.3-3.25l-.37-.39c-1.21-1.26-1.32-2.62-.44-3.08l-1.17-.67L31,374.75l.63.36Z" style="fill:#f0f0f0"></path><path d="M33.1,372.86a.88.88,0,0,1-.55-.74c0-.24.3-.31.63-.15a1,1,0,0,1,.55.74C33.7,373,33.42,373,33.1,372.86Z" style="fill:#455a64"></path><path d="M33.74,366c-.33-.17-.58-.5-.55-.74s.3-.31.63-.15a.92.92,0,0,1,.55.74C34.34,366.05,34.06,366.12,33.74,366Z" style="fill:#455a64"></path><path d="M34.38,359.06c-.33-.17-.58-.5-.55-.74s.3-.31.63-.15a.92.92,0,0,1,.55.74C35,359.15,34.7,359.22,34.38,359.06Z" style="fill:#455a64"></path><path d="M35,352.15c-.33-.16-.58-.49-.55-.73s.3-.31.63-.15a.92.92,0,0,1,.55.74C35.62,352.25,35.34,352.32,35,352.15Z" style="fill:#455a64"></path><path d="M35.66,345.25c-.33-.16-.58-.49-.55-.73s.3-.32.63-.15a.92.92,0,0,1,.55.73C36.26,345.35,36,345.42,35.66,345.25Z" style="fill:#455a64"></path><path d="M36.3,338.35a.88.88,0,0,1-.55-.74c0-.24.3-.31.63-.14a.92.92,0,0,1,.55.73C36.9,338.45,36.62,338.51,36.3,338.35Z" style="fill:#455a64"></path><path d="M36.94,331.45a.88.88,0,0,1-.55-.74c0-.24.3-.31.63-.15a1,1,0,0,1,.55.74C37.54,331.55,37.26,331.61,36.94,331.45Z" style="fill:#455a64"></path><path d="M37.58,324.55a.89.89,0,0,1-.55-.74c0-.24.3-.31.63-.15a1,1,0,0,1,.55.74C38.18,324.64,37.9,324.71,37.58,324.55Z" style="fill:#455a64"></path><path d="M38.22,317.65c-.33-.17-.58-.5-.55-.74s.3-.31.63-.15a.92.92,0,0,1,.55.74C38.82,317.74,38.54,317.81,38.22,317.65Z" style="fill:#455a64"></path><path d="M107,415.13a.88.88,0,0,1-.55-.74c0-.24.3-.31.63-.14a.92.92,0,0,1,.55.73C107.56,415.23,107.28,415.29,107,415.13Z" style="fill:#455a64"></path><path d="M107.6,408.23a.88.88,0,0,1-.55-.74c0-.24.3-.31.63-.15a1,1,0,0,1,.55.74C108.2,408.33,107.92,408.39,107.6,408.23Z" style="fill:#455a64"></path><path d="M108.24,401.33a.88.88,0,0,1-.55-.74c0-.24.3-.31.63-.15a1,1,0,0,1,.55.74C108.84,401.43,108.56,401.49,108.24,401.33Z" style="fill:#455a64"></path><path d="M108.88,394.43c-.33-.17-.58-.5-.55-.74s.3-.31.63-.15a.92.92,0,0,1,.55.74C109.48,394.52,109.2,394.59,108.88,394.43Z" style="fill:#455a64"></path><path d="M109.51,387.53c-.32-.17-.57-.5-.54-.74s.3-.31.63-.15a.92.92,0,0,1,.55.74C110.12,387.62,109.84,387.69,109.51,387.53Z" style="fill:#455a64"></path><path d="M110.15,380.62a.89.89,0,0,1-.54-.73c0-.25.3-.31.63-.15a.92.92,0,0,1,.55.74C110.76,380.72,110.48,380.79,110.15,380.62Z" style="fill:#455a64"></path><path d="M110.79,373.72a.89.89,0,0,1-.54-.74c0-.24.3-.31.63-.14a.92.92,0,0,1,.55.73C111.4,373.82,111.12,373.89,110.79,373.72Z" style="fill:#455a64"></path><path d="M111.43,366.82a.89.89,0,0,1-.54-.74c0-.24.3-.31.63-.15a1,1,0,0,1,.55.74C112,366.92,111.76,367,111.43,366.82Z" style="fill:#455a64"></path><path d="M112.07,359.92a.89.89,0,0,1-.54-.74c0-.24.3-.31.63-.15a1,1,0,0,1,.55.74C112.68,360,112.4,360.08,112.07,359.92Z" style="fill:#455a64"></path><path d="M111.47,356.35a1,1,0,0,1-.55-.74c0-.25.31-.31.64-.15a.89.89,0,0,1,.54.74C112.08,356.44,111.8,356.51,111.47,356.35Z" style="fill:#455a64"></path><path d="M102.69,351.3a.92.92,0,0,1-.55-.74c0-.24.31-.31.63-.14s.58.49.55.73S103,351.46,102.69,351.3Z" style="fill:#455a64"></path><path d="M93.91,346.26a1,1,0,0,1-.55-.74c0-.25.31-.31.63-.15a.9.9,0,0,1,.55.74C94.52,346.35,94.24,346.42,93.91,346.26Z" style="fill:#455a64"></path><path d="M85.13,341.21a.9.9,0,0,1-.55-.73c0-.25.31-.32.63-.15a.9.9,0,0,1,.55.73C85.74,341.31,85.46,341.38,85.13,341.21Z" style="fill:#455a64"></path><path d="M76.35,336.17a.9.9,0,0,1-.55-.74c0-.24.31-.31.63-.15A.93.93,0,0,1,77,336C77,336.27,76.67,336.33,76.35,336.17Z" style="fill:#455a64"></path><path d="M67.57,331.12a.9.9,0,0,1-.55-.73c0-.25.3-.31.63-.15a.9.9,0,0,1,.55.74C68.18,331.22,67.89,331.29,67.57,331.12Z" style="fill:#455a64"></path><path d="M58.79,326.08a.9.9,0,0,1-.55-.74c0-.24.3-.31.63-.15a1,1,0,0,1,.55.74C59.4,326.18,59.11,326.24,58.79,326.08Z" style="fill:#455a64"></path><path d="M50,321c-.33-.17-.58-.5-.55-.74s.3-.31.63-.15a.92.92,0,0,1,.55.74C50.61,321.13,50.33,321.2,50,321Z" style="fill:#455a64"></path><path d="M41.23,316a.88.88,0,0,1-.55-.74c0-.24.3-.31.63-.14a.92.92,0,0,1,.55.73C41.83,316.09,41.55,316.15,41.23,316Z" style="fill:#455a64"></path><path d="M105.6,416.71a.9.9,0,0,1-.55-.73c0-.25.3-.31.63-.15a.9.9,0,0,1,.55.74C106.21,416.81,105.92,416.88,105.6,416.71Z" style="fill:#455a64"></path><path d="M96.82,411.67a.9.9,0,0,1-.55-.74c0-.24.3-.31.63-.15a.93.93,0,0,1,.55.74C97.43,411.77,97.14,411.83,96.82,411.67Z" style="fill:#455a64"></path><path d="M88,406.63a.93.93,0,0,1-.55-.74c0-.25.3-.31.63-.15a.92.92,0,0,1,.55.74C88.64,406.72,88.36,406.79,88,406.63Z" style="fill:#455a64"></path><path d="M79.26,401.58a.88.88,0,0,1-.55-.74c0-.24.3-.31.63-.14a.92.92,0,0,1,.55.73C79.86,401.68,79.58,401.74,79.26,401.58Z" style="fill:#455a64"></path><path d="M70.47,396.54c-.32-.17-.57-.5-.54-.74s.3-.31.63-.15a.89.89,0,0,1,.54.74C71.08,396.63,70.8,396.7,70.47,396.54Z" style="fill:#455a64"></path><path d="M61.69,391.49a.92.92,0,0,1-.55-.74c0-.24.31-.31.64-.14a.89.89,0,0,1,.54.73C62.3,391.59,62,391.66,61.69,391.49Z" style="fill:#455a64"></path><path d="M52.91,386.45a.93.93,0,0,1-.55-.74c0-.24.31-.31.63-.15s.58.5.55.74S53.24,386.61,52.91,386.45Z" style="fill:#455a64"></path><path d="M44.13,381.4a.92.92,0,0,1-.55-.73c0-.25.31-.31.63-.15a.9.9,0,0,1,.55.74C44.74,381.5,44.46,381.57,44.13,381.4Z" style="fill:#455a64"></path><path d="M35.35,376.36a.9.9,0,0,1-.55-.74c0-.24.31-.31.63-.15a.93.93,0,0,1,.55.74C36,376.46,35.68,376.52,35.35,376.36Z" style="fill:#455a64"></path><polygon points="79.8 393.53 84.4 343.87 80.71 341.75 76.11 391.42 79.8 393.53" style="fill:#e0e0e0"></polygon><polygon points="43.73 372.89 48.33 323.23 44.64 321.11 40.04 370.78 43.73 372.89" style="fill:#e0e0e0"></polygon></g><g id="freepik--canvas--inject-110"><path d="M102.7,422.69l5.87-63.24L31.06,314.86l-2.9,1.67L22.3,379.77l77.5,44.6Z" style="fill:#e0e0e0"></path><polygon points="96.08 412.86 31.34 375.8 35.94 326.13 100.68 363.23 96.08 412.86" style="fill:#f5f5f5"></polygon><polygon points="95.71 416.9 96.08 412.86 31.34 375.8 27.28 377.67 95.71 416.9" style="fill:#263238"></polygon><polygon points="35.94 326.11 31.34 375.8 27.28 377.67 32.25 324 35.94 326.11" style="fill:#37474f"></polygon><polygon points="72.01 346.79 67.4 396.48 63.34 398.34 68.31 344.67 72.01 346.79" style="fill:#37474f"></polygon><path d="M105.67,361.12,28.16,316.53,22.3,379.77l77.5,44.6Zm-10,55.78L63.34,398.34l5-53.67,32.37,18.56ZM32.25,324l32.37,18.55-5,53.68L27.28,377.67Z" style="fill:#455a64"></path><polygon points="108.57 359.45 105.67 361.12 28.16 316.53 31.06 314.86 108.57 359.45" style="fill:#f5f5f5"></polygon><path d="M104.42,360.4c.8,1.31.48,2.51-.88,2.51h-.41c-1.61,0-1.77,1.71-.3,3.25l.38.4c1.47,1.54,1.31,3.24-.31,3.24h-.41c-1.61,0-1.77,1.71-.3,3.25l.38.4c1.47,1.54,1.31,3.24-.3,3.25h-.42c-1.61,0-1.77,1.7-.3,3.24l.38.4c1.47,1.54,1.31,3.25-.3,3.25h-.41c-1.62,0-1.78,1.7-.3,3.25l.37.39c1.47,1.54,1.31,3.25-.3,3.25h-.41c-1.62,0-1.78,1.7-.3,3.25l.37.39c1.47,1.54,1.32,3.25-.3,3.25h-.41c-1.62,0-1.77,1.7-.3,3.25l.37.39c1.48,1.55,1.32,3.25-.3,3.25H99.3c-1.61,0-1.77,1.71-.3,3.25l.37.39c1.48,1.55,1.32,3.25-.3,3.25h-.41c-1.61,0-1.77,1.71-.3,3.25l.38.39c1.47,1.55,1.31,3.25-.31,3.25H98c-1.61,0-1.77,1.71-.3,3.25l.38.4a3,3,0,0,1,1,2.27l.7.41,5.87-63.25Z" style="fill:#f0f0f0"></path><path d="M22.3,379.77l22.15,12.75L99.8,424.37l.09-1a4.4,4.4,0,0,1-.49-.8l-.2-.44c-.8-1.72-3-3-4.14-2.38l-.3.15c-1.18.59-3.35-.66-4.14-2.38l-.21-.44c-.79-1.72-3-3-4.14-2.38l-.3.15c-1.17.59-3.35-.66-4.14-2.39l-.2-.44c-.8-1.72-3-3-4.14-2.38l-.3.15c-1.18.59-3.35-.66-4.15-2.38l-.2-.44c-.79-1.73-3-3-4.14-2.38l-.3.15c-1.17.59-3.35-.66-4.14-2.39l-.2-.44c-.8-1.72-3-3-4.15-2.38l-.29.15c-1.18.59-3.35-.66-4.15-2.38l-.2-.44c-.79-1.73-3-3-4.14-2.39l-.3.15c-1.18.6-3.35-.65-4.14-2.38l-.2-.44c-.8-1.72-3-3-4.15-2.38l-.3.15c-1.17.59-3.34-.66-4.14-2.38l-.2-.44c-.79-1.73-3-3-4.14-2.39l-.3.15c-1.18.59-3.35-.65-4.14-2.38l-.21-.44c-.79-1.72-3-3-4.14-2.38l-.3.15a2.39,2.39,0,0,1-2.12-.28Z" style="fill:#f0f0f0"></path><path d="M28.11,317.09A4.82,4.82,0,0,1,30,319.14l.2.44c.79,1.72,3,3,4.14,2.38l.3-.15c1.18-.59,3.35.66,4.14,2.38l.2.44c.8,1.73,3,3,4.15,2.38l.3-.15c1.17-.59,3.34.66,4.14,2.39l.2.44c.79,1.72,3,3,4.14,2.38l.3-.15c1.18-.59,3.35.66,4.14,2.38l.21.44c.79,1.73,3,3,4.14,2.38L61,337c1.17-.59,3.35.66,4.14,2.39l.2.44c.8,1.72,3,3,4.14,2.38l.3-.15c1.18-.59,3.35.66,4.15,2.38l.2.44c.79,1.72,3,3,4.14,2.38l.3-.15c1.18-.59,3.35.66,4.14,2.39l.2.44c.8,1.72,3,3,4.15,2.38l.3-.15c1.17-.59,3.34.66,4.14,2.38l.2.44c.79,1.72,3,3,4.14,2.38l.3-.15c1.18-.59,3.35.66,4.14,2.39l.21.44c.79,1.72,3,3,4.14,2.38l.3-.15a1.37,1.37,0,0,1,.61-.14l.1-1L28.16,316.53Z" style="fill:#f0f0f0"></path><path d="M23,380.18a1.16,1.16,0,0,1,1.32-1.12h.41c1.61,0,1.77-1.71.3-3.25l-.38-.39c-1.47-1.55-1.31-3.25.31-3.25h.41c1.61,0,1.77-1.71.3-3.25l-.38-.39c-1.47-1.55-1.31-3.25.3-3.25H26c1.62,0,1.78-1.71.31-3.25l-.38-.4c-1.47-1.54-1.31-3.24.3-3.25h.41c1.62,0,1.78-1.7.3-3.24l-.37-.4c-1.47-1.54-1.31-3.25.3-3.25h.41c1.62,0,1.77-1.7.3-3.25l-.37-.39c-1.47-1.54-1.32-3.25.3-3.25h.41c1.62,0,1.77-1.7.3-3.25l-.37-.39c-1.48-1.54-1.32-3.25.3-3.25h.41c1.61,0,1.77-1.7.3-3.25l-.37-.39c-1.48-1.55-1.32-3.25.3-3.25h.41c1.61,0,1.77-1.7.3-3.25l-.38-.39c-1.47-1.55-1.31-3.25.3-3.25h.42c1.61,0,1.77-1.71.3-3.25l-.38-.39c-1.2-1.26-1.31-2.63-.44-3.09l-1.16-.67L22.3,379.77l.63.37Z" style="fill:#f0f0f0"></path><path d="M24.39,377.88a.92.92,0,0,1-.55-.73c0-.25.31-.31.63-.15a.88.88,0,0,1,.55.74C25,378,24.72,378.05,24.39,377.88Z" style="fill:#455a64"></path><path d="M25,371a.92.92,0,0,1-.55-.74c0-.24.31-.31.63-.14s.58.49.55.73S25.36,371.15,25,371Z" style="fill:#455a64"></path><path d="M25.67,364.08a.92.92,0,0,1-.55-.74c0-.24.31-.31.63-.14s.58.49.55.73S26,364.24,25.67,364.08Z" style="fill:#455a64"></path><path d="M26.31,357.18a.92.92,0,0,1-.55-.74c0-.24.31-.31.63-.15s.58.5.55.74S26.64,357.34,26.31,357.18Z" style="fill:#455a64"></path><path d="M27,350.28a1,1,0,0,1-.55-.74c0-.24.31-.31.63-.15a.89.89,0,0,1,.55.74C27.56,350.37,27.28,350.44,27,350.28Z" style="fill:#455a64"></path><path d="M27.59,343.38a1,1,0,0,1-.55-.74c0-.25.31-.31.63-.15a.88.88,0,0,1,.55.74C28.2,343.47,27.92,343.54,27.59,343.38Z" style="fill:#455a64"></path><path d="M28.23,336.47a.92.92,0,0,1-.55-.73c0-.25.31-.31.63-.15a.88.88,0,0,1,.55.74C28.84,336.57,28.56,336.64,28.23,336.47Z" style="fill:#455a64"></path><path d="M28.87,329.57a.92.92,0,0,1-.55-.73c0-.25.31-.32.63-.15a.88.88,0,0,1,.55.74C29.48,329.67,29.2,329.74,28.87,329.57Z" style="fill:#455a64"></path><path d="M29.51,322.67a.92.92,0,0,1-.55-.74c0-.24.31-.31.63-.14s.58.49.55.73S29.84,322.83,29.51,322.67Z" style="fill:#455a64"></path><path d="M98.25,420.16a1,1,0,0,1-.55-.74c0-.25.31-.31.63-.15a.9.9,0,0,1,.55.74C98.86,420.25,98.58,420.32,98.25,420.16Z" style="fill:#455a64"></path><path d="M98.89,413.26a1,1,0,0,1-.55-.74c0-.25.31-.31.63-.15a.88.88,0,0,1,.55.74C99.5,413.35,99.22,413.42,98.89,413.26Z" style="fill:#455a64"></path><path d="M99.53,406.35a.92.92,0,0,1-.55-.73c0-.25.31-.31.63-.15a.9.9,0,0,1,.55.74C100.14,406.45,99.86,406.52,99.53,406.35Z" style="fill:#455a64"></path><path d="M100.17,399.45a.92.92,0,0,1-.55-.74c0-.24.31-.31.63-.14a.9.9,0,0,1,.55.73C100.78,399.55,100.5,399.61,100.17,399.45Z" style="fill:#455a64"></path><path d="M100.81,392.55a.92.92,0,0,1-.55-.74c0-.24.31-.31.63-.15a.93.93,0,0,1,.55.74C101.42,392.65,101.14,392.71,100.81,392.55Z" style="fill:#455a64"></path><path d="M101.45,385.65a.92.92,0,0,1-.55-.74c0-.24.31-.31.63-.15a.93.93,0,0,1,.55.74C102.06,385.75,101.78,385.81,101.45,385.65Z" style="fill:#455a64"></path><path d="M102.09,378.75a1,1,0,0,1-.55-.74c0-.24.31-.31.63-.15a.9.9,0,0,1,.55.74C102.7,378.84,102.42,378.91,102.09,378.75Z" style="fill:#455a64"></path><path d="M102.73,371.85a1,1,0,0,1-.55-.74c0-.25.31-.31.63-.15a.9.9,0,0,1,.55.74C103.34,371.94,103.06,372,102.73,371.85Z" style="fill:#455a64"></path><path d="M103.37,364.94a.92.92,0,0,1-.55-.73c0-.25.31-.31.63-.15a.9.9,0,0,1,.55.74C104,365,103.7,365.11,103.37,364.94Z" style="fill:#455a64"></path><path d="M102.77,361.37a.9.9,0,0,1-.55-.74c0-.24.31-.31.63-.15a.93.93,0,0,1,.55.74C103.38,361.47,103.1,361.53,102.77,361.37Z" style="fill:#455a64"></path><path d="M94,356.33a.93.93,0,0,1-.55-.74c0-.25.31-.31.63-.15a.9.9,0,0,1,.55.74C94.6,356.42,94.31,356.49,94,356.33Z" style="fill:#455a64"></path><path d="M85.21,351.28a.9.9,0,0,1-.55-.74c0-.24.3-.31.63-.14a.9.9,0,0,1,.55.73C85.82,351.38,85.53,351.44,85.21,351.28Z" style="fill:#455a64"></path><path d="M76.43,346.24a.93.93,0,0,1-.55-.74c0-.24.3-.31.63-.15a.93.93,0,0,1,.55.74C77,346.33,76.75,346.4,76.43,346.24Z" style="fill:#455a64"></path><path d="M67.65,341.19c-.33-.16-.58-.49-.55-.73s.3-.31.63-.15a.92.92,0,0,1,.55.74C68.25,341.29,68,341.36,67.65,341.19Z" style="fill:#455a64"></path><path d="M58.86,336.15a.89.89,0,0,1-.54-.74c0-.24.3-.31.63-.15a1,1,0,0,1,.55.74C59.47,336.25,59.19,336.31,58.86,336.15Z" style="fill:#455a64"></path><path d="M50.08,331.1a.92.92,0,0,1-.55-.73c0-.25.31-.31.64-.15a.89.89,0,0,1,.54.74C50.69,331.2,50.41,331.27,50.08,331.1Z" style="fill:#455a64"></path><path d="M41.3,326.06a.92.92,0,0,1-.55-.74c0-.24.31-.31.63-.14s.58.49.55.73S41.63,326.22,41.3,326.06Z" style="fill:#455a64"></path><path d="M32.52,321a1,1,0,0,1-.55-.74c0-.25.31-.31.63-.15a.9.9,0,0,1,.55.74C33.13,321.11,32.85,321.18,32.52,321Z" style="fill:#455a64"></path><path d="M96.89,421.74a.89.89,0,0,1-.54-.74c0-.24.3-.31.63-.15a1,1,0,0,1,.55.74C97.5,421.84,97.22,421.9,96.89,421.74Z" style="fill:#455a64"></path><path d="M88.11,416.69a.89.89,0,0,1-.54-.73c0-.25.3-.31.63-.15a.89.89,0,0,1,.54.74C88.72,416.79,88.44,416.86,88.11,416.69Z" style="fill:#455a64"></path><path d="M79.33,411.65a.92.92,0,0,1-.55-.74c0-.24.31-.31.63-.15s.58.5.55.74S79.66,411.81,79.33,411.65Z" style="fill:#455a64"></path><path d="M70.55,406.61a1,1,0,0,1-.55-.74c0-.25.31-.31.63-.15a.9.9,0,0,1,.55.74C71.16,406.7,70.88,406.77,70.55,406.61Z" style="fill:#455a64"></path><path d="M61.77,401.56a.9.9,0,0,1-.55-.74c0-.24.31-.31.63-.14a.9.9,0,0,1,.55.73C62.38,401.66,62.1,401.72,61.77,401.56Z" style="fill:#455a64"></path><path d="M53,396.52a.93.93,0,0,1-.55-.74c0-.24.31-.31.63-.15a.9.9,0,0,1,.55.74C53.6,396.61,53.32,396.68,53,396.52Z" style="fill:#455a64"></path><path d="M44.21,391.47a.9.9,0,0,1-.55-.73c0-.25.3-.32.63-.15a.9.9,0,0,1,.55.74C44.82,391.57,44.53,391.64,44.21,391.47Z" style="fill:#455a64"></path><path d="M35.43,386.43a.9.9,0,0,1-.55-.74c0-.24.3-.31.63-.15a.93.93,0,0,1,.55.74C36,386.53,35.75,386.59,35.43,386.43Z" style="fill:#455a64"></path><path d="M26.65,381.38c-.33-.16-.58-.49-.55-.73s.3-.31.63-.15a.92.92,0,0,1,.55.74C27.25,381.48,27,381.55,26.65,381.38Z" style="fill:#455a64"></path><polygon points="71.09 398.56 75.7 348.89 72 346.77 67.4 396.44 71.09 398.56" style="fill:#e0e0e0"></polygon><polygon points="35.03 377.92 39.63 328.25 35.94 326.13 31.34 375.8 35.03 377.92" style="fill:#e0e0e0"></polygon></g></g></svg>
