<svg xmlns="http://www.w3.org/2000/svg" xmlns:xlink="http://www.w3.org/1999/xlink" viewBox="0 0 500 500"><defs><clipPath id="freepik--clip-path--inject-178"><rect x="143.55" y="164.36" width="12.13" height="11.61" style="fill:#6C63FF"></rect></clipPath><clipPath id="freepik--clip-path-2--inject-178"><path d="M364.4,50.86a45.8,45.8,0,0,0-52.69,68.19,12.5,12.5,0,0,1,1.9,6.87l-.08,6.88,42.85,14.47,4.19-5.63a12.2,12.2,0,0,1,5.53-4.16,45.81,45.81,0,0,0-1.7-86.62Z" style="fill:#fff;stroke:#263238;stroke-linecap:round;stroke-linejoin:round"></path></clipPath><clipPath id="freepik--clip-path-3--inject-178"><polygon points="340.04 178.53 307.57 167.56 313 138.73 353.21 152.31 340.04 178.53" style="fill:#999;stroke:#263238;stroke-linecap:round;stroke-linejoin:round"></polygon></clipPath><clipPath id="freepik--clip-path-4--inject-178"><path d="M310,152.9a1.22,1.22,0,0,1,.7-2.34l38,9.78a1.24,1.24,0,0,1,.88,1.49,1.22,1.22,0,0,1-1.49.88l-38-9.78Z" style="fill:#bfbfbf;stroke:#263238;stroke-linecap:round;stroke-linejoin:round"></path></clipPath><clipPath id="freepik--clip-path-5--inject-178"><path d="M309.08,157.59a1.22,1.22,0,0,1-.8-1.47,1.24,1.24,0,0,1,1.49-.88l36.71,9.45a1.23,1.23,0,0,1,.88,1.49,1.22,1.22,0,0,1-1.49.88l-36.71-9.45Z" style="fill:#bfbfbf;stroke:#263238;stroke-linecap:round;stroke-linejoin:round"></path></clipPath><clipPath id="freepik--clip-path-6--inject-178"><path d="M308.2,162.28a1.23,1.23,0,0,1,.7-2.35l35.4,9.12a1.22,1.22,0,1,1-.61,2.37l-35.4-9.12Z" style="fill:#bfbfbf;stroke:#263238;stroke-linecap:round;stroke-linejoin:round"></path></clipPath><clipPath id="freepik--clip-path-7--inject-178"><path d="M307.32,167a1.22,1.22,0,0,1,.7-2.34l34.1,8.78a1.22,1.22,0,1,1-.61,2.37L307.41,167Z" style="fill:#bfbfbf;stroke:#263238;stroke-linecap:round;stroke-linejoin:round"></path></clipPath><clipPath id="freepik--clip-path-8--inject-178"><polygon points="360.62 145.14 354.55 158.92 350.81 160.16 310.15 146.42 307.93 143.17 311.46 128.53 313.1 126.58 360.5 142.59 360.62 145.14" style="fill:#6C63FF;stroke:#263238;stroke-linecap:round;stroke-linejoin:round"></polygon></clipPath></defs><g id="freepik--background-simple--inject-178"><path d="M57.69,210.22s-23,58.81,10.79,105,91.14,44.93,135.62,59.46c23.3,7.61,37.74,28.36,57.87,41,64.39,40.38,161.1-16.19,183.24-81.52,19.16-56.56,5.84-109.48-39.94-164.79s-75.78-96.22-158-104.87S90.54,135.6,57.69,210.22Z" style="fill:#6C63FF"></path><path d="M57.69,210.22s-23,58.81,10.79,105,91.14,44.93,135.62,59.46c23.3,7.61,37.74,28.36,57.87,41,64.39,40.38,161.1-16.19,183.24-81.52,19.16-56.56,5.84-109.48-39.94-164.79s-75.78-96.22-158-104.87S90.54,135.6,57.69,210.22Z" style="fill:#fff;opacity:0.8"></path></g><g id="freepik--device-3--inject-178"><path d="M398.15,396.83s-6.06-5.53-21.22.3c-6.65,2.56-12.45,8.53-12.82,15.95-.35,6.94,5.66,9.57,11.74,9,8-.78,11.8-6.91,18.22-10.65C401.07,407.33,402.23,400.91,398.15,396.83Z" style="fill:gray;stroke:#263238;stroke-linecap:round;stroke-linejoin:round"></path><path d="M388,407.1c-5.63,3.26-8.55,11.69-9.38,14.45,6.2-1.74,9.84-6.86,15.47-10.14,4-2.33,6.08-5.43,6.38-8.41A35,35,0,0,0,388,407.1Z" style="fill:#263238;stroke:#263238;stroke-linecap:round;stroke-linejoin:round"></path></g><g id="freepik--device-2--inject-178"><path d="M323.82,331.76l6.23,23.42a2.41,2.41,0,0,1-1.22,2.7l-21.79,9,.41,1.75,37.11,8.86,17.64-13.45a2.43,2.43,0,0,0,.76-2.93l-12.32-27.61Z" style="fill:gray;stroke:#263238;stroke-linecap:round;stroke-linejoin:round"></path><path d="M321.62,329.57,327.85,353a2.43,2.43,0,0,1-1.21,2.71L307,366.89l37.32,8.75,16.52-12.26a2.4,2.4,0,0,0,.76-2.92l-13.19-29.14Z" style="fill:#ababab;stroke:#263238;stroke-linecap:round;stroke-linejoin:round"></path><line x1="355.13" y1="361.17" x2="357.57" y2="361.75" style="fill:none;stroke:#263238;stroke-linecap:round;stroke-linejoin:round"></line><line x1="330.05" y1="355.18" x2="351.42" y2="360.28" style="fill:none;stroke:#263238;stroke-linecap:round;stroke-linejoin:round"></line><polygon points="348.45 331.32 321.62 329.57 324.35 340.56 356.07 348.15 348.45 331.32" style="fill:#263238;stroke:#263238;stroke-linecap:round;stroke-linejoin:round"></polygon><path d="M166.61,376.45l-21.32-3.92a3.58,3.58,0,0,1-1.21-6.57l56.23-34.08a11.53,11.53,0,0,1,8.7-1.34l94.72,23a5.66,5.66,0,0,0,7-5.73L310,329.42" style="fill:none;stroke:#263238;stroke-linecap:round;stroke-linejoin:round"></path><line x1="175.34" y1="378.06" x2="166.61" y2="376.45" style="fill:none;stroke:#263238;stroke-linecap:round;stroke-linejoin:round;stroke-width:2px"></line><path d="M288.6,221.58l120.34,19.56a7.13,7.13,0,0,1,5.89,8l-15.9,97.93a6.14,6.14,0,0,1-7.65,5l-118.77-28.4a7.13,7.13,0,0,1-5.4-7.91l14.33-89.1A6.11,6.11,0,0,1,288.6,221.58Z" style="fill:gray;stroke:#263238;stroke-linecap:round;stroke-linejoin:round"></path><polygon points="289.5 228.62 406.89 247.71 391 345.59 275.15 317.89 289.5 228.62" style="fill:#263238;stroke:#263238;stroke-linecap:round;stroke-linejoin:round"></polygon></g><g id="freepik--device-1--inject-178"><path d="M269.85,471.59l-158-37.95c-4.25-1-5.36-3.6-2.48-5.77l66-49.81c2.88-2.17,8.65-3.1,12.9-2.08l158,37.94c4.25,1,5.36,3.61,2.49,5.78l-66,49.8C279.88,471.67,274.1,472.61,269.85,471.59Z" style="fill:gray;stroke:#263238;stroke-linecap:round;stroke-linejoin:round"></path><polygon points="112.68 425.34 271.11 463.38 330.43 418.62 172 380.58 112.68 425.34" style="fill:gray;stroke:#263238;stroke-linecap:round;stroke-linejoin:round"></polygon><polygon points="144.85 433.07 271.11 463.38 330.43 418.62 204.17 388.31 144.85 433.07" style="fill:#263238;stroke:#263238;stroke-linecap:round;stroke-linejoin:round"></polygon><path d="M167.19,408.93c3.23-2.44,2-5.35-2.79-6.49s-11.27-.1-14.5,2.34-2,5.34,2.79,6.49S164,411.37,167.19,408.93Z" style="fill:gray;stroke:#263238;stroke-linecap:round;stroke-linejoin:round"></path><path d="M163.21,408c1.74-1.31,1.07-2.88-1.51-3.5s-6.08-.05-7.82,1.26-1.07,2.89,1.51,3.51S161.46,409.29,163.21,408Z" style="fill:#263238;stroke:#263238;stroke-linecap:round;stroke-linejoin:round"></path><polygon points="185.5 390.35 177.43 388.41 180.95 385.76 189.02 387.7 185.5 390.35" style="fill:gray;stroke:#263238;stroke-linecap:round;stroke-linejoin:round"></polygon><polygon points="180.24 394.32 172.16 392.39 175.68 389.74 183.75 391.68 180.24 394.32" style="fill:gray;stroke:#263238;stroke-linecap:round;stroke-linejoin:round"></polygon><polygon points="174.97 398.3 166.9 396.36 170.41 393.71 178.48 395.65 174.97 398.3" style="fill:gray;stroke:#263238;stroke-linecap:round;stroke-linejoin:round"></polygon><polygon points="169.7 402.28 161.63 400.34 165.14 397.69 173.21 399.63 169.7 402.28" style="fill:gray;stroke:#263238;stroke-linecap:round;stroke-linejoin:round"></polygon><polygon points="151.12 416.29 143.05 414.36 146.56 411.71 154.63 413.64 151.12 416.29" style="fill:gray;stroke:#263238;stroke-linecap:round;stroke-linejoin:round"></polygon><polygon points="145.85 420.27 137.78 418.33 141.3 415.68 149.37 417.62 145.85 420.27" style="fill:gray;stroke:#263238;stroke-linecap:round;stroke-linejoin:round"></polygon><polygon points="140.59 424.25 132.51 422.31 136.03 419.66 144.1 421.6 140.59 424.25" style="fill:gray;stroke:#263238;stroke-linecap:round;stroke-linejoin:round"></polygon><polygon points="135.32 428.22 127.25 426.28 130.76 423.63 138.83 425.57 135.32 428.22" style="fill:gray;stroke:#263238;stroke-linecap:round;stroke-linejoin:round"></polygon></g><g id="freepik--light-bulb--inject-178"><path d="M364.4,50.86a45.8,45.8,0,0,0-52.69,68.19,12.5,12.5,0,0,1,1.9,6.87l-.08,6.88,42.85,14.47,4.19-5.63a12.2,12.2,0,0,1,5.53-4.16,45.81,45.81,0,0,0-1.7-86.62Z" style="fill:#fff"></path><g style="clip-path:url(#freepik--clip-path-2--inject-178)"><path d="M325.6,132.89c-.34,1.1-.55,1.71-.55,1.71" style="fill:none;stroke:#263238;stroke-linecap:round;stroke-linejoin:round"></path><path d="M329,119.26c-.79,4.12-1.74,7.82-2.52,10.55" style="fill:none;stroke:#263238;stroke-linecap:round;stroke-linejoin:round"></path><path d="M332.62,95.92l-3.05-1c1.54,5.84,1.22,13.07.25,19.76" style="fill:none;stroke:#263238;stroke-linecap:round;stroke-linejoin:round"></path><polyline points="339.1 96.72 338.33 97.85 333.65 96.27" style="fill:none;stroke:#263238;stroke-linecap:round;stroke-linejoin:round"></polyline><polyline points="341.25 101.4 340.39 102.63 340.42 94.81 339.61 95.98" style="fill:none;stroke:#263238;stroke-linecap:round;stroke-linejoin:round"></polyline><polyline points="346.65 101.38 344.7 104.09 344.83 96.3 342.23 100.01" style="fill:none;stroke:#263238;stroke-linecap:round;stroke-linejoin:round"></polyline><polyline points="353.5 102.8 353.64 99.28 349.01 105.55 349.23 97.79 347.91 99.63" style="fill:none;stroke:#263238;stroke-linecap:round;stroke-linejoin:round"></polyline><polyline points="359.25 104.92 357.87 104.45 358.05 100.77 353.32 107 353.44 104.23" style="fill:none;stroke:#263238;stroke-linecap:round;stroke-linejoin:round"></polyline><path d="M356.2,119.94c3-4.85,6.47-9.46,10.42-12.53l-5.92-2" style="fill:none;stroke:#263238;stroke-linecap:round;stroke-linejoin:round"></path><path d="M352.58,126.49c.81-1.61,1.7-3.26,2.64-4.9" style="fill:none;stroke:#263238;stroke-linecap:round;stroke-linejoin:round"></path><path d="M348.91,134.46c.72-1.72,1.57-3.65,2.55-5.69" style="fill:none;stroke:#263238;stroke-linecap:round;stroke-linejoin:round"></path><path d="M347.42,138.17c.17-.45.37-.94.57-1.47" style="fill:none;stroke:#263238;stroke-linecap:round;stroke-linejoin:round"></path><path d="M346.13,141.73s.27-.83.79-2.23" style="fill:none;stroke:#263238;stroke-linecap:round;stroke-linejoin:round"></path><path d="M364.4,50.86a45.8,45.8,0,0,0-52.69,68.19,12.5,12.5,0,0,1,1.9,6.87l-.08,6.88,42.85,14.47,4.19-5.63a12.2,12.2,0,0,1,5.53-4.16,45.81,45.81,0,0,0-1.7-86.62ZM341,122.1a35.07,35.07,0,1,1,44.44-22A35.07,35.07,0,0,1,341,122.1Z" style="fill:#6C63FF;opacity:0.2"></path></g><path d="M364.4,50.86a45.8,45.8,0,0,0-52.69,68.19,12.5,12.5,0,0,1,1.9,6.87l-.08,6.88,42.85,14.47,4.19-5.63a12.2,12.2,0,0,1,5.53-4.16,45.81,45.81,0,0,0-1.7-86.62Z" style="fill:none;stroke:#263238;stroke-linecap:round;stroke-linejoin:round"></path><path d="M325.88,183.45l-10-3.39a1.52,1.52,0,0,1-1-1.12l-.62-3.17-4.66-5.32,27.13,9.17-6.93,1.4-2.42,2.14A1.51,1.51,0,0,1,325.88,183.45Z" style="fill:#263238;stroke:#263238;stroke-linecap:round;stroke-linejoin:round"></path><path d="M340,178.53l-32.47-11h0a7.46,7.46,0,0,0,5,6.14l19.74,6.67a7.47,7.47,0,0,0,7.71-1.84Z" style="fill:#757575;stroke:#263238;stroke-linecap:round;stroke-linejoin:round"></path><polygon points="340.04 178.53 307.57 167.56 313 138.73 353.21 152.31 340.04 178.53" style="fill:#999"></polygon><g style="clip-path:url(#freepik--clip-path-3--inject-178)"><polygon points="312.3 159.06 311.58 162.34 341.02 169.8 342.49 166.66 312.3 159.06" style="fill:#fff;opacity:0.4"></polygon><path d="M320.36,170.82l2.86,1,.65.22,11.47,3.87a2.89,2.89,0,0,0,2.84-.58Z" style="fill:#fff;opacity:0.4"></path><path d="M311.28,163.73,311,165a2.87,2.87,0,0,0,.38,2.15l27.6,7,1.43-3Z" style="fill:#fff;opacity:0.4"></path><polygon points="345.09 161.1 345.53 160.15 329.69 154.79 329.04 154.57 314.35 149.61 313.59 153.11 345.09 161.1" style="fill:#fff;opacity:0.4"></polygon><polygon points="313.29 154.5 312.6 157.67 343.07 165.4 344.5 162.36 313.29 154.5" style="fill:#fff;opacity:0.4"></polygon></g><polygon points="340.04 178.53 307.57 167.56 313 138.73 353.21 152.31 340.04 178.53" style="fill:none;stroke:#263238;stroke-linecap:round;stroke-linejoin:round"></polygon><path d="M310,152.9a1.22,1.22,0,0,1,.7-2.34l38,9.78a1.24,1.24,0,0,1,.88,1.49,1.22,1.22,0,0,1-1.49.88l-38-9.78Z" style="fill:#bfbfbf"></path><g style="clip-path:url(#freepik--clip-path-4--inject-178)"><g style="opacity:0.4"><path d="M349.56,161.34a1.18,1.18,0,0,1-1.15.3l-38-9.78-.08,0a1.22,1.22,0,0,1-.82-1,1.23,1.23,0,0,1,1.15-.3l38,9.79A1.24,1.24,0,0,1,349.56,161.34Z" style="fill:#fff"></path></g></g><path d="M310,152.9a1.22,1.22,0,0,1,.7-2.34l38,9.78a1.24,1.24,0,0,1,.88,1.49,1.22,1.22,0,0,1-1.49.88l-38-9.78Z" style="fill:none;stroke:#263238;stroke-linecap:round;stroke-linejoin:round"></path><path d="M309.08,157.59a1.22,1.22,0,0,1-.8-1.47,1.24,1.24,0,0,1,1.49-.88l36.71,9.45a1.23,1.23,0,0,1,.88,1.49,1.22,1.22,0,0,1-1.49.88l-36.71-9.45Z" style="fill:#bfbfbf"></path><g style="clip-path:url(#freepik--clip-path-5--inject-178)"><g style="opacity:0.4"><path d="M347.38,165.69a1.2,1.2,0,0,1-1.15.3l-36.7-9.45-.09,0a1.22,1.22,0,0,1-.82-1,1.18,1.18,0,0,1,1.15-.3l36.71,9.44A1.22,1.22,0,0,1,347.38,165.69Z" style="fill:#fff"></path></g></g><path d="M309.08,157.59a1.22,1.22,0,0,1-.8-1.47,1.24,1.24,0,0,1,1.49-.88l36.71,9.45a1.23,1.23,0,0,1,.88,1.49,1.22,1.22,0,0,1-1.49.88l-36.71-9.45Z" style="fill:none;stroke:#263238;stroke-linecap:round;stroke-linejoin:round"></path><path d="M308.2,162.28a1.23,1.23,0,0,1,.7-2.35l35.4,9.12a1.22,1.22,0,1,1-.61,2.37l-35.4-9.12Z" style="fill:#bfbfbf"></path><g style="clip-path:url(#freepik--clip-path-6--inject-178)"><g style="opacity:0.4"><path d="M345.2,170.05a1.22,1.22,0,0,1-1.15.3l-35.4-9.12-.09,0a.73.73,0,1,1,.34-1.28l35.4,9.12A1.22,1.22,0,0,1,345.2,170.05Z" style="fill:#fff"></path></g></g><path d="M308.2,162.28a1.23,1.23,0,0,1,.7-2.35l35.4,9.12a1.22,1.22,0,1,1-.61,2.37l-35.4-9.12Z" style="fill:none;stroke:#263238;stroke-linecap:round;stroke-linejoin:round"></path><path d="M307.32,167a1.22,1.22,0,0,1,.7-2.34l34.1,8.78a1.22,1.22,0,1,1-.61,2.37L307.41,167Z" style="fill:#bfbfbf"></path><g style="clip-path:url(#freepik--clip-path-7--inject-178)"><g style="opacity:0.4"><path d="M343,174.4a1.23,1.23,0,0,1-1.15.3l-34.11-8.78-.09,0a.73.73,0,1,1,.34-1.27l34.1,8.78A1.23,1.23,0,0,1,343,174.4Z" style="fill:#fff"></path></g></g><path d="M307.32,167a1.22,1.22,0,0,1,.7-2.34l34.1,8.78a1.22,1.22,0,1,1-.61,2.37L307.41,167Z" style="fill:none;stroke:#263238;stroke-linecap:round;stroke-linejoin:round"></path><polygon points="360.62 145.14 354.55 158.92 350.81 160.16 310.15 146.42 307.93 143.17 311.46 128.53 313.1 126.58 360.5 142.59 360.62 145.14" style="fill:#6C63FF"></polygon><g style="clip-path:url(#freepik--clip-path-8--inject-178)"><polygon points="354.55 158.92 350.81 160.16 310.15 146.42 307.93 143.17 354.55 158.92" style="fill-opacity:0.7000000000000001;opacity:0.2"></polygon><polygon points="360.62 145.14 311.46 128.53 313.1 126.58 360.5 142.59 360.62 145.14" style="fill:#fff;opacity:0.4"></polygon></g><polygon points="360.62 145.14 354.55 158.92 350.81 160.16 310.15 146.42 307.93 143.17 311.46 128.53 313.1 126.58 360.5 142.59 360.62 145.14" style="fill:none;stroke:#263238;stroke-linecap:round;stroke-linejoin:round"></polygon><line x1="311.46" y1="128.53" x2="329.67" y2="134.68" style="fill:none;stroke:#263238;stroke-linecap:round;stroke-linejoin:round"></line><line x1="332.52" y1="135.65" x2="337.1" y2="137.2" style="fill:none;stroke:#263238;stroke-linecap:round;stroke-linejoin:round"></line><line x1="340.37" y1="138.3" x2="341.38" y2="138.64" style="fill:none;stroke:#263238;stroke-linecap:round;stroke-linejoin:round"></line><line x1="360.62" y1="145.14" x2="356.14" y2="143.63" style="fill:none;stroke:#263238;stroke-linecap:round;stroke-linejoin:round"></line><line x1="354.55" y1="158.92" x2="336.58" y2="152.85" style="fill:none;stroke:#263238;stroke-linecap:round;stroke-linejoin:round"></line><line x1="333.63" y1="151.85" x2="327.72" y2="149.85" style="fill:none;stroke:#263238;stroke-linecap:round;stroke-linejoin:round"></line><line x1="323.13" y1="148.31" x2="321.91" y2="147.89" style="fill:none;stroke:#263238;stroke-linecap:round;stroke-linejoin:round"></line><line x1="307.93" y1="143.17" x2="312.81" y2="144.82" style="fill:none;stroke:#263238;stroke-linecap:round;stroke-linejoin:round"></line><path d="M313.13,170.18c1.17,2.12,4.84,4.58,9.56,6.18s9.12,1.86,11.34.88Z" style="fill:#fff;opacity:0.4"></path><path d="M323.26,181.87l-4.38-1.48a.74.74,0,0,1-.51-.71l0-2.09,7,2.35-1.25,1.67A.74.74,0,0,1,323.26,181.87Z" style="fill:#fff;opacity:0.2"></path><polygon points="318.65 176.84 325.61 179.19 326.58 178.86 318.07 175.99 318.65 176.84" style="fill:#fff;opacity:0.2"></polygon></g><g id="freepik--Character--inject-178"><path d="M300,350s.69-15.19-19.67-20c-17-4-51.07-1-71.43,7.94s-32.1,17.6-32.79,24.16,13.81,5.86,17.6,3.1-4.14-5.17,2.07-12.08,42.45-18.63,61.78-20,33.47,7.59,34.16,17.6" style="fill:#6C63FF"></path><path d="M300,350s.69-15.19-19.67-20c-17-4-51.07-1-71.43,7.94s-32.1,17.6-32.79,24.16,13.81,5.86,17.6,3.1-4.14-5.17,2.07-12.08,42.45-18.63,61.78-20,33.47,7.59,34.16,17.6" style="fill:#fff;opacity:0.4"></path><path d="M238.89,303l27.61,4.83s-8.28,3.79-12.08,10-5.52,16.57-7.25,20.37-10.35,19.67-10.35,19.67l-.34,25.53s7.59-24.84,10.69-29,35.89-34.85,40.38-41.41,9-12.08,6.9-17.6S272,275.75,266.5,273s-29.33,5.52-34.51,15.19S238.89,303,238.89,303Z" style="fill:#fff;stroke:#263238;stroke-linecap:round;stroke-linejoin:round"></path><path d="M202.31,296.11s4.49,27.27,9.66,39.34,9.67,19.33,8.63,26.23-5.87,13.81-2.41,25.54,8.28,29.33,9.31,34.16c.52,2.41.86,4.3,1.08,5.59a3.3,3.3,0,0,0,2.63,2.69c2.36.48,5.93.53,7.68-2.76,0,0,.69-55.9.69-67.63s1.38-20.71,1.38-30,.69-33.47.69-33.47-16.91-9.66-29-8.63S202.31,296.11,202.31,296.11Z" style="fill:#fff;stroke:#263238;stroke-linecap:round;stroke-linejoin:round"></path><path d="M237.68,176.36s6.51-5.47,11.72-9.11,15.61-23.17,15.87-24.73,1.05-8.33,1.05-8.33S261.63,92,261.37,85.77s-1.82-22.12-1.82-25.25,7-16.39,8.33-19,6.24-9.63,6.51-7.29-1.57,3.91-2.35,5-1.82,8.33-1.82,8.33,2.08-2.6,2.86-3.64,4.35-1.23,1.57,3.9c-1.07,2-2.41,4.29-2.91,5.21-1.81,3.36-1.8,5.42-3.36,7.76A21.6,21.6,0,0,1,264.49,65s9.63,31.24,10.94,39.56,7.81,30.46,7.28,34.88-13,25.51-18.22,34.36-13.79,18.49-14.31,21.09-3.65,5.2-9.89,2.34S233,183.65,237.68,176.36Z" style="fill:#fff;stroke:#263238;stroke-linecap:round;stroke-linejoin:round"></path><path d="M206.28,130.92s-11.48-6.09-18.74-4.68-7.73,8.9-4,15,15,11,21.08,4.45S206.28,130.92,206.28,130.92Z" style="fill:#263238;stroke:#263238;stroke-linecap:round;stroke-linejoin:round"></path><path d="M254.08,181.56l-.26,10.94s3.91,10.93,4.95,18-6.51,23.16-6.51,23.16l-.78,5.47s2.34,7.81-14.58,10.15S215,244.56,215,244.56l-9.37-30.2-4.17-8.07s-26.29,7.55-31,7.81a272.91,272.91,0,0,1-32.66-1.45c-10.34-1.2-35.28-3-35.28-3a13.42,13.42,0,0,1-3.39,1.82,29.53,29.53,0,0,0-6.5,3.38,68.44,68.44,0,0,1-6,5.47c-1.82,1.3-4.69,0-3.64-.78s5.46-6,4.68-5.47-8.85,6-9.63,7-.52,4.68-2.34,5.2-.78-3.9-.52-6,6.24-8.07,9.63-10.41,10.15-5.47,14-5.21,19,1,25.77,0,40.09-1.82,40.09-1.82,3.9-1.3,7.29-2.61,20.56-6.76,25.25-9.63,24.2-6,24.2-6-.35-9.57-.35-15-7.37-8.2-12.8-12c-6.32-4.45-10.21-17.27-5.39-25.3,3.52-5.86,7.74-7.5,7.74-7.5s11.47-4.92,21.08-2.58,12.88,8,14.76,11.72,8.9,5.62,9.13,6.56-1.64,4.68-2.34,5.15,3.75,11.95,3.05,14.06-1.64,3.28-4.45,4-13.83,2.34-13.83,2.34.84,7.69,3.45,13.42" style="fill:#fff;stroke:#263238;stroke-linecap:round;stroke-linejoin:round"></path><path d="M238,124.6a25,25,0,0,0-6.19-2.35c-9.61-2.34-21.08,2.58-21.08,2.58s-4.22,1.64-7.74,7.5c-4.82,8-.93,20.85,5.39,25.3,3.21,2.26,7.12,4.06,9.79,6.17a2.47,2.47,0,0,0,.75-.55,30.56,30.56,0,0,0,4-6.56l1.64-2.58s5.62-2.57,6.09-5.85-3.52-8.44-2.34-14.29C229.23,129.35,234.94,126.92,238,124.6Z" style="fill:#263238;stroke:#263238;stroke-linecap:round;stroke-linejoin:round"></path><path d="M227.6,155.05s-3.75-6.32-8.67-2.58,2.49,7.67,5.07,8.38,5.24-1.82,5.24-1.82" style="fill:#fff;stroke:#263238;stroke-linecap:round;stroke-linejoin:round"></path><path d="M244.7,135.84a22.94,22.94,0,0,0,1.64,3l.94,1.4a10.19,10.19,0,0,1-5.62,1.64" style="fill:none;stroke:#263238;stroke-linecap:round;stroke-linejoin:round"></path><polygon points="245.58 164.9 232.42 163.38 238.15 166.06 245.58 164.9" style="fill:#263238;stroke:#263238;stroke-linecap:round;stroke-linejoin:round"></polygon><path d="M242.6,131.39s-3.28-.7-4.46,3.28" style="fill:none;stroke:#263238;stroke-linecap:round;stroke-linejoin:round"></path><path d="M145.72,278.51s-1.73,2.07-1,6.22a12,12,0,0,0,2.76,6.21l14.84-6.56S152.62,274,145.72,278.51Z" style="fill:gray;stroke:#263238;stroke-linecap:round;stroke-linejoin:round"></path><path d="M166.08,299.56s6.55-4.83,19.67-17.25-5.18-9-12.43-1.73S166.08,299.56,166.08,299.56Z" style="fill:gray;stroke:#263238;stroke-linecap:round;stroke-linejoin:round"></path><path d="M297.56,303.71l-23.47-17.6s-5.87-16.91,12.42-20.36,29.68,11.38,30,14.83-1,5.18-1,5.18l-17.6-4.83Z" style="fill:gray;stroke:#263238;stroke-linecap:round;stroke-linejoin:round"></path><path d="M263.05,305.78s-10.7-12.43-12.77-15.53,1.72-10.36,7.25-5.18S263.39,299.22,263.05,305.78Z" style="fill:gray;stroke:#263238;stroke-linecap:round;stroke-linejoin:round"></path><path d="M215.08,241.93l-69.36,36.58s3.45-4.14,7.24,4.15,7.94,22.77,13.12,16.9,3.79-17.6,10.69-17.25,6.91,29,16.57,27.61,9.66-15.19,17.25-15.19,16.57,19.67,22.78,19.67,12.77-22.08,19.33-22.77c9.64-1,7.71,20.41,16.9,18.29,4.49-1,5.87-22.09,13.12-23.81s12.42,21.05,16.56,17.25,1.73-26.23,5.87-26.92,9,14.15,12.77,8.29,5.86-20,5.86-20l-75.23-23.47Z" style="fill:#6C63FF;stroke:#263238;stroke-linecap:round;stroke-linejoin:round"></path><line x1="218.88" y1="247.8" x2="206.83" y2="258.32" style="fill:none;stroke:#263238;stroke-linecap:round;stroke-linejoin:round"></line><line x1="230.95" y1="250.22" x2="230.13" y2="254.11" style="fill:none;stroke:#263238;stroke-linecap:round;stroke-linejoin:round"></line><line x1="247.84" y1="260.95" x2="249.59" y2="264.36" style="fill:none;stroke:#263238;stroke-linecap:round;stroke-linejoin:round"></line><line x1="241.65" y1="248.84" x2="246.59" y2="258.5" style="fill:none;stroke:#263238;stroke-linecap:round;stroke-linejoin:round"></line><line x1="249.24" y1="245.04" x2="259.94" y2="250.56" style="fill:none;stroke:#263238;stroke-linecap:round;stroke-linejoin:round"></line><line x1="291.17" y1="268.02" x2="289.03" y2="266.73" style="fill:none;stroke:#263238;stroke-linecap:round;stroke-linejoin:round"></line><line x1="305.15" y1="276.44" x2="294.36" y2="269.94" style="fill:none;stroke:#263238;stroke-linecap:round;stroke-linejoin:round"></line><line x1="284.18" y1="285.82" x2="259.91" y2="263.82" style="fill:none;stroke:#263238;stroke-linecap:round;stroke-linejoin:round"></line><line x1="217.22" y1="270.16" x2="218.16" y2="268.02" style="fill:none;stroke:#263238;stroke-linecap:round;stroke-linejoin:round"></line><line x1="207.48" y1="292.3" x2="215.81" y2="273.35" style="fill:none;stroke:#263238;stroke-linecap:round;stroke-linejoin:round"></line><line x1="193.47" y1="267.33" x2="196.15" y2="265.11" style="fill:none;stroke:#263238;stroke-linecap:round;stroke-linejoin:round"></line><line x1="175.44" y1="282.26" x2="191.2" y2="269.21" style="fill:none;stroke:#263238;stroke-linecap:round;stroke-linejoin:round"></line><path d="M246.83,194.31c-8.28.35-12.08,13.46-12.08,13.46s-10.7-11-17.95-7.25-11.13,13.84-11.13,13.84l9.37,30.2s4.94,7,21.86,4.68,14.58-10.15,14.58-10.15l.78-5.47s7.55-16.14,6.51-23.16a89.66,89.66,0,0,0-3-12.11A10.12,10.12,0,0,0,246.83,194.31Z" style="fill:#6C63FF;stroke:#263238;stroke-linecap:round;stroke-linejoin:round"></path><path d="M223.63,231a22.86,22.86,0,0,0,2.39.5" style="fill:none;stroke:#263238;stroke-linecap:round;stroke-linejoin:round"></path><path d="M212.56,223.59a19,19,0,0,0,8.37,6.52" style="fill:none;stroke:#263238;stroke-linecap:round;stroke-linejoin:round"></path><line x1="270.22" y1="47.51" x2="266.57" y2="53.24" style="fill:none;stroke:#263238;stroke-linecap:round;stroke-linejoin:round"></line><path d="M176.08,333.73s31.41-29.33,68.68-52.8S300,244,300.32,234s-17.6-2.42-27.61-2.76,2.07-17.6,22.43-16.91,23.47,11.38,11.39,30-35.55,23.47-61.43,40S181.26,332,178.15,334.76,174,335.45,176.08,333.73Z" style="fill:#6C63FF"></path><path d="M176.08,333.73s31.41-29.33,68.68-52.8S300,244,300.32,234s-17.6-2.42-27.61-2.76,2.07-17.6,22.43-16.91,23.47,11.38,11.39,30-35.55,23.47-61.43,40S181.26,332,178.15,334.76,174,335.45,176.08,333.73Z" style="fill:#fff;opacity:0.4"></path><path d="M172.29,160.15c1,0-38.31,1-34.17-33.48S188.51,71.11,215.77,59s35.89-29.67,34.85-36.23,4.15-11.39,6.91-1,2.76,21.4-10.36,32.1-53.49,20.7-79,39.34-29,40-22.43,51.76S171.25,160.15,172.29,160.15Z" style="fill:#6C63FF"></path><path d="M172.29,160.15c1,0-38.31,1-34.17-33.48S188.51,71.11,215.77,59s35.89-29.67,34.85-36.23,4.15-11.39,6.91-1,2.76,21.4-10.36,32.1-53.49,20.7-79,39.34-29,40-22.43,51.76S171.25,160.15,172.29,160.15Z" style="fill:#fff;opacity:0.4"></path><path d="M297.21,341.32c4.83,10.35,3.8,22.43-3.45,29-14.91,13.49-55.56,24.85-69,34.51s-3.1,15.87-3.1,15.87-10,1.38-9.67-7.59,14.84-19,39-29,47.62-15.87,39-39.68" style="fill:#6C63FF"></path><path d="M297.21,341.32c4.83,10.35,3.8,22.43-3.45,29-14.91,13.49-55.56,24.85-69,34.51s-3.1,15.87-3.1,15.87-10,1.38-9.67-7.59,14.84-19,39-29,47.62-15.87,39-39.68" style="fill:#fff;opacity:0.4"></path><path d="M176.08,175.68a3.8,3.8,0,1,1-3.79-3.8A3.79,3.79,0,0,1,176.08,175.68Z" style="fill:#6C63FF"></path><circle cx="206.97" cy="168.95" r="1.9" style="fill:#6C63FF"></circle><circle cx="277.71" cy="188.27" r="3.97" style="fill:#6C63FF"></circle><path d="M292.38,151.17a1.73,1.73,0,1,1-1.72-1.72A1.72,1.72,0,0,1,292.38,151.17Z" style="fill:#6C63FF"></path><path d="M186.78,107.35a2.42,2.42,0,1,1-2.41-2.42A2.41,2.41,0,0,1,186.78,107.35Z" style="fill:#6C63FF"></path><path d="M168.49,239.35a1.9,1.9,0,1,1-1.9-1.9A1.9,1.9,0,0,1,168.49,239.35Z" style="fill:#6C63FF"></path><path d="M179.36,319.24a1.9,1.9,0,1,1-1.9-1.9A1.9,1.9,0,0,1,179.36,319.24Z" style="fill:#6C63FF"></path><path d="M171.25,324.76a2.59,2.59,0,1,1-2.59-2.59A2.58,2.58,0,0,1,171.25,324.76Z" style="fill:#6C63FF"></path><path d="M294.11,321.65a2.08,2.08,0,1,1-2.07-2.07A2.07,2.07,0,0,1,294.11,321.65Z" style="fill:#6C63FF"></path><circle cx="254.94" cy="370.14" r="2.59" style="fill:#6C63FF"></circle><path d="M252.52,410.69a2.59,2.59,0,1,1-2.59-2.59A2.59,2.59,0,0,1,252.52,410.69Z" style="fill:#6C63FF"></path><path d="M306.27,209.44s18.24,4.83,20.92,13.95-6.44,18.24-6.44,18.24,13.95-4.29,13.95-17.71-13.95-17.7-18.24-18.77S302,204.61,306.27,209.44Z" style="fill:#6C63FF"></path><path d="M306.27,209.44s18.24,4.83,20.92,13.95-6.44,18.24-6.44,18.24,13.95-4.29,13.95-17.71-13.95-17.7-18.24-18.77S302,204.61,306.27,209.44Z" style="fill:#fff;opacity:0.4"></path><rect x="121.6" y="203.2" width="2.62" height="2.62" style="fill:#fff;stroke:#263238;stroke-linecap:round;stroke-linejoin:round"></rect><rect x="97.07" y="202.79" width="2.62" height="2.62" style="fill:#fff;stroke:#263238;stroke-linecap:round;stroke-linejoin:round"></rect><rect x="169.21" y="212.79" width="2.62" height="2.62" style="fill:#fff;stroke:#263238;stroke-linecap:round;stroke-linejoin:round"></rect><rect x="101.28" y="208.36" width="2.62" height="2.62" style="fill:#fff;stroke:#263238;stroke-linecap:round;stroke-linejoin:round"></rect><rect x="91.38" y="213.57" width="2.62" height="2.62" style="fill:#fff;stroke:#263238;stroke-linecap:round;stroke-linejoin:round"></rect><rect x="76.81" y="219.82" width="2.62" height="2.62" style="fill:#fff;stroke:#263238;stroke-linecap:round;stroke-linejoin:round"></rect><rect x="163.49" y="201.6" width="2.62" height="2.62" style="fill:#fff;stroke:#263238;stroke-linecap:round;stroke-linejoin:round"></rect><rect x="197.69" y="188.69" width="2.62" height="2.62" style="fill:#fff;stroke:#263238;stroke-linecap:round;stroke-linejoin:round"></rect><line x1="96.97" y1="203.87" x2="81.03" y2="203.87" style="fill:#fff;stroke:#263238;stroke-linecap:round;stroke-linejoin:round"></line><line x1="115.96" y1="203.87" x2="100.02" y2="203.87" style="fill:#fff;stroke:#263238;stroke-linecap:round;stroke-linejoin:round"></line><circle cx="81.03" cy="203.87" r="1.64" style="fill:#263238"></circle><path d="M117.84,203.87a1.64,1.64,0,1,0-1.64,1.64A1.64,1.64,0,0,0,117.84,203.87Z" style="fill:#263238"></path><line x1="168.94" y1="213.95" x2="153" y2="213.95" style="fill:#fff;stroke:#263238;stroke-linecap:round;stroke-linejoin:round"></line><line x1="187.93" y1="213.95" x2="171.99" y2="213.95" style="fill:#fff;stroke:#263238;stroke-linecap:round;stroke-linejoin:round"></line><path d="M154.64,214a1.64,1.64,0,1,0-1.64,1.64A1.63,1.63,0,0,0,154.64,214Z" style="fill:#263238"></path><circle cx="188.16" cy="213.95" r="1.64" style="fill:#263238"></circle></g></svg>