<svg width="26" height="24" viewBox="0 0 26 24" fill="none" xmlns="http://www.w3.org/2000/svg">
    <path fill-rule="evenodd" clip-rule="evenodd"
        d="M12.6 16.826C12.5758 17.9963 11.6117 18.9278 10.4413 18.9118C9.2708 18.8957 8.33261 17.9382 8.3405 16.7676C8.3484 15.5971 9.29942 14.6522 10.47 14.652C11.0408 14.6578 11.5858 14.8901 11.9853 15.2978C12.3847 15.7055 12.6059 16.2552 12.6 16.826V16.826Z"
        stroke="black" stroke-width="1.5" stroke-linecap="round" stroke-linejoin="round" />
    <path fill-rule="evenodd" clip-rule="evenodd"
        d="M22.745 16.826C22.7208 17.9963 21.7568 18.9278 20.5863 18.9118C19.4158 18.8957 18.4776 17.9382 18.4855 16.7676C18.4934 15.5971 19.4444 14.6522 20.615 14.652C21.1858 14.6578 21.7308 14.8901 22.1303 15.2978C22.5298 15.7055 22.7509 16.2552 22.745 16.826V16.826Z"
        stroke="black" stroke-width="1.5" stroke-linecap="round" stroke-linejoin="round" />
    <path
        d="M18.234 17.576C18.6482 17.576 18.984 17.2402 18.984 16.826C18.984 16.4118 18.6482 16.076 18.234 16.076V17.576ZM12.6 16.076C12.1858 16.076 11.85 16.4118 11.85 16.826C11.85 17.2402 12.1858 17.576 12.6 17.576V16.076ZM17.488 16.826C17.488 17.2402 17.8238 17.576 18.238 17.576C18.6522 17.576 18.988 17.2402 18.988 16.826H17.488ZM18.988 11.559C18.988 11.1448 18.6522 10.809 18.238 10.809C17.8238 10.809 17.488 11.1448 17.488 11.559H18.988ZM18.238 16.076C17.8238 16.076 17.488 16.4118 17.488 16.826C17.488 17.2402 17.8238 17.576 18.238 17.576V16.076ZM18.489 17.576C18.9032 17.576 19.239 17.2402 19.239 16.826C19.239 16.4118 18.9032 16.076 18.489 16.076V17.576ZM22.7331 16.0762C22.319 16.0849 21.9904 16.4277 21.9992 16.8419C22.0079 17.256 22.3507 17.5846 22.7649 17.5758L22.7331 16.0762ZM25 14.485L25.7499 14.4715C25.7492 14.4318 25.7453 14.3923 25.7383 14.3533L25 14.485ZM25.2163 11.4273C25.1436 11.0195 24.7541 10.7479 24.3463 10.8207C23.9385 10.8934 23.6669 11.2829 23.7397 11.6907L25.2163 11.4273ZM18.234 6.127C17.8198 6.127 17.484 6.46279 17.484 6.877C17.484 7.29121 17.8198 7.627 18.234 7.627V6.127ZM21.805 6.877V7.62701L21.8097 7.62699L21.805 6.877ZM23.4346 7.56387L22.8944 8.08418L23.4346 7.56387ZM24.06 9.218L23.3107 9.18522C23.3083 9.24032 23.312 9.29553 23.3217 9.34983L24.06 9.218ZM23.7397 11.6908C23.8125 12.0986 24.2021 12.3701 24.6098 12.2973C25.0176 12.2245 25.2891 11.8349 25.2163 11.4272L23.7397 11.6908ZM18.984 6.877C18.984 6.46279 18.6482 6.127 18.234 6.127C17.8198 6.127 17.484 6.46279 17.484 6.877H18.984ZM17.484 11.559C17.484 11.9732 17.8198 12.309 18.234 12.309C18.6482 12.309 18.984 11.9732 18.984 11.559H17.484ZM17.484 6.877C17.484 7.29121 17.8198 7.627 18.234 7.627C18.6482 7.627 18.984 7.29121 18.984 6.877H17.484ZM18.234 6.077L17.484 6.07208V6.077H18.234ZM17.17 5L17.1742 4.25H17.17V5ZM7.585 5V4.24999L7.5815 4.25001L7.585 5ZM6.82986 5.31693L6.29705 4.78908V4.78908L6.82986 5.31693ZM6.52 6.075H7.27001L7.26999 6.07149L6.52 6.075ZM6.52 15.75L7.27 15.7535V15.75H6.52ZM6.82986 16.5081L6.29705 17.0359L6.82986 16.5081ZM7.585 16.825L7.5815 17.575H7.585V16.825ZM8.336 17.575C8.75021 17.575 9.086 17.2392 9.086 16.825C9.086 16.4108 8.75021 16.075 8.336 16.075V17.575ZM18.236 10.808C17.8218 10.808 17.486 11.1438 17.486 11.558C17.486 11.9722 17.8218 12.308 18.236 12.308V10.808ZM24.48 12.308C24.8942 12.308 25.23 11.9722 25.23 11.558C25.23 11.1438 24.8942 10.808 24.48 10.808V12.308ZM1 6.25C0.585786 6.25 0.25 6.58579 0.25 7C0.25 7.41421 0.585786 7.75 1 7.75V6.25ZM4.13 7.75C4.54421 7.75 4.88 7.41421 4.88 7C4.88 6.58579 4.54421 6.25 4.13 6.25V7.75ZM2 9.25C1.58579 9.25 1.25 9.58579 1.25 10C1.25 10.4142 1.58579 10.75 2 10.75V9.25ZM4 10.75C4.41421 10.75 4.75 10.4142 4.75 10C4.75 9.58579 4.41421 9.25 4 9.25V10.75ZM2.61 12.25C2.19579 12.25 1.86 12.5858 1.86 13C1.86 13.4142 2.19579 13.75 2.61 13.75V12.25ZM4 13.75C4.41421 13.75 4.75 13.4142 4.75 13C4.75 12.5858 4.41421 12.25 4 12.25V13.75ZM18.234 16.076H12.6V17.576H18.234V16.076ZM18.988 16.826V11.559H17.488V16.826H18.988ZM18.238 17.576H18.489V16.076H18.238V17.576ZM22.7649 17.5758C24.4453 17.5403 25.7802 16.152 25.7499 14.4715L24.2501 14.4985C24.2655 15.3526 23.5871 16.0581 22.7331 16.0762L22.7649 17.5758ZM25.7383 14.3533L25.2163 11.4273L23.7397 11.6907L24.2617 14.6167L25.7383 14.3533ZM18.234 7.627H21.805V6.127H18.234V7.627ZM21.8097 7.62699C22.2186 7.62441 22.6107 7.78967 22.8944 8.08418L23.9747 7.04355C23.406 6.45314 22.62 6.12185 21.8003 6.12701L21.8097 7.62699ZM22.8944 8.08418C23.1781 8.37869 23.3286 8.77668 23.3107 9.18522L24.8093 9.25078C24.8451 8.4318 24.5435 7.63396 23.9747 7.04355L22.8944 8.08418ZM23.3217 9.34983L23.7397 11.6908L25.2163 11.4272L24.7983 9.08617L23.3217 9.34983ZM17.484 6.877V11.559H18.984V6.877H17.484ZM18.984 6.877V6.077H17.484V6.877H18.984ZM18.984 6.08192C18.9872 5.59893 18.7982 5.13449 18.4587 4.79089L17.3917 5.84509C17.4514 5.9055 17.4846 5.98716 17.484 6.07208L18.984 6.08192ZM18.4587 4.79089C18.1193 4.44729 17.6572 4.25271 17.1742 4.25001L17.1658 5.74999C17.2507 5.75046 17.332 5.78467 17.3917 5.84509L18.4587 4.79089ZM17.17 4.25H7.585V5.75H17.17V4.25ZM7.5815 4.25001C7.09881 4.25226 6.63678 4.44617 6.29705 4.78908L7.36266 5.84477C7.42239 5.78448 7.50363 5.75039 7.5885 5.74999L7.5815 4.25001ZM6.29705 4.78908C5.95733 5.13199 5.76775 5.59582 5.77001 6.07851L7.26999 6.07149C7.26959 5.98662 7.30293 5.90507 7.36266 5.84477L6.29705 4.78908ZM5.77 6.075V15.75H7.27V6.075H5.77ZM5.77001 15.7465C5.76775 16.2292 5.95733 16.693 6.29705 17.0359L7.36266 15.9802C7.30293 15.9199 7.26959 15.8384 7.26999 15.7535L5.77001 15.7465ZM6.29705 17.0359C6.63678 17.3788 7.09881 17.5727 7.5815 17.575L7.5885 16.075C7.50363 16.0746 7.42239 16.0405 7.36266 15.9802L6.29705 17.0359ZM7.585 17.575H8.336V16.075H7.585V17.575ZM18.236 12.308H24.48V10.808H18.236V12.308ZM1 7.75H4.13V6.25H1V7.75ZM2 10.75H4V9.25H2V10.75ZM2.61 13.75H4V12.25H2.61V13.75Z"
        fill="black" />
</svg>
