<?xml version="1.0" encoding="UTF-8"?>
<svg xmlns="http://www.w3.org/2000/svg" id="Layer_1" data-name="Layer 1" viewBox="0 0 24 24"
    width="512" height="512">
    <path
        fill="#d4af37"
        d="M19.9,10.831h-.002s-.008-.011,.002,0Zm4.051,1.094l-3.282,11.074h.83c.276,0,.5,.224,.5,.5s-.224,.5-.5,.5H2.5c-.276,0-.5-.224-.5-.5s.224-.5,.5-.5h.83L.053,11.945c-.136-.536,.005-1.073,.372-1.458,.374-.393,.915-.563,1.453-.455,.478,.096,.931,.229,1.354,.394,.01-.064,.031-.126,.067-.185,1.006-1.663,3.11-4.283,6.672-5.034-.596-.549-.971-1.335-.971-2.207,0-1.654,1.346-3,3-3s3,1.346,3,3c0,.872-.375,1.659-.971,2.207,3.562,.75,5.666,3.371,6.672,5.034,.035,.058,.057,.121,.067,.185,.423-.165,.876-.297,1.354-.394,.531-.108,1.078,.062,1.453,.455,.366,.385,.507,.923,.376,1.438ZM10,3c0,1.103,.897,2,2,2s2-.897,2-2-.897-2-2-2-2,.897-2,2Zm-5.9,7.831c1.089,.602,1.917,1.451,2.404,2.463,.929-1.938,3.043-3.294,5.496-3.294s4.567,1.356,5.496,3.294c.487-1.011,1.314-1.859,2.402-2.462,.005,.006,.01,.013,.002-.001-1.075-1.777-3.579-4.831-7.9-4.831s-6.824,3.054-7.9,4.831Zm18.75,.345c-.136-.143-.332-.203-.531-.164-2.664,.537-4.319,2.256-4.319,4.487,0,.276-.224,.5-.5,.5s-.5-.224-.5-.5c0-2.481-2.243-4.5-5-4.5s-5,2.019-5,4.5c0,.276-.224,.5-.5,.5s-.5-.224-.5-.5c0-2.231-1.655-3.95-4.319-4.487-.197-.037-.395,.021-.531,.164-.13,.137-.178,.32-.132,.504l3.356,11.319h15.253l3.361-11.339c.041-.164-.007-.348-.137-.484Z" />
</svg>
