<svg width="48" height="48" viewBox="0 0 48 48" fill="none" xmlns="http://www.w3.org/2000/svg">
<path d="M24 19C26.2091 19 28 17.2091 28 15C28 12.7909 26.2091 11 24 11C21.7909 11 20 12.7909 20 15C20 17.2091 21.7909 19 24 19Z" stroke="black" stroke-width="1.5" stroke-linecap="round" stroke-linejoin="round"/>
<path d="M31 26C31 24.1435 30.2625 22.363 28.9497 21.0503C27.637 19.7375 25.8565 19 24 19C22.1435 19 20.363 19.7375 19.0503 21.0503C17.7375 22.363 17 24.1435 17 26V29H20L21 37H27L28 29H31V26Z" stroke="black" stroke-width="1.5" stroke-linecap="round" stroke-linejoin="round"/>
<path d="M7.86207 13.0994H8.61207C8.61207 12.7688 8.39565 12.4772 8.07926 12.3815L7.86207 13.0994ZM40.1379 13.0994L39.9207 12.3815C39.6043 12.4772 39.3879 12.7688 39.3879 13.0994H40.1379ZM39.3879 41.1484C39.3879 41.5626 39.7237 41.8984 40.1379 41.8984C40.5521 41.8984 40.8879 41.5626 40.8879 41.1484H39.3879ZM7.11207 41.1562C7.11207 41.5704 7.44785 41.9062 7.86207 41.9062C8.27628 41.9062 8.61207 41.5704 8.61207 41.1562H7.11207ZM2.75 8.90597C2.75 8.44128 3.0931 7.82579 4.14333 7.12942C5.16455 6.45229 6.69176 5.81342 8.64618 5.2653C12.5446 4.17198 17.9732 3.48602 24 3.48602V1.98602C17.8765 1.98602 12.3052 2.68125 8.24113 3.82102C6.21433 4.38944 4.51971 5.08008 3.3144 5.87927C2.13811 6.65923 1.25 7.66688 1.25 8.90597H2.75ZM24 3.48602C30.0268 3.48602 35.4554 4.17198 39.3538 5.2653C41.3082 5.81342 42.8354 6.45229 43.8567 7.12942C44.9069 7.82579 45.25 8.44128 45.25 8.90597H46.75C46.75 7.66688 45.8619 6.65923 44.6856 5.87927C43.4803 5.08008 41.7857 4.38944 39.7589 3.82102C35.6948 2.68125 30.1235 1.98602 24 1.98602V3.48602ZM8.07926 12.3815C6.29705 11.8423 4.91606 11.2269 3.9972 10.5829C3.05658 9.92373 2.75 9.34644 2.75 8.90597H1.25C1.25 10.0847 2.05543 11.0538 3.13633 11.8113C4.23899 12.5841 5.78904 13.2558 7.64488 13.8172L8.07926 12.3815ZM45.25 8.90597C45.25 9.34644 44.9434 9.92372 44.0028 10.5829C43.0839 11.2269 41.7029 11.8423 39.9207 12.3815L40.3551 13.8172C42.211 13.2558 43.761 12.5841 44.8637 11.8113C45.9446 11.0538 46.75 10.0847 46.75 8.90597H45.25ZM39.3879 13.0994V41.1484H40.8879V13.0994H39.3879ZM7.11207 13.0994V41.1562H8.61207V13.0994H7.11207Z" fill="black"/>
<path d="M2 8.96725V36.9673C2 40.3748 11.8497 43.1372 24 43.1372C36.1503 43.1372 46 40.3748 46 36.9673V9" stroke="black" stroke-width="1.5" stroke-linecap="round"/>
<path d="M46 22.708C46 24.3428 43.7851 25.8325 40.1511 26.9539" stroke="black" stroke-width="1.5" stroke-linecap="round"/>
<path d="M11.8751 31.9604C10.4059 32.2328 9.06041 32.5532 7.86707 32.9137" stroke="black" stroke-width="1.5" stroke-linecap="round"/>
<path d="M36.125 31.9604C37.5941 32.2328 38.9397 32.5532 40.133 32.9137" stroke="black" stroke-width="1.5" stroke-linecap="round"/>
<path d="M14 3.44281V13.4428" stroke="black" stroke-width="1.5" stroke-linecap="round"/>
<path d="M34 3.44281V13.4428" stroke="black" stroke-width="1.5" stroke-linecap="round"/>
<path d="M2 22.708C2 24.3456 4.22245 25.8376 7.86758 26.9597" stroke="black" stroke-width="1.5" stroke-linecap="round"/>
</svg>
