<?xml version="1.0" standalone="no"?>
<!DOCTYPE svg PUBLIC "-//W3C//DTD SVG 20010904//EN"
 "http://www.w3.org/TR/2001/REC-SVG-20010904/DTD/svg10.dtd">
<svg version="1.0" xmlns="http://www.w3.org/2000/svg"
 width="987.000000pt" height="636.000000pt" viewBox="0 0 987.000000 636.000000"
 preserveAspectRatio="xMidYMid meet">

<g transform="translate(0.000000,636.000000) scale(0.100000,-0.100000)"
fill="#000000" stroke="none">
<path fill="#006a38" d="M1278 6297 c-116 -63 -161 -105 -204 -192 -33 -68 -37 -85 -41 -173
-5 -99 -4 -102 57 -381 24 -113 26 -269 5 -416 -30 -211 -36 -344 -21 -430 29
-166 104 -288 210 -342 40 -21 64 -27 113 -26 65 1 86 9 298 121 107 56 169
67 325 56 69 -5 170 -8 225 -8 93 1 106 4 177 37 155 73 238 183 283 375 48
202 -30 450 -184 589 -24 22 -135 79 -322 166 -110 51 -187 128 -310 308 -131
193 -164 233 -241 286 -75 53 -140 73 -227 72 -58 0 -76 -5 -143 -42z"/>
<path fill="#000000" d="M5547 5633 c194 -326 343 -708 437 -1123 41 -180 49 -376 22 -525
-46 -253 -188 -471 -431 -660 -201 -157 -419 -267 -1075 -545 -412 -174 -546
-276 -649 -493 -93 -195 -94 -321 -6 -667 75 -299 91 -382 106 -533 30 -323
-65 -545 -307 -719 -240 -171 -523 -248 -919 -248 -212 0 -557 28 -700 56
-373 74 -785 233 -1070 413 -114 73 -115 73 -115 67 0 -10 252 -171 359 -230
57 -31 145 -77 196 -101 92 -43 372 -151 430 -166 16 -4 71 -18 120 -32 229
-62 373 -85 675 -108 343 -26 671 12 890 103 350 146 532 357 558 646 14 157
-25 419 -107 717 -41 150 -71 313 -71 387 0 77 35 228 68 293 41 82 96 156
164 221 120 116 202 158 728 379 74 31 190 82 258 112 709 316 1014 668 1015
1168 0 344 -175 906 -425 1359 -63 115 -184 306 -193 306 -2 0 16 -35 42 -77z"/>
<path fill="#ed1b24" d="M3731 5668 c-125 -17 -300 -124 -384 -233 -93 -122 -125 -233 -137
-470 -14 -278 -37 -338 -242 -624 -98 -137 -156 -258 -170 -355 -21 -153 26
-293 140 -409 90 -92 191 -137 312 -137 117 0 193 30 386 151 128 80 255 143
330 163 32 8 129 29 214 46 85 17 189 38 230 47 248 50 442 249 442 454 0 115
-32 169 -208 352 -134 140 -180 215 -210 342 -45 187 -95 345 -131 409 -79
141 -228 247 -375 266 -85 11 -110 11 -197 -2z"/>
<path fill="#6C63FF" d="M341 4159 c-80 -14 -138 -46 -211 -119 -147 -146 -149 -324 -6 -564
66 -111 136 -250 136 -270 0 -8 4 -17 9 -20 9 -6 28 -100 57 -276 31 -190 58
-292 95 -362 26 -50 105 -140 150 -173 74 -53 114 -66 204 -66 111 0 135 13
320 179 107 97 194 133 385 157 256 33 405 118 483 278 111 228 15 531 -218
689 -96 65 -182 93 -335 107 -241 23 -339 66 -556 242 -155 125 -258 181 -366
199 -71 11 -72 11 -147 -1z"/>
<path fill="#6C63FF" d="M4682 2422 c-6 -5 -30 -60 -51 -123 -22 -63 -51 -145 -66 -184 -48
-128 -86 -229 -125 -337 l-40 -108 23 -14 c22 -14 41 -19 64 -17 16 1 55 79
78 156 10 33 21 63 25 68 7 8 236 67 260 67 8 0 23 -17 32 -38 38 -82 131
-277 134 -281 7 -8 63 21 83 43 l21 22 -32 59 c-28 53 -88 199 -88 218 0 4 14
7 31 7 48 0 69 16 69 53 0 46 -16 57 -81 57 -66 0 -85 16 -115 98 -65 183
-119 262 -178 262 -17 0 -37 -4 -44 -8z m107 -266 c32 -105 31 -111 -36 -136
-73 -27 -113 -35 -113 -23 0 6 17 48 39 94 21 46 44 101 51 123 10 32 14 36
25 25 7 -8 23 -45 34 -83z"/>
<path fill="#6C63FF" d="M6089 2404 c-10 -12 -16 -59 -19 -158 l-5 -141 -77 -3 -78 -3 0 -54
0 -55 84 0 84 0 4 -158 c2 -132 6 -163 21 -186 22 -33 39 -40 72 -32 l25 6 0
190 0 189 83 3 82 3 0 54 0 53 -85 2 -85 1 -7 129 c-8 140 -21 176 -62 176
-13 0 -30 -7 -37 -16z"/>
<path fill="#6C63FF" d="M5220 2195 c-14 -17 -8 -96 27 -389 20 -166 31 -186 99 -186 l44 0 0
38 c0 22 -5 76 -11 121 -14 107 -7 143 42 196 78 85 223 122 312 80 38 -18 39
-18 59 3 27 26 30 95 5 119 -15 15 -33 18 -113 15 -117 -3 -198 -28 -271 -83
-29 -21 -54 -35 -56 -31 -3 4 -10 26 -17 50 -6 24 -20 52 -31 63 -23 23 -72
25 -89 4z"/>
<path  d="M9497 2165 c-130 -48 -227 -189 -227 -331 0 -100 51 -165 153 -197
126 -40 286 -2 387 90 42 37 51 71 25 93 -13 11 -27 8 -78 -14 -86 -36 -194
-66 -242 -66 -75 0 -139 65 -104 106 29 36 66 44 191 44 68 0 140 5 160 10 50
14 78 52 78 106 0 57 -40 104 -125 144 -71 34 -151 39 -218 15z m178 -99 c44
-19 48 -52 8 -60 -99 -19 -233 -18 -233 3 0 7 84 52 120 64 29 10 71 7 105 -7z"/>
<path  d="M6726 2155 c-217 -55 -332 -190 -246 -288 50 -58 74 -63 210 -42 65
9 123 14 129 10 42 -25 -57 -90 -242 -158 -17 -6 -16 -10 9 -43 25 -32 31 -35
63 -30 54 8 211 89 264 137 85 74 102 143 45 180 -30 18 -43 20 -143 14 -60
-3 -140 -8 -177 -11 -64 -6 -68 -5 -68 14 0 34 47 80 106 101 70 27 154 27
229 1 32 -11 60 -20 62 -20 10 0 -10 116 -22 128 -19 20 -150 24 -219 7z"/>
<path  d="M8093 2151 c-153 -56 -280 -212 -290 -356 -8 -107 45 -155 171 -155
84 0 160 28 221 82 51 45 64 42 65 -17 1 -66 8 -75 62 -75 48 0 50 1 43 23 -4
12 -11 103 -15 202 -10 212 -14 233 -50 276 -24 30 -32 33 -91 36 -44 2 -80
-3 -116 -16z m132 -121 c24 -27 14 -73 -33 -146 -78 -121 -224 -186 -268 -119
-22 34 -11 73 40 142 46 62 102 107 163 129 53 18 77 17 98 -6z"/>
<path  d="M7425 2149 c-32 -5 -81 -16 -108 -25 -46 -15 -51 -15 -82 2 -28 15
-38 16 -61 5 l-27 -12 7 -327 c3 -180 9 -387 12 -459 l7 -133 27 0 c15 0 38 9
51 19 24 19 24 22 24 212 l0 192 70 16 c161 39 284 124 349 241 24 44 29 71
27 139 -1 49 -72 116 -133 126 -83 13 -103 13 -163 4z m94 -109 c87 -25 106
-92 44 -161 -45 -50 -103 -84 -194 -115 -115 -39 -111 -42 -107 80 3 95 5 107
28 131 34 36 55 47 120 61 71 16 69 16 109 4z"/>
<path  d="M8825 2149 c-150 -35 -283 -128 -339 -236 -23 -46 -21 -139 4 -180
42 -70 181 -121 290 -108 90 11 272 61 328 89 48 24 52 29 52 61 0 29 -4 36
-25 41 -39 10 -89 -1 -206 -45 -122 -46 -195 -58 -256 -42 -86 23 -112 117
-52 185 35 40 123 87 217 115 55 17 64 18 77 4 8 -8 15 -23 15 -34 0 -28 22
-23 58 12 35 34 43 81 19 113 -23 31 -105 42 -182 25z"/>
<path fill="#000000" d="M2860 1667 c-36 -12 -87 -35 -115 -51 -50 -30 -145 -112 -145 -126 0
-5 24 4 53 19 274 140 509 95 609 -117 26 -53 31 -79 35 -166 8 -153 -6 -217
-94 -425 -11 -26 55 18 122 80 50 47 75 81 107 147 40 80 43 90 46 186 4 114
-13 181 -69 267 -111 173 -348 253 -549 186z"/>
</g>
</svg>
